%FSLAX45Y45*%
G04 Gerber Fmt 4.5, Leading zero omitted, Abs format (unit mm)*
G04 Created by KiCad (PCBNEW (6.0.1)) date 2022-06-06 21:42:32*
%MOMM*%
%LPD*%
G01*
G04 APERTURE LIST*
%TA.AperFunction,Profile*%
%ADD10C,0.100000*%
%TD*%
%ADD11C,0.200000*%
%ADD12C,0.035500*%
%ADD13C,0.046000*%
G04 APERTURE END LIST*
D10*
X5422900Y-6474460D02*
X15298420Y-6474460D01*
X15298420Y-6474460D02*
X15298420Y-16276320D01*
X15298420Y-16276320D02*
X5422900Y-16276320D01*
X5422900Y-16276320D02*
X5422900Y-6474460D01*
D11*
D12*
X6045650Y-8870910D02*
X6081150Y-8906410D01*
X6081150Y-8870910D02*
X6045650Y-8906410D01*
X6048750Y-8605610D02*
X6084250Y-8641110D01*
X6084250Y-8605610D02*
X6048750Y-8641110D01*
X6078250Y-12555250D02*
X6113750Y-12590750D01*
X6113750Y-12555250D02*
X6078250Y-12590750D01*
X6299650Y-8870910D02*
X6335150Y-8906410D01*
X6335150Y-8870910D02*
X6299650Y-8906410D01*
X6302750Y-8605610D02*
X6338250Y-8641110D01*
X6338250Y-8605610D02*
X6302750Y-8641110D01*
X6332250Y-12555250D02*
X6367750Y-12590750D01*
X6367750Y-12555250D02*
X6332250Y-12590750D01*
X6377650Y-11117650D02*
X6413150Y-11153150D01*
X6413150Y-11117650D02*
X6377650Y-11153150D01*
X6392490Y-11774295D02*
X6427990Y-11809795D01*
X6427990Y-11774295D02*
X6392490Y-11809795D01*
X6479250Y-11219250D02*
X6514750Y-11254750D01*
X6514750Y-11219250D02*
X6479250Y-11254750D01*
X6504250Y-11668250D02*
X6539750Y-11703750D01*
X6539750Y-11668250D02*
X6504250Y-11703750D01*
X6553650Y-8870910D02*
X6589150Y-8906410D01*
X6589150Y-8870910D02*
X6553650Y-8906410D01*
X6556750Y-8605610D02*
X6592250Y-8641110D01*
X6592250Y-8605610D02*
X6556750Y-8641110D01*
X6585295Y-11331010D02*
X6620795Y-11366510D01*
X6620795Y-11331010D02*
X6585295Y-11366510D01*
X6586250Y-12555250D02*
X6621750Y-12590750D01*
X6621750Y-12555250D02*
X6586250Y-12590750D01*
X6605850Y-11566650D02*
X6641350Y-11602150D01*
X6641350Y-11566650D02*
X6605850Y-11602150D01*
X6652290Y-12026295D02*
X6687790Y-12061795D01*
X6687790Y-12026295D02*
X6652290Y-12061795D01*
X6658005Y-10843290D02*
X6693505Y-10878790D01*
X6693505Y-10843290D02*
X6658005Y-10878790D01*
X6764050Y-10955050D02*
X6799550Y-10990550D01*
X6799550Y-10955050D02*
X6764050Y-10990550D01*
X6764050Y-11920250D02*
X6799550Y-11955750D01*
X6799550Y-11920250D02*
X6764050Y-11955750D01*
X6807650Y-8870910D02*
X6843150Y-8906410D01*
X6843150Y-8870910D02*
X6807650Y-8906410D01*
X6810750Y-8605610D02*
X6846250Y-8641110D01*
X6846250Y-8605610D02*
X6810750Y-8641110D01*
X6840250Y-10142250D02*
X6875750Y-10177750D01*
X6875750Y-10142250D02*
X6840250Y-10177750D01*
X6840250Y-12174250D02*
X6875750Y-12209750D01*
X6875750Y-12174250D02*
X6840250Y-12209750D01*
X6840250Y-12555250D02*
X6875750Y-12590750D01*
X6875750Y-12555250D02*
X6840250Y-12590750D01*
X6865650Y-11056650D02*
X6901150Y-11092150D01*
X6901150Y-11056650D02*
X6865650Y-11092150D01*
X6865650Y-11818650D02*
X6901150Y-11854150D01*
X6901150Y-11818650D02*
X6865650Y-11854150D01*
X6925250Y-10558250D02*
X6960750Y-10593750D01*
X6960750Y-10558250D02*
X6925250Y-10593750D01*
X6925340Y-11541155D02*
X6960840Y-11576655D01*
X6960840Y-11541155D02*
X6925340Y-11576655D01*
X6925975Y-11385580D02*
X6961475Y-11421080D01*
X6961475Y-11385580D02*
X6925975Y-11421080D01*
X7061650Y-8870910D02*
X7097150Y-8906410D01*
X7097150Y-8870910D02*
X7061650Y-8906410D01*
X7064750Y-8605610D02*
X7100250Y-8641110D01*
X7100250Y-8605610D02*
X7064750Y-8641110D01*
X7094250Y-10142250D02*
X7129750Y-10177750D01*
X7129750Y-10142250D02*
X7094250Y-10177750D01*
X7094250Y-10904250D02*
X7129750Y-10939750D01*
X7129750Y-10904250D02*
X7094250Y-10939750D01*
X7094250Y-12174250D02*
X7129750Y-12209750D01*
X7129750Y-12174250D02*
X7094250Y-12209750D01*
X7094250Y-12555250D02*
X7129750Y-12590750D01*
X7129750Y-12555250D02*
X7094250Y-12590750D01*
X7315650Y-8870910D02*
X7351150Y-8906410D01*
X7351150Y-8870910D02*
X7315650Y-8906410D01*
X7318750Y-8605610D02*
X7354250Y-8641110D01*
X7354250Y-8605610D02*
X7318750Y-8641110D01*
X7348250Y-10142250D02*
X7383750Y-10177750D01*
X7383750Y-10142250D02*
X7348250Y-10177750D01*
X7348250Y-10904250D02*
X7383750Y-10939750D01*
X7383750Y-10904250D02*
X7348250Y-10939750D01*
X7348250Y-12174250D02*
X7383750Y-12209750D01*
X7383750Y-12174250D02*
X7348250Y-12209750D01*
X7348250Y-12555250D02*
X7383750Y-12590750D01*
X7383750Y-12555250D02*
X7348250Y-12590750D01*
X7569650Y-8870910D02*
X7605150Y-8906410D01*
X7605150Y-8870910D02*
X7569650Y-8906410D01*
X7572750Y-8605610D02*
X7608250Y-8641110D01*
X7608250Y-8605610D02*
X7572750Y-8641110D01*
X7602250Y-10142250D02*
X7637750Y-10177750D01*
X7637750Y-10142250D02*
X7602250Y-10177750D01*
X7602250Y-10904250D02*
X7637750Y-10939750D01*
X7637750Y-10904250D02*
X7602250Y-10939750D01*
X7602250Y-12174250D02*
X7637750Y-12209750D01*
X7637750Y-12174250D02*
X7602250Y-12209750D01*
X7602250Y-12555250D02*
X7637750Y-12590750D01*
X7637750Y-12555250D02*
X7602250Y-12590750D01*
X7686350Y-7213310D02*
X7721850Y-7248810D01*
X7721850Y-7213310D02*
X7686350Y-7248810D01*
X7686350Y-7467310D02*
X7721850Y-7502810D01*
X7721850Y-7467310D02*
X7686350Y-7502810D01*
X7686350Y-7721310D02*
X7721850Y-7756810D01*
X7721850Y-7721310D02*
X7686350Y-7756810D01*
X7686350Y-7975310D02*
X7721850Y-8010810D01*
X7721850Y-7975310D02*
X7686350Y-8010810D01*
X7686350Y-8229310D02*
X7721850Y-8264810D01*
X7721850Y-8229310D02*
X7686350Y-8264810D01*
X7686350Y-8483310D02*
X7721850Y-8518810D01*
X7721850Y-8483310D02*
X7686350Y-8518810D01*
X7823650Y-8870910D02*
X7859150Y-8906410D01*
X7859150Y-8870910D02*
X7823650Y-8906410D01*
X7856250Y-10142250D02*
X7891750Y-10177750D01*
X7891750Y-10142250D02*
X7856250Y-10177750D01*
X7856250Y-10904250D02*
X7891750Y-10939750D01*
X7891750Y-10904250D02*
X7856250Y-10939750D01*
X7856250Y-12174250D02*
X7891750Y-12209750D01*
X7891750Y-12174250D02*
X7856250Y-12209750D01*
X7856250Y-12555250D02*
X7891750Y-12590750D01*
X7891750Y-12555250D02*
X7856250Y-12590750D01*
X7939650Y-7213010D02*
X7975150Y-7248510D01*
X7975150Y-7213010D02*
X7939650Y-7248510D01*
X7939650Y-7467010D02*
X7975150Y-7502510D01*
X7975150Y-7467010D02*
X7939650Y-7502510D01*
X7939650Y-7721010D02*
X7975150Y-7756510D01*
X7975150Y-7721010D02*
X7939650Y-7756510D01*
X7939650Y-7975010D02*
X7975150Y-8010510D01*
X7975150Y-7975010D02*
X7939650Y-8010510D01*
X7939650Y-8229010D02*
X7975150Y-8264510D01*
X7975150Y-8229010D02*
X7939650Y-8264510D01*
X7939650Y-8483010D02*
X7975150Y-8518510D01*
X7975150Y-8483010D02*
X7939650Y-8518510D01*
X8110250Y-10142250D02*
X8145750Y-10177750D01*
X8145750Y-10142250D02*
X8110250Y-10177750D01*
X8110250Y-10904250D02*
X8145750Y-10939750D01*
X8145750Y-10904250D02*
X8110250Y-10939750D01*
X8110250Y-12174250D02*
X8145750Y-12209750D01*
X8145750Y-12174250D02*
X8110250Y-12209750D01*
X8110250Y-12555250D02*
X8145750Y-12590750D01*
X8145750Y-12555250D02*
X8110250Y-12590750D01*
X8364250Y-10142250D02*
X8399750Y-10177750D01*
X8399750Y-10142250D02*
X8364250Y-10177750D01*
X8364250Y-10904250D02*
X8399750Y-10939750D01*
X8399750Y-10904250D02*
X8364250Y-10939750D01*
X8364250Y-12174250D02*
X8399750Y-12209750D01*
X8399750Y-12174250D02*
X8364250Y-12209750D01*
X8364250Y-12555250D02*
X8399750Y-12590750D01*
X8399750Y-12555250D02*
X8364250Y-12590750D01*
X8618250Y-10142250D02*
X8653750Y-10177750D01*
X8653750Y-10142250D02*
X8618250Y-10177750D01*
X8618250Y-10904250D02*
X8653750Y-10939750D01*
X8653750Y-10904250D02*
X8618250Y-10939750D01*
X8618250Y-12174250D02*
X8653750Y-12209750D01*
X8653750Y-12174250D02*
X8618250Y-12209750D01*
X8618250Y-12555250D02*
X8653750Y-12590750D01*
X8653750Y-12555250D02*
X8618250Y-12590750D01*
X8872250Y-10142250D02*
X8907750Y-10177750D01*
X8907750Y-10142250D02*
X8872250Y-10177750D01*
X8872250Y-10904250D02*
X8907750Y-10939750D01*
X8907750Y-10904250D02*
X8872250Y-10939750D01*
X8872250Y-12174250D02*
X8907750Y-12209750D01*
X8907750Y-12174250D02*
X8872250Y-12209750D01*
X8872250Y-12555250D02*
X8907750Y-12590750D01*
X8907750Y-12555250D02*
X8872250Y-12590750D01*
X9126250Y-10142250D02*
X9161750Y-10177750D01*
X9161750Y-10142250D02*
X9126250Y-10177750D01*
X9126250Y-10904250D02*
X9161750Y-10939750D01*
X9161750Y-10904250D02*
X9126250Y-10939750D01*
X9126250Y-12174250D02*
X9161750Y-12209750D01*
X9161750Y-12174250D02*
X9126250Y-12209750D01*
X9126250Y-12555250D02*
X9161750Y-12590750D01*
X9161750Y-12555250D02*
X9126250Y-12590750D01*
X9380250Y-10142250D02*
X9415750Y-10177750D01*
X9415750Y-10142250D02*
X9380250Y-10177750D01*
X9380250Y-10904250D02*
X9415750Y-10939750D01*
X9415750Y-10904250D02*
X9380250Y-10939750D01*
X9380250Y-12174250D02*
X9415750Y-12209750D01*
X9415750Y-12174250D02*
X9380250Y-12209750D01*
X9380250Y-12555250D02*
X9415750Y-12590750D01*
X9415750Y-12555250D02*
X9380250Y-12590750D01*
X9634250Y-10142250D02*
X9669750Y-10177750D01*
X9669750Y-10142250D02*
X9634250Y-10177750D01*
X9634250Y-10904250D02*
X9669750Y-10939750D01*
X9669750Y-10904250D02*
X9634250Y-10939750D01*
X9634250Y-12174250D02*
X9669750Y-12209750D01*
X9669750Y-12174250D02*
X9634250Y-12209750D01*
X9634250Y-12555250D02*
X9669750Y-12590750D01*
X9669750Y-12555250D02*
X9634250Y-12590750D01*
X9888250Y-10142250D02*
X9923750Y-10177750D01*
X9923750Y-10142250D02*
X9888250Y-10177750D01*
X9888250Y-10904250D02*
X9923750Y-10939750D01*
X9923750Y-10904250D02*
X9888250Y-10939750D01*
X9888250Y-12174250D02*
X9923750Y-12209750D01*
X9923750Y-12174250D02*
X9888250Y-12209750D01*
X9888250Y-12555250D02*
X9923750Y-12590750D01*
X9923750Y-12555250D02*
X9888250Y-12590750D01*
X10142250Y-10142250D02*
X10177750Y-10177750D01*
X10177750Y-10142250D02*
X10142250Y-10177750D01*
X10142250Y-10904250D02*
X10177750Y-10939750D01*
X10177750Y-10904250D02*
X10142250Y-10939750D01*
X10142250Y-12174250D02*
X10177750Y-12209750D01*
X10177750Y-12174250D02*
X10142250Y-12209750D01*
X10142250Y-12555250D02*
X10177750Y-12590750D01*
X10177750Y-12555250D02*
X10142250Y-12590750D01*
X10396250Y-10142250D02*
X10431750Y-10177750D01*
X10431750Y-10142250D02*
X10396250Y-10177750D01*
X10396250Y-10904250D02*
X10431750Y-10939750D01*
X10431750Y-10904250D02*
X10396250Y-10939750D01*
X10396250Y-12174250D02*
X10431750Y-12209750D01*
X10431750Y-12174250D02*
X10396250Y-12209750D01*
X10396250Y-12555250D02*
X10431750Y-12590750D01*
X10431750Y-12555250D02*
X10396250Y-12590750D01*
X10650250Y-10142250D02*
X10685750Y-10177750D01*
X10685750Y-10142250D02*
X10650250Y-10177750D01*
X10650250Y-10904250D02*
X10685750Y-10939750D01*
X10685750Y-10904250D02*
X10650250Y-10939750D01*
X10650250Y-12174250D02*
X10685750Y-12209750D01*
X10685750Y-12174250D02*
X10650250Y-12209750D01*
X10650250Y-12555250D02*
X10685750Y-12590750D01*
X10685750Y-12555250D02*
X10650250Y-12590750D01*
X10904250Y-10142250D02*
X10939750Y-10177750D01*
X10939750Y-10142250D02*
X10904250Y-10177750D01*
X10904250Y-10904250D02*
X10939750Y-10939750D01*
X10939750Y-10904250D02*
X10904250Y-10939750D01*
X10904250Y-12174250D02*
X10939750Y-12209750D01*
X10939750Y-12174250D02*
X10904250Y-12209750D01*
X10904250Y-12555250D02*
X10939750Y-12590750D01*
X10939750Y-12555250D02*
X10904250Y-12590750D01*
X11158250Y-10142250D02*
X11193750Y-10177750D01*
X11193750Y-10142250D02*
X11158250Y-10177750D01*
X11158250Y-10904250D02*
X11193750Y-10939750D01*
X11193750Y-10904250D02*
X11158250Y-10939750D01*
X11158250Y-12174250D02*
X11193750Y-12209750D01*
X11193750Y-12174250D02*
X11158250Y-12209750D01*
X11158250Y-12555250D02*
X11193750Y-12590750D01*
X11193750Y-12555250D02*
X11158250Y-12590750D01*
X11412250Y-10142250D02*
X11447750Y-10177750D01*
X11447750Y-10142250D02*
X11412250Y-10177750D01*
X11412250Y-10904250D02*
X11447750Y-10939750D01*
X11447750Y-10904250D02*
X11412250Y-10939750D01*
X11412250Y-12174250D02*
X11447750Y-12209750D01*
X11447750Y-12174250D02*
X11412250Y-12209750D01*
X11412250Y-12555250D02*
X11447750Y-12590750D01*
X11447750Y-12555250D02*
X11412250Y-12590750D01*
X11666250Y-10142250D02*
X11701750Y-10177750D01*
X11701750Y-10142250D02*
X11666250Y-10177750D01*
X11666250Y-10904250D02*
X11701750Y-10939750D01*
X11701750Y-10904250D02*
X11666250Y-10939750D01*
X11666250Y-12174250D02*
X11701750Y-12209750D01*
X11701750Y-12174250D02*
X11666250Y-12209750D01*
X11666250Y-12555250D02*
X11701750Y-12590750D01*
X11701750Y-12555250D02*
X11666250Y-12590750D01*
X11920250Y-10142250D02*
X11955750Y-10177750D01*
X11955750Y-10142250D02*
X11920250Y-10177750D01*
X11920250Y-10904250D02*
X11955750Y-10939750D01*
X11955750Y-10904250D02*
X11920250Y-10939750D01*
X11920250Y-12174250D02*
X11955750Y-12209750D01*
X11955750Y-12174250D02*
X11920250Y-12209750D01*
X11920250Y-12555250D02*
X11955750Y-12590750D01*
X11955750Y-12555250D02*
X11920250Y-12590750D01*
X12174250Y-10142250D02*
X12209750Y-10177750D01*
X12209750Y-10142250D02*
X12174250Y-10177750D01*
X12174250Y-10904250D02*
X12209750Y-10939750D01*
X12209750Y-10904250D02*
X12174250Y-10939750D01*
X12174250Y-12174250D02*
X12209750Y-12209750D01*
X12209750Y-12174250D02*
X12174250Y-12209750D01*
X12174250Y-12555250D02*
X12209750Y-12590750D01*
X12209750Y-12555250D02*
X12174250Y-12590750D01*
X12428250Y-10142250D02*
X12463750Y-10177750D01*
X12463750Y-10142250D02*
X12428250Y-10177750D01*
X12428250Y-10904250D02*
X12463750Y-10939750D01*
X12463750Y-10904250D02*
X12428250Y-10939750D01*
X12428250Y-12174250D02*
X12463750Y-12209750D01*
X12463750Y-12174250D02*
X12428250Y-12209750D01*
X12428250Y-12555250D02*
X12463750Y-12590750D01*
X12463750Y-12555250D02*
X12428250Y-12590750D01*
X12682250Y-10142250D02*
X12717750Y-10177750D01*
X12717750Y-10142250D02*
X12682250Y-10177750D01*
X12682250Y-10904250D02*
X12717750Y-10939750D01*
X12717750Y-10904250D02*
X12682250Y-10939750D01*
X12682250Y-12174250D02*
X12717750Y-12209750D01*
X12717750Y-12174250D02*
X12682250Y-12209750D01*
X12682250Y-12555250D02*
X12717750Y-12590750D01*
X12717750Y-12555250D02*
X12682250Y-12590750D01*
X12733050Y-7246650D02*
X12768550Y-7282150D01*
X12768550Y-7246650D02*
X12733050Y-7282150D01*
X12733050Y-7399050D02*
X12768550Y-7434550D01*
X12768550Y-7399050D02*
X12733050Y-7434550D01*
X12834650Y-7500650D02*
X12870150Y-7536150D01*
X12870150Y-7500650D02*
X12834650Y-7536150D01*
X12936250Y-7602250D02*
X12971750Y-7637750D01*
X12971750Y-7602250D02*
X12936250Y-7637750D01*
X12936250Y-10142250D02*
X12971750Y-10177750D01*
X12971750Y-10142250D02*
X12936250Y-10177750D01*
X12936250Y-10904250D02*
X12971750Y-10939750D01*
X12971750Y-10904250D02*
X12936250Y-10939750D01*
X12936250Y-12174250D02*
X12971750Y-12209750D01*
X12971750Y-12174250D02*
X12936250Y-12209750D01*
X12936250Y-12555250D02*
X12971750Y-12590750D01*
X12971750Y-12555250D02*
X12936250Y-12590750D01*
X13037850Y-7246650D02*
X13073350Y-7282150D01*
X13073350Y-7246650D02*
X13037850Y-7282150D01*
X13037850Y-7703850D02*
X13073350Y-7739350D01*
X13073350Y-7703850D02*
X13037850Y-7739350D01*
X13088650Y-7399050D02*
X13124150Y-7434550D01*
X13124150Y-7399050D02*
X13088650Y-7434550D01*
X13139450Y-7805450D02*
X13174950Y-7840950D01*
X13174950Y-7805450D02*
X13139450Y-7840950D01*
X13190250Y-7500650D02*
X13225750Y-7536150D01*
X13225750Y-7500650D02*
X13190250Y-7536150D01*
X13190250Y-10142250D02*
X13225750Y-10177750D01*
X13225750Y-10142250D02*
X13190250Y-10177750D01*
X13190250Y-10904250D02*
X13225750Y-10939750D01*
X13225750Y-10904250D02*
X13190250Y-10939750D01*
X13190250Y-12174250D02*
X13225750Y-12209750D01*
X13225750Y-12174250D02*
X13190250Y-12209750D01*
X13190250Y-12555250D02*
X13225750Y-12590750D01*
X13225750Y-12555250D02*
X13190250Y-12590750D01*
X13241050Y-7907050D02*
X13276550Y-7942550D01*
X13276550Y-7907050D02*
X13241050Y-7942550D01*
X13291850Y-7602250D02*
X13327350Y-7637750D01*
X13327350Y-7602250D02*
X13291850Y-7637750D01*
X13342650Y-8008650D02*
X13378150Y-8044150D01*
X13378150Y-8008650D02*
X13342650Y-8044150D01*
X13393450Y-7703850D02*
X13428950Y-7739350D01*
X13428950Y-7703850D02*
X13393450Y-7739350D01*
X13444250Y-8110250D02*
X13479750Y-8145750D01*
X13479750Y-8110250D02*
X13444250Y-8145750D01*
X13444250Y-10142250D02*
X13479750Y-10177750D01*
X13479750Y-10142250D02*
X13444250Y-10177750D01*
X13444250Y-10904250D02*
X13479750Y-10939750D01*
X13479750Y-10904250D02*
X13444250Y-10939750D01*
X13444250Y-12174250D02*
X13479750Y-12209750D01*
X13479750Y-12174250D02*
X13444250Y-12209750D01*
X13444250Y-12555250D02*
X13479750Y-12590750D01*
X13479750Y-12555250D02*
X13444250Y-12590750D01*
X13495050Y-7805450D02*
X13530550Y-7840950D01*
X13530550Y-7805450D02*
X13495050Y-7840950D01*
X13545850Y-8211850D02*
X13581350Y-8247350D01*
X13581350Y-8211850D02*
X13545850Y-8247350D01*
X13574750Y-8066750D02*
X13610250Y-8102250D01*
X13610250Y-8066750D02*
X13574750Y-8102250D01*
X13596650Y-7907050D02*
X13632150Y-7942550D01*
X13632150Y-7907050D02*
X13596650Y-7942550D01*
X13647450Y-8313450D02*
X13682950Y-8348950D01*
X13682950Y-8313450D02*
X13647450Y-8348950D01*
X13698250Y-8008650D02*
X13733750Y-8044150D01*
X13733750Y-8008650D02*
X13698250Y-8044150D01*
X13698250Y-10142250D02*
X13733750Y-10177750D01*
X13733750Y-10142250D02*
X13698250Y-10177750D01*
X13698250Y-10904250D02*
X13733750Y-10939750D01*
X13733750Y-10904250D02*
X13698250Y-10939750D01*
X13698250Y-12174250D02*
X13733750Y-12209750D01*
X13733750Y-12174250D02*
X13698250Y-12209750D01*
X13698250Y-12555250D02*
X13733750Y-12590750D01*
X13733750Y-12555250D02*
X13698250Y-12590750D01*
X13749050Y-8415050D02*
X13784550Y-8450550D01*
X13784550Y-8415050D02*
X13749050Y-8450550D01*
X13799850Y-8110250D02*
X13835350Y-8145750D01*
X13835350Y-8110250D02*
X13799850Y-8145750D01*
X13822075Y-11539885D02*
X13857575Y-11575385D01*
X13857575Y-11539885D02*
X13822075Y-11575385D01*
X13822250Y-10558250D02*
X13857750Y-10593750D01*
X13857750Y-10558250D02*
X13822250Y-10593750D01*
X13822710Y-11384310D02*
X13858210Y-11419810D01*
X13858210Y-11384310D02*
X13822710Y-11419810D01*
X13850650Y-8516650D02*
X13886150Y-8552150D01*
X13886150Y-8516650D02*
X13850650Y-8552150D01*
X13891290Y-11061095D02*
X13926790Y-11096595D01*
X13926790Y-11061095D02*
X13891290Y-11096595D01*
X13897005Y-11859290D02*
X13932505Y-11894790D01*
X13932505Y-11859290D02*
X13897005Y-11894790D01*
X13901450Y-8211850D02*
X13936950Y-8247350D01*
X13936950Y-8211850D02*
X13901450Y-8247350D01*
X13952250Y-8618250D02*
X13987750Y-8653750D01*
X13987750Y-8618250D02*
X13952250Y-8653750D01*
X13952250Y-10142250D02*
X13987750Y-10177750D01*
X13987750Y-10142250D02*
X13952250Y-10177750D01*
X13952250Y-12174250D02*
X13987750Y-12209750D01*
X13987750Y-12174250D02*
X13952250Y-12209750D01*
X13952250Y-12555250D02*
X13987750Y-12590750D01*
X13987750Y-12555250D02*
X13952250Y-12590750D01*
X14003050Y-8313450D02*
X14038550Y-8348950D01*
X14038550Y-8313450D02*
X14003050Y-8348950D01*
X14003050Y-10955050D02*
X14038550Y-10990550D01*
X14038550Y-10955050D02*
X14003050Y-10990550D01*
X14003050Y-11971050D02*
X14038550Y-12006550D01*
X14038550Y-11971050D02*
X14003050Y-12006550D01*
X14104650Y-8415050D02*
X14140150Y-8450550D01*
X14140150Y-8415050D02*
X14104650Y-8450550D01*
X14104650Y-10853450D02*
X14140150Y-10888950D01*
X14140150Y-10853450D02*
X14104650Y-10888950D01*
X14104650Y-12072650D02*
X14140150Y-12108150D01*
X14140150Y-12072650D02*
X14104650Y-12108150D01*
X14120490Y-11286295D02*
X14155990Y-11321795D01*
X14155990Y-11286295D02*
X14120490Y-11321795D01*
X14124650Y-11618650D02*
X14160150Y-11654150D01*
X14160150Y-11618650D02*
X14124650Y-11654150D01*
X14147150Y-8872550D02*
X14182650Y-8908050D01*
X14182650Y-8872550D02*
X14147150Y-8908050D01*
X14206250Y-8516650D02*
X14241750Y-8552150D01*
X14241750Y-8516650D02*
X14206250Y-8552150D01*
X14206250Y-12555250D02*
X14241750Y-12590750D01*
X14241750Y-12555250D02*
X14206250Y-12590750D01*
X14226250Y-11720250D02*
X14261750Y-11755750D01*
X14261750Y-11720250D02*
X14226250Y-11755750D01*
X14232250Y-11180250D02*
X14267750Y-11215750D01*
X14267750Y-11180250D02*
X14232250Y-11215750D01*
X14307850Y-8618250D02*
X14343350Y-8653750D01*
X14343350Y-8618250D02*
X14307850Y-8653750D01*
X14307850Y-8872250D02*
X14343350Y-8907750D01*
X14343350Y-8872250D02*
X14307850Y-8907750D01*
X14332295Y-11832010D02*
X14367795Y-11867510D01*
X14367795Y-11832010D02*
X14332295Y-11867510D01*
X14333850Y-11078650D02*
X14369350Y-11114150D01*
X14369350Y-11078650D02*
X14333850Y-11114150D01*
X14460250Y-8618250D02*
X14495750Y-8653750D01*
X14495750Y-8618250D02*
X14460250Y-8653750D01*
X14460250Y-8872250D02*
X14495750Y-8907750D01*
X14495750Y-8872250D02*
X14460250Y-8907750D01*
X14460250Y-12555250D02*
X14495750Y-12590750D01*
X14495750Y-12555250D02*
X14460250Y-12590750D01*
X14612650Y-8618250D02*
X14648150Y-8653750D01*
X14648150Y-8618250D02*
X14612650Y-8653750D01*
X14612650Y-8872250D02*
X14648150Y-8907750D01*
X14648150Y-8872250D02*
X14612650Y-8907750D01*
D13*
X6073745Y-10137290D02*
G75*
G03*
X6073745Y-10137290I-23000J0D01*
G01*
X6073745Y-11013290D02*
G75*
G03*
X6073745Y-11013290I-23000J0D01*
G01*
X6074345Y-10137290D02*
G75*
G03*
X6074345Y-10137290I-23000J0D01*
G01*
X6074345Y-11013290D02*
G75*
G03*
X6074345Y-11013290I-23000J0D01*
G01*
X6075700Y-13581680D02*
G75*
G03*
X6075700Y-13581680I-23000J0D01*
G01*
X6075700Y-14457680D02*
G75*
G03*
X6075700Y-14457680I-23000J0D01*
G01*
X6076200Y-8331500D02*
G75*
G03*
X6076200Y-8331500I-23000J0D01*
G01*
X6076200Y-9207500D02*
G75*
G03*
X6076200Y-9207500I-23000J0D01*
G01*
X6076285Y-15220465D02*
G75*
G03*
X6076285Y-15220465I-23000J0D01*
G01*
X6076285Y-16096465D02*
G75*
G03*
X6076285Y-16096465I-23000J0D01*
G01*
X6076370Y-13578990D02*
G75*
G03*
X6076370Y-13578990I-23000J0D01*
G01*
X6076370Y-14454990D02*
G75*
G03*
X6076370Y-14454990I-23000J0D01*
G01*
X6076700Y-8331400D02*
G75*
G03*
X6076700Y-8331400I-23000J0D01*
G01*
X6076700Y-9207400D02*
G75*
G03*
X6076700Y-9207400I-23000J0D01*
G01*
X6078240Y-15222520D02*
G75*
G03*
X6078240Y-15222520I-23000J0D01*
G01*
X6078240Y-16098520D02*
G75*
G03*
X6078240Y-16098520I-23000J0D01*
G01*
X6079900Y-11942100D02*
G75*
G03*
X6079900Y-11942100I-23000J0D01*
G01*
X6079900Y-12818100D02*
G75*
G03*
X6079900Y-12818100I-23000J0D01*
G01*
X6080060Y-11942000D02*
G75*
G03*
X6080060Y-11942000I-23000J0D01*
G01*
X6080060Y-12818000D02*
G75*
G03*
X6080060Y-12818000I-23000J0D01*
G01*
X7415500Y-7106400D02*
G75*
G03*
X7415500Y-7106400I-23000J0D01*
G01*
X8291500Y-7106400D02*
G75*
G03*
X8291500Y-7106400I-23000J0D01*
G01*
X12486800Y-7107500D02*
G75*
G03*
X12486800Y-7107500I-23000J0D01*
G01*
X13362800Y-7107500D02*
G75*
G03*
X13362800Y-7107500I-23000J0D01*
G01*
X14685320Y-13589300D02*
G75*
G03*
X14685320Y-13589300I-23000J0D01*
G01*
X14685320Y-14465300D02*
G75*
G03*
X14685320Y-14465300I-23000J0D01*
G01*
X14685320Y-15212360D02*
G75*
G03*
X14685320Y-15212360I-23000J0D01*
G01*
X14685320Y-16088360D02*
G75*
G03*
X14685320Y-16088360I-23000J0D01*
G01*
X14685870Y-13587880D02*
G75*
G03*
X14685870Y-13587880I-23000J0D01*
G01*
X14685870Y-14463880D02*
G75*
G03*
X14685870Y-14463880I-23000J0D01*
G01*
X14685990Y-15212210D02*
G75*
G03*
X14685990Y-15212210I-23000J0D01*
G01*
X14685990Y-16088210D02*
G75*
G03*
X14685990Y-16088210I-23000J0D01*
G01*
X14690435Y-10133480D02*
G75*
G03*
X14690435Y-10133480I-23000J0D01*
G01*
X14690435Y-10134115D02*
G75*
G03*
X14690435Y-10134115I-23000J0D01*
G01*
X14690435Y-11009480D02*
G75*
G03*
X14690435Y-11009480I-23000J0D01*
G01*
X14690435Y-11010115D02*
G75*
G03*
X14690435Y-11010115I-23000J0D01*
G01*
X14706400Y-8331400D02*
G75*
G03*
X14706400Y-8331400I-23000J0D01*
G01*
X14706400Y-9207400D02*
G75*
G03*
X14706400Y-9207400I-23000J0D01*
G01*
X14706500Y-8330200D02*
G75*
G03*
X14706500Y-8330200I-23000J0D01*
G01*
X14706500Y-9206200D02*
G75*
G03*
X14706500Y-9206200I-23000J0D01*
G01*
X14708730Y-11939420D02*
G75*
G03*
X14708730Y-11939420I-23000J0D01*
G01*
X14708730Y-12815420D02*
G75*
G03*
X14708730Y-12815420I-23000J0D01*
G01*
X14709485Y-11941960D02*
G75*
G03*
X14709485Y-11941960I-23000J0D01*
G01*
X14709485Y-12817960D02*
G75*
G03*
X14709485Y-12817960I-23000J0D01*
G01*
D11*
X5675519Y-16591796D02*
X5675519Y-16391796D01*
X5723138Y-16391796D01*
X5751709Y-16401320D01*
X5770757Y-16420368D01*
X5780281Y-16439415D01*
X5789805Y-16477510D01*
X5789805Y-16506082D01*
X5780281Y-16544177D01*
X5770757Y-16563225D01*
X5751709Y-16582272D01*
X5723138Y-16591796D01*
X5675519Y-16591796D01*
X5875519Y-16591796D02*
X5875519Y-16458463D01*
X5875519Y-16496558D02*
X5885043Y-16477510D01*
X5894567Y-16467987D01*
X5913614Y-16458463D01*
X5932662Y-16458463D01*
X5999328Y-16591796D02*
X5999328Y-16458463D01*
X5999328Y-16391796D02*
X5989805Y-16401320D01*
X5999328Y-16410844D01*
X6008852Y-16401320D01*
X5999328Y-16391796D01*
X5999328Y-16410844D01*
X6123138Y-16591796D02*
X6104090Y-16582272D01*
X6094567Y-16563225D01*
X6094567Y-16391796D01*
X6227900Y-16591796D02*
X6208852Y-16582272D01*
X6199328Y-16563225D01*
X6199328Y-16391796D01*
X6456471Y-16591796D02*
X6456471Y-16391796D01*
X6523138Y-16534653D01*
X6589805Y-16391796D01*
X6589805Y-16591796D01*
X6770757Y-16591796D02*
X6770757Y-16487034D01*
X6761233Y-16467987D01*
X6742186Y-16458463D01*
X6704090Y-16458463D01*
X6685043Y-16467987D01*
X6770757Y-16582272D02*
X6751709Y-16591796D01*
X6704090Y-16591796D01*
X6685043Y-16582272D01*
X6675519Y-16563225D01*
X6675519Y-16544177D01*
X6685043Y-16525129D01*
X6704090Y-16515606D01*
X6751709Y-16515606D01*
X6770757Y-16506082D01*
X6865995Y-16458463D02*
X6865995Y-16658463D01*
X6865995Y-16467987D02*
X6885043Y-16458463D01*
X6923138Y-16458463D01*
X6942186Y-16467987D01*
X6951709Y-16477510D01*
X6961233Y-16496558D01*
X6961233Y-16553701D01*
X6951709Y-16572748D01*
X6942186Y-16582272D01*
X6923138Y-16591796D01*
X6885043Y-16591796D01*
X6865995Y-16582272D01*
X7046948Y-16572748D02*
X7056471Y-16582272D01*
X7046948Y-16591796D01*
X7037424Y-16582272D01*
X7046948Y-16572748D01*
X7046948Y-16591796D01*
X7046948Y-16467987D02*
X7056471Y-16477510D01*
X7046948Y-16487034D01*
X7037424Y-16477510D01*
X7046948Y-16467987D01*
X7046948Y-16487034D01*
D12*
X5382400Y-16903570D02*
X5417900Y-16939070D01*
X5417900Y-16903570D02*
X5382400Y-16939070D01*
D11*
X5713614Y-16811796D02*
X5732662Y-16811796D01*
X5751709Y-16821320D01*
X5761233Y-16830844D01*
X5770757Y-16849891D01*
X5780281Y-16887987D01*
X5780281Y-16935606D01*
X5770757Y-16973701D01*
X5761233Y-16992749D01*
X5751709Y-17002272D01*
X5732662Y-17011796D01*
X5713614Y-17011796D01*
X5694567Y-17002272D01*
X5685043Y-16992749D01*
X5675519Y-16973701D01*
X5665995Y-16935606D01*
X5665995Y-16887987D01*
X5675519Y-16849891D01*
X5685043Y-16830844D01*
X5694567Y-16821320D01*
X5713614Y-16811796D01*
X5865995Y-16992749D02*
X5875519Y-17002272D01*
X5865995Y-17011796D01*
X5856471Y-17002272D01*
X5865995Y-16992749D01*
X5865995Y-17011796D01*
X5942186Y-16811796D02*
X6065995Y-16811796D01*
X5999328Y-16887987D01*
X6027900Y-16887987D01*
X6046948Y-16897510D01*
X6056471Y-16907034D01*
X6065995Y-16926082D01*
X6065995Y-16973701D01*
X6056471Y-16992749D01*
X6046948Y-17002272D01*
X6027900Y-17011796D01*
X5970757Y-17011796D01*
X5951709Y-17002272D01*
X5942186Y-16992749D01*
X6246948Y-16811796D02*
X6151709Y-16811796D01*
X6142186Y-16907034D01*
X6151709Y-16897510D01*
X6170757Y-16887987D01*
X6218376Y-16887987D01*
X6237424Y-16897510D01*
X6246948Y-16907034D01*
X6256471Y-16926082D01*
X6256471Y-16973701D01*
X6246948Y-16992749D01*
X6237424Y-17002272D01*
X6218376Y-17011796D01*
X6170757Y-17011796D01*
X6151709Y-17002272D01*
X6142186Y-16992749D01*
X6437424Y-16811796D02*
X6342186Y-16811796D01*
X6332662Y-16907034D01*
X6342186Y-16897510D01*
X6361233Y-16887987D01*
X6408852Y-16887987D01*
X6427900Y-16897510D01*
X6437424Y-16907034D01*
X6446948Y-16926082D01*
X6446948Y-16973701D01*
X6437424Y-16992749D01*
X6427900Y-17002272D01*
X6408852Y-17011796D01*
X6361233Y-17011796D01*
X6342186Y-17002272D01*
X6332662Y-16992749D01*
X6532662Y-17011796D02*
X6532662Y-16878463D01*
X6532662Y-16897510D02*
X6542186Y-16887987D01*
X6561233Y-16878463D01*
X6589805Y-16878463D01*
X6608852Y-16887987D01*
X6618376Y-16907034D01*
X6618376Y-17011796D01*
X6618376Y-16907034D02*
X6627900Y-16887987D01*
X6646948Y-16878463D01*
X6675519Y-16878463D01*
X6694567Y-16887987D01*
X6704090Y-16907034D01*
X6704090Y-17011796D01*
X6799328Y-17011796D02*
X6799328Y-16878463D01*
X6799328Y-16897510D02*
X6808852Y-16887987D01*
X6827900Y-16878463D01*
X6856471Y-16878463D01*
X6875519Y-16887987D01*
X6885043Y-16907034D01*
X6885043Y-17011796D01*
X6885043Y-16907034D02*
X6894567Y-16887987D01*
X6913614Y-16878463D01*
X6942186Y-16878463D01*
X6961233Y-16887987D01*
X6970757Y-16907034D01*
X6970757Y-17011796D01*
X7361233Y-16802272D02*
X7189805Y-17059415D01*
X7618376Y-16811796D02*
X7637424Y-16811796D01*
X7656471Y-16821320D01*
X7665995Y-16830844D01*
X7675519Y-16849891D01*
X7685043Y-16887987D01*
X7685043Y-16935606D01*
X7675519Y-16973701D01*
X7665995Y-16992749D01*
X7656471Y-17002272D01*
X7637424Y-17011796D01*
X7618376Y-17011796D01*
X7599328Y-17002272D01*
X7589805Y-16992749D01*
X7580281Y-16973701D01*
X7570757Y-16935606D01*
X7570757Y-16887987D01*
X7580281Y-16849891D01*
X7589805Y-16830844D01*
X7599328Y-16821320D01*
X7618376Y-16811796D01*
X7770757Y-16992749D02*
X7780281Y-17002272D01*
X7770757Y-17011796D01*
X7761233Y-17002272D01*
X7770757Y-16992749D01*
X7770757Y-17011796D01*
X7904090Y-16811796D02*
X7923138Y-16811796D01*
X7942186Y-16821320D01*
X7951709Y-16830844D01*
X7961233Y-16849891D01*
X7970757Y-16887987D01*
X7970757Y-16935606D01*
X7961233Y-16973701D01*
X7951709Y-16992749D01*
X7942186Y-17002272D01*
X7923138Y-17011796D01*
X7904090Y-17011796D01*
X7885043Y-17002272D01*
X7875519Y-16992749D01*
X7865995Y-16973701D01*
X7856471Y-16935606D01*
X7856471Y-16887987D01*
X7865995Y-16849891D01*
X7875519Y-16830844D01*
X7885043Y-16821320D01*
X7904090Y-16811796D01*
X8161233Y-17011796D02*
X8046948Y-17011796D01*
X8104090Y-17011796D02*
X8104090Y-16811796D01*
X8085043Y-16840368D01*
X8065995Y-16859415D01*
X8046948Y-16868939D01*
X8332662Y-16878463D02*
X8332662Y-17011796D01*
X8285043Y-16802272D02*
X8237424Y-16945130D01*
X8361233Y-16945130D01*
X8475519Y-16811796D02*
X8494567Y-16811796D01*
X8513614Y-16821320D01*
X8523138Y-16830844D01*
X8532662Y-16849891D01*
X8542186Y-16887987D01*
X8542186Y-16935606D01*
X8532662Y-16973701D01*
X8523138Y-16992749D01*
X8513614Y-17002272D01*
X8494567Y-17011796D01*
X8475519Y-17011796D01*
X8456471Y-17002272D01*
X8446948Y-16992749D01*
X8437424Y-16973701D01*
X8427900Y-16935606D01*
X8427900Y-16887987D01*
X8437424Y-16849891D01*
X8446948Y-16830844D01*
X8456471Y-16821320D01*
X8475519Y-16811796D01*
X8618376Y-16811796D02*
X8618376Y-16849891D01*
X8694567Y-16811796D02*
X8694567Y-16849891D01*
X8989805Y-17087987D02*
X8980281Y-17078463D01*
X8961233Y-17049891D01*
X8951710Y-17030844D01*
X8942186Y-17002272D01*
X8932662Y-16954653D01*
X8932662Y-16916558D01*
X8942186Y-16868939D01*
X8951710Y-16840368D01*
X8961233Y-16821320D01*
X8980281Y-16792749D01*
X8989805Y-16783225D01*
X9056471Y-16830844D02*
X9065995Y-16821320D01*
X9085043Y-16811796D01*
X9132662Y-16811796D01*
X9151710Y-16821320D01*
X9161233Y-16830844D01*
X9170757Y-16849891D01*
X9170757Y-16868939D01*
X9161233Y-16897510D01*
X9046948Y-17011796D01*
X9170757Y-17011796D01*
X9361233Y-17011796D02*
X9246948Y-17011796D01*
X9304090Y-17011796D02*
X9304090Y-16811796D01*
X9285043Y-16840368D01*
X9265995Y-16859415D01*
X9246948Y-16868939D01*
X9551710Y-17011796D02*
X9437424Y-17011796D01*
X9494567Y-17011796D02*
X9494567Y-16811796D01*
X9475519Y-16840368D01*
X9456471Y-16859415D01*
X9437424Y-16868939D01*
X9789805Y-17011796D02*
X9789805Y-16811796D01*
X9875519Y-17011796D02*
X9875519Y-16907034D01*
X9865995Y-16887987D01*
X9846948Y-16878463D01*
X9818376Y-16878463D01*
X9799329Y-16887987D01*
X9789805Y-16897510D01*
X9999329Y-17011796D02*
X9980281Y-17002272D01*
X9970757Y-16992749D01*
X9961233Y-16973701D01*
X9961233Y-16916558D01*
X9970757Y-16897510D01*
X9980281Y-16887987D01*
X9999329Y-16878463D01*
X10027900Y-16878463D01*
X10046948Y-16887987D01*
X10056471Y-16897510D01*
X10065995Y-16916558D01*
X10065995Y-16973701D01*
X10056471Y-16992749D01*
X10046948Y-17002272D01*
X10027900Y-17011796D01*
X9999329Y-17011796D01*
X10180281Y-17011796D02*
X10161233Y-17002272D01*
X10151710Y-16983225D01*
X10151710Y-16811796D01*
X10332662Y-17002272D02*
X10313614Y-17011796D01*
X10275519Y-17011796D01*
X10256471Y-17002272D01*
X10246948Y-16983225D01*
X10246948Y-16907034D01*
X10256471Y-16887987D01*
X10275519Y-16878463D01*
X10313614Y-16878463D01*
X10332662Y-16887987D01*
X10342186Y-16907034D01*
X10342186Y-16926082D01*
X10246948Y-16945130D01*
X10418376Y-17002272D02*
X10437424Y-17011796D01*
X10475519Y-17011796D01*
X10494567Y-17002272D01*
X10504090Y-16983225D01*
X10504090Y-16973701D01*
X10494567Y-16954653D01*
X10475519Y-16945130D01*
X10446948Y-16945130D01*
X10427900Y-16935606D01*
X10418376Y-16916558D01*
X10418376Y-16907034D01*
X10427900Y-16887987D01*
X10446948Y-16878463D01*
X10475519Y-16878463D01*
X10494567Y-16887987D01*
X10570757Y-17087987D02*
X10580281Y-17078463D01*
X10599329Y-17049891D01*
X10608852Y-17030844D01*
X10618376Y-17002272D01*
X10627900Y-16954653D01*
X10627900Y-16916558D01*
X10618376Y-16868939D01*
X10608852Y-16840368D01*
X10599329Y-16821320D01*
X10580281Y-16792749D01*
X10570757Y-16783225D01*
D13*
X5417900Y-17185320D02*
G75*
G03*
X5417900Y-17185320I-23000J0D01*
G01*
D11*
X5713614Y-17075796D02*
X5732662Y-17075796D01*
X5751709Y-17085320D01*
X5761233Y-17094844D01*
X5770757Y-17113891D01*
X5780281Y-17151987D01*
X5780281Y-17199606D01*
X5770757Y-17237701D01*
X5761233Y-17256749D01*
X5751709Y-17266272D01*
X5732662Y-17275796D01*
X5713614Y-17275796D01*
X5694567Y-17266272D01*
X5685043Y-17256749D01*
X5675519Y-17237701D01*
X5665995Y-17199606D01*
X5665995Y-17151987D01*
X5675519Y-17113891D01*
X5685043Y-17094844D01*
X5694567Y-17085320D01*
X5713614Y-17075796D01*
X5865995Y-17256749D02*
X5875519Y-17266272D01*
X5865995Y-17275796D01*
X5856471Y-17266272D01*
X5865995Y-17256749D01*
X5865995Y-17275796D01*
X6046948Y-17142463D02*
X6046948Y-17275796D01*
X5999328Y-17066272D02*
X5951709Y-17209130D01*
X6075519Y-17209130D01*
X6237424Y-17075796D02*
X6199328Y-17075796D01*
X6180281Y-17085320D01*
X6170757Y-17094844D01*
X6151709Y-17123415D01*
X6142186Y-17161510D01*
X6142186Y-17237701D01*
X6151709Y-17256749D01*
X6161233Y-17266272D01*
X6180281Y-17275796D01*
X6218376Y-17275796D01*
X6237424Y-17266272D01*
X6246948Y-17256749D01*
X6256471Y-17237701D01*
X6256471Y-17190082D01*
X6246948Y-17171034D01*
X6237424Y-17161510D01*
X6218376Y-17151987D01*
X6180281Y-17151987D01*
X6161233Y-17161510D01*
X6151709Y-17171034D01*
X6142186Y-17190082D01*
X6380281Y-17075796D02*
X6399328Y-17075796D01*
X6418376Y-17085320D01*
X6427900Y-17094844D01*
X6437424Y-17113891D01*
X6446948Y-17151987D01*
X6446948Y-17199606D01*
X6437424Y-17237701D01*
X6427900Y-17256749D01*
X6418376Y-17266272D01*
X6399328Y-17275796D01*
X6380281Y-17275796D01*
X6361233Y-17266272D01*
X6351709Y-17256749D01*
X6342186Y-17237701D01*
X6332662Y-17199606D01*
X6332662Y-17151987D01*
X6342186Y-17113891D01*
X6351709Y-17094844D01*
X6361233Y-17085320D01*
X6380281Y-17075796D01*
X6532662Y-17275796D02*
X6532662Y-17142463D01*
X6532662Y-17161510D02*
X6542186Y-17151987D01*
X6561233Y-17142463D01*
X6589805Y-17142463D01*
X6608852Y-17151987D01*
X6618376Y-17171034D01*
X6618376Y-17275796D01*
X6618376Y-17171034D02*
X6627900Y-17151987D01*
X6646948Y-17142463D01*
X6675519Y-17142463D01*
X6694567Y-17151987D01*
X6704090Y-17171034D01*
X6704090Y-17275796D01*
X6799328Y-17275796D02*
X6799328Y-17142463D01*
X6799328Y-17161510D02*
X6808852Y-17151987D01*
X6827900Y-17142463D01*
X6856471Y-17142463D01*
X6875519Y-17151987D01*
X6885043Y-17171034D01*
X6885043Y-17275796D01*
X6885043Y-17171034D02*
X6894567Y-17151987D01*
X6913614Y-17142463D01*
X6942186Y-17142463D01*
X6961233Y-17151987D01*
X6970757Y-17171034D01*
X6970757Y-17275796D01*
X7361233Y-17066272D02*
X7189805Y-17323415D01*
X7618376Y-17075796D02*
X7637424Y-17075796D01*
X7656471Y-17085320D01*
X7665995Y-17094844D01*
X7675519Y-17113891D01*
X7685043Y-17151987D01*
X7685043Y-17199606D01*
X7675519Y-17237701D01*
X7665995Y-17256749D01*
X7656471Y-17266272D01*
X7637424Y-17275796D01*
X7618376Y-17275796D01*
X7599328Y-17266272D01*
X7589805Y-17256749D01*
X7580281Y-17237701D01*
X7570757Y-17199606D01*
X7570757Y-17151987D01*
X7580281Y-17113891D01*
X7589805Y-17094844D01*
X7599328Y-17085320D01*
X7618376Y-17075796D01*
X7770757Y-17256749D02*
X7780281Y-17266272D01*
X7770757Y-17275796D01*
X7761233Y-17266272D01*
X7770757Y-17256749D01*
X7770757Y-17275796D01*
X7904090Y-17075796D02*
X7923138Y-17075796D01*
X7942186Y-17085320D01*
X7951709Y-17094844D01*
X7961233Y-17113891D01*
X7970757Y-17151987D01*
X7970757Y-17199606D01*
X7961233Y-17237701D01*
X7951709Y-17256749D01*
X7942186Y-17266272D01*
X7923138Y-17275796D01*
X7904090Y-17275796D01*
X7885043Y-17266272D01*
X7875519Y-17256749D01*
X7865995Y-17237701D01*
X7856471Y-17199606D01*
X7856471Y-17151987D01*
X7865995Y-17113891D01*
X7875519Y-17094844D01*
X7885043Y-17085320D01*
X7904090Y-17075796D01*
X8161233Y-17275796D02*
X8046948Y-17275796D01*
X8104090Y-17275796D02*
X8104090Y-17075796D01*
X8085043Y-17104368D01*
X8065995Y-17123415D01*
X8046948Y-17132939D01*
X8275519Y-17161510D02*
X8256471Y-17151987D01*
X8246948Y-17142463D01*
X8237424Y-17123415D01*
X8237424Y-17113891D01*
X8246948Y-17094844D01*
X8256471Y-17085320D01*
X8275519Y-17075796D01*
X8313614Y-17075796D01*
X8332662Y-17085320D01*
X8342186Y-17094844D01*
X8351709Y-17113891D01*
X8351709Y-17123415D01*
X8342186Y-17142463D01*
X8332662Y-17151987D01*
X8313614Y-17161510D01*
X8275519Y-17161510D01*
X8256471Y-17171034D01*
X8246948Y-17180558D01*
X8237424Y-17199606D01*
X8237424Y-17237701D01*
X8246948Y-17256749D01*
X8256471Y-17266272D01*
X8275519Y-17275796D01*
X8313614Y-17275796D01*
X8332662Y-17266272D01*
X8342186Y-17256749D01*
X8351709Y-17237701D01*
X8351709Y-17199606D01*
X8342186Y-17180558D01*
X8332662Y-17171034D01*
X8313614Y-17161510D01*
X8542186Y-17275796D02*
X8427900Y-17275796D01*
X8485043Y-17275796D02*
X8485043Y-17075796D01*
X8465995Y-17104368D01*
X8446948Y-17123415D01*
X8427900Y-17132939D01*
X8618376Y-17075796D02*
X8618376Y-17113891D01*
X8694567Y-17075796D02*
X8694567Y-17113891D01*
X8989805Y-17351987D02*
X8980281Y-17342463D01*
X8961233Y-17313891D01*
X8951710Y-17294844D01*
X8942186Y-17266272D01*
X8932662Y-17218653D01*
X8932662Y-17180558D01*
X8942186Y-17132939D01*
X8951710Y-17104368D01*
X8961233Y-17085320D01*
X8980281Y-17056749D01*
X8989805Y-17047225D01*
X9151710Y-17142463D02*
X9151710Y-17275796D01*
X9104090Y-17066272D02*
X9056471Y-17209130D01*
X9180281Y-17209130D01*
X9342186Y-17142463D02*
X9342186Y-17275796D01*
X9294567Y-17066272D02*
X9246948Y-17209130D01*
X9370757Y-17209130D01*
X9599329Y-17275796D02*
X9599329Y-17075796D01*
X9685043Y-17275796D02*
X9685043Y-17171034D01*
X9675519Y-17151987D01*
X9656471Y-17142463D01*
X9627900Y-17142463D01*
X9608852Y-17151987D01*
X9599329Y-17161510D01*
X9808852Y-17275796D02*
X9789805Y-17266272D01*
X9780281Y-17256749D01*
X9770757Y-17237701D01*
X9770757Y-17180558D01*
X9780281Y-17161510D01*
X9789805Y-17151987D01*
X9808852Y-17142463D01*
X9837424Y-17142463D01*
X9856471Y-17151987D01*
X9865995Y-17161510D01*
X9875519Y-17180558D01*
X9875519Y-17237701D01*
X9865995Y-17256749D01*
X9856471Y-17266272D01*
X9837424Y-17275796D01*
X9808852Y-17275796D01*
X9989805Y-17275796D02*
X9970757Y-17266272D01*
X9961233Y-17247225D01*
X9961233Y-17075796D01*
X10142186Y-17266272D02*
X10123138Y-17275796D01*
X10085043Y-17275796D01*
X10065995Y-17266272D01*
X10056471Y-17247225D01*
X10056471Y-17171034D01*
X10065995Y-17151987D01*
X10085043Y-17142463D01*
X10123138Y-17142463D01*
X10142186Y-17151987D01*
X10151710Y-17171034D01*
X10151710Y-17190082D01*
X10056471Y-17209130D01*
X10227900Y-17266272D02*
X10246948Y-17275796D01*
X10285043Y-17275796D01*
X10304090Y-17266272D01*
X10313614Y-17247225D01*
X10313614Y-17237701D01*
X10304090Y-17218653D01*
X10285043Y-17209130D01*
X10256471Y-17209130D01*
X10237424Y-17199606D01*
X10227900Y-17180558D01*
X10227900Y-17171034D01*
X10237424Y-17151987D01*
X10256471Y-17142463D01*
X10285043Y-17142463D01*
X10304090Y-17151987D01*
X10380281Y-17351987D02*
X10389805Y-17342463D01*
X10408852Y-17313891D01*
X10418376Y-17294844D01*
X10427900Y-17266272D01*
X10437424Y-17218653D01*
X10437424Y-17180558D01*
X10427900Y-17132939D01*
X10418376Y-17104368D01*
X10408852Y-17085320D01*
X10389805Y-17056749D01*
X10380281Y-17047225D01*
M02*
