G04 #@! TF.GenerationSoftware,KiCad,Pcbnew,(6.0.1)*
G04 #@! TF.CreationDate,2022-06-06T21:41:38+02:00*
G04 #@! TF.ProjectId,rf_test_board,72665f74-6573-4745-9f62-6f6172642e6b,rev?*
G04 #@! TF.SameCoordinates,Original*
G04 #@! TF.FileFunction,Legend,Top*
G04 #@! TF.FilePolarity,Positive*
%FSLAX46Y46*%
G04 Gerber Fmt 4.6, Leading zero omitted, Abs format (unit mm)*
G04 Created by KiCad (PCBNEW (6.0.1)) date 2022-06-06 21:41:38*
%MOMM*%
%LPD*%
G01*
G04 APERTURE LIST*
%ADD10C,0.150000*%
%ADD11C,0.120000*%
%ADD12R,5.080000X2.420000*%
%ADD13R,5.080000X2.290000*%
%ADD14R,2.290000X5.080000*%
%ADD15R,2.420000X5.080000*%
G04 APERTURE END LIST*
D10*
X137327428Y-78192380D02*
X137660761Y-79192380D01*
X137994095Y-78192380D01*
X138327428Y-79192380D02*
X138327428Y-78525714D01*
X138327428Y-78192380D02*
X138279809Y-78240000D01*
X138327428Y-78287619D01*
X138375047Y-78240000D01*
X138327428Y-78192380D01*
X138327428Y-78287619D01*
X139232190Y-79192380D02*
X139232190Y-78668571D01*
X139184571Y-78573333D01*
X139089333Y-78525714D01*
X138898857Y-78525714D01*
X138803619Y-78573333D01*
X139232190Y-79144761D02*
X139136952Y-79192380D01*
X138898857Y-79192380D01*
X138803619Y-79144761D01*
X138756000Y-79049523D01*
X138756000Y-78954285D01*
X138803619Y-78859047D01*
X138898857Y-78811428D01*
X139136952Y-78811428D01*
X139232190Y-78763809D01*
X140375047Y-78192380D02*
X141041714Y-78192380D01*
X140375047Y-79192380D01*
X141041714Y-79192380D01*
X141565523Y-79192380D02*
X141470285Y-79144761D01*
X141422666Y-79097142D01*
X141375047Y-79001904D01*
X141375047Y-78716190D01*
X141422666Y-78620952D01*
X141470285Y-78573333D01*
X141565523Y-78525714D01*
X141708380Y-78525714D01*
X141803619Y-78573333D01*
X141851238Y-78620952D01*
X141898857Y-78716190D01*
X141898857Y-79001904D01*
X141851238Y-79097142D01*
X141803619Y-79144761D01*
X141708380Y-79192380D01*
X141565523Y-79192380D01*
X142327428Y-78668571D02*
X143089333Y-78668571D01*
X143089333Y-78954285D02*
X142327428Y-78954285D01*
X144041714Y-78192380D02*
X143565523Y-78192380D01*
X143517904Y-78668571D01*
X143565523Y-78620952D01*
X143660761Y-78573333D01*
X143898857Y-78573333D01*
X143994095Y-78620952D01*
X144041714Y-78668571D01*
X144089333Y-78763809D01*
X144089333Y-79001904D01*
X144041714Y-79097142D01*
X143994095Y-79144761D01*
X143898857Y-79192380D01*
X143660761Y-79192380D01*
X143565523Y-79144761D01*
X143517904Y-79097142D01*
X144708380Y-78192380D02*
X144803619Y-78192380D01*
X144898857Y-78240000D01*
X144946476Y-78287619D01*
X144994095Y-78382857D01*
X145041714Y-78573333D01*
X145041714Y-78811428D01*
X144994095Y-79001904D01*
X144946476Y-79097142D01*
X144898857Y-79144761D01*
X144803619Y-79192380D01*
X144708380Y-79192380D01*
X144613142Y-79144761D01*
X144565523Y-79097142D01*
X144517904Y-79001904D01*
X144470285Y-78811428D01*
X144470285Y-78573333D01*
X144517904Y-78382857D01*
X144565523Y-78287619D01*
X144613142Y-78240000D01*
X144708380Y-78192380D01*
X146422666Y-78192380D02*
X146613142Y-78192380D01*
X146708380Y-78240000D01*
X146803619Y-78335238D01*
X146851238Y-78525714D01*
X146851238Y-78859047D01*
X146803619Y-79049523D01*
X146708380Y-79144761D01*
X146613142Y-79192380D01*
X146422666Y-79192380D01*
X146327428Y-79144761D01*
X146232190Y-79049523D01*
X146184571Y-78859047D01*
X146184571Y-78525714D01*
X146232190Y-78335238D01*
X146327428Y-78240000D01*
X146422666Y-78192380D01*
X147279809Y-79192380D02*
X147279809Y-78192380D01*
X147708380Y-79192380D02*
X147708380Y-78668571D01*
X147660761Y-78573333D01*
X147565523Y-78525714D01*
X147422666Y-78525714D01*
X147327428Y-78573333D01*
X147279809Y-78620952D01*
X148184571Y-79192380D02*
X148184571Y-78525714D01*
X148184571Y-78620952D02*
X148232190Y-78573333D01*
X148327428Y-78525714D01*
X148470285Y-78525714D01*
X148565523Y-78573333D01*
X148613142Y-78668571D01*
X148613142Y-79192380D01*
X148613142Y-78668571D02*
X148660761Y-78573333D01*
X148756000Y-78525714D01*
X148898857Y-78525714D01*
X148994095Y-78573333D01*
X149041714Y-78668571D01*
X149041714Y-79192380D01*
X62695670Y-83288984D02*
X62886146Y-83288984D01*
X62981384Y-83241365D01*
X63029004Y-83193746D01*
X63124242Y-83050889D01*
X63171861Y-82860413D01*
X63171861Y-82479461D01*
X63124242Y-82384223D01*
X63076623Y-82336604D01*
X62981384Y-82288984D01*
X62790908Y-82288984D01*
X62695670Y-82336604D01*
X62648051Y-82384223D01*
X62600432Y-82479461D01*
X62600432Y-82717556D01*
X62648051Y-82812794D01*
X62695670Y-82860413D01*
X62790908Y-82908032D01*
X62981384Y-82908032D01*
X63076623Y-82860413D01*
X63124242Y-82812794D01*
X63171861Y-82717556D01*
X63790908Y-82288984D02*
X63886146Y-82288984D01*
X63981384Y-82336604D01*
X64029004Y-82384223D01*
X64076623Y-82479461D01*
X64124242Y-82669937D01*
X64124242Y-82908032D01*
X64076623Y-83098508D01*
X64029004Y-83193746D01*
X63981384Y-83241365D01*
X63886146Y-83288984D01*
X63790908Y-83288984D01*
X63695670Y-83241365D01*
X63648051Y-83193746D01*
X63600432Y-83098508D01*
X63552813Y-82908032D01*
X63552813Y-82669937D01*
X63600432Y-82479461D01*
X63648051Y-82384223D01*
X63695670Y-82336604D01*
X63790908Y-82288984D01*
X64695670Y-82288984D02*
X64600432Y-82336604D01*
X64552813Y-82431842D01*
X64600432Y-82527080D01*
X64695670Y-82574699D01*
X64790908Y-82527080D01*
X64838527Y-82431842D01*
X64790908Y-82336604D01*
X64695670Y-82288984D01*
X65981384Y-82288984D02*
X66648051Y-82288984D01*
X65981384Y-83288984D01*
X66648051Y-83288984D01*
X67171861Y-83288984D02*
X67076623Y-83241365D01*
X67029004Y-83193746D01*
X66981384Y-83098508D01*
X66981384Y-82812794D01*
X67029004Y-82717556D01*
X67076623Y-82669937D01*
X67171861Y-82622318D01*
X67314718Y-82622318D01*
X67409956Y-82669937D01*
X67457575Y-82717556D01*
X67505194Y-82812794D01*
X67505194Y-83098508D01*
X67457575Y-83193746D01*
X67409956Y-83241365D01*
X67314718Y-83288984D01*
X67171861Y-83288984D01*
X67933765Y-82765175D02*
X68695670Y-82765175D01*
X68695670Y-83050889D02*
X67933765Y-83050889D01*
X69648051Y-82288984D02*
X69171861Y-82288984D01*
X69124242Y-82765175D01*
X69171861Y-82717556D01*
X69267099Y-82669937D01*
X69505194Y-82669937D01*
X69600432Y-82717556D01*
X69648051Y-82765175D01*
X69695670Y-82860413D01*
X69695670Y-83098508D01*
X69648051Y-83193746D01*
X69600432Y-83241365D01*
X69505194Y-83288984D01*
X69267099Y-83288984D01*
X69171861Y-83241365D01*
X69124242Y-83193746D01*
X70314718Y-82288984D02*
X70409956Y-82288984D01*
X70505194Y-82336604D01*
X70552813Y-82384223D01*
X70600432Y-82479461D01*
X70648051Y-82669937D01*
X70648051Y-82908032D01*
X70600432Y-83098508D01*
X70552813Y-83193746D01*
X70505194Y-83241365D01*
X70409956Y-83288984D01*
X70314718Y-83288984D01*
X70219480Y-83241365D01*
X70171861Y-83193746D01*
X70124242Y-83098508D01*
X70076623Y-82908032D01*
X70076623Y-82669937D01*
X70124242Y-82479461D01*
X70171861Y-82384223D01*
X70219480Y-82336604D01*
X70314718Y-82288984D01*
X72029004Y-82288984D02*
X72219480Y-82288984D01*
X72314718Y-82336604D01*
X72409956Y-82431842D01*
X72457575Y-82622318D01*
X72457575Y-82955651D01*
X72409956Y-83146127D01*
X72314718Y-83241365D01*
X72219480Y-83288984D01*
X72029004Y-83288984D01*
X71933765Y-83241365D01*
X71838527Y-83146127D01*
X71790908Y-82955651D01*
X71790908Y-82622318D01*
X71838527Y-82431842D01*
X71933765Y-82336604D01*
X72029004Y-82288984D01*
X72886146Y-83288984D02*
X72886146Y-82288984D01*
X73314718Y-83288984D02*
X73314718Y-82765175D01*
X73267099Y-82669937D01*
X73171861Y-82622318D01*
X73029004Y-82622318D01*
X72933765Y-82669937D01*
X72886146Y-82717556D01*
X73790908Y-83288984D02*
X73790908Y-82622318D01*
X73790908Y-82717556D02*
X73838527Y-82669937D01*
X73933765Y-82622318D01*
X74076623Y-82622318D01*
X74171861Y-82669937D01*
X74219480Y-82765175D01*
X74219480Y-83288984D01*
X74219480Y-82765175D02*
X74267099Y-82669937D01*
X74362337Y-82622318D01*
X74505194Y-82622318D01*
X74600432Y-82669937D01*
X74648051Y-82765175D01*
X74648051Y-83288984D01*
X62267099Y-84803746D02*
X62219480Y-84851365D01*
X62076623Y-84898984D01*
X61981384Y-84898984D01*
X61838527Y-84851365D01*
X61743289Y-84756127D01*
X61695670Y-84660889D01*
X61648051Y-84470413D01*
X61648051Y-84327556D01*
X61695670Y-84137080D01*
X61743289Y-84041842D01*
X61838527Y-83946604D01*
X61981384Y-83898984D01*
X62076623Y-83898984D01*
X62219480Y-83946604D01*
X62267099Y-83994223D01*
X62838527Y-84898984D02*
X62743289Y-84851365D01*
X62695670Y-84803746D01*
X62648051Y-84708508D01*
X62648051Y-84422794D01*
X62695670Y-84327556D01*
X62743289Y-84279937D01*
X62838527Y-84232318D01*
X62981384Y-84232318D01*
X63076623Y-84279937D01*
X63124242Y-84327556D01*
X63171861Y-84422794D01*
X63171861Y-84708508D01*
X63124242Y-84803746D01*
X63076623Y-84851365D01*
X62981384Y-84898984D01*
X62838527Y-84898984D01*
X63600432Y-84232318D02*
X63600432Y-85232318D01*
X63600432Y-84279937D02*
X63695670Y-84232318D01*
X63886146Y-84232318D01*
X63981384Y-84279937D01*
X64029004Y-84327556D01*
X64076623Y-84422794D01*
X64076623Y-84708508D01*
X64029004Y-84803746D01*
X63981384Y-84851365D01*
X63886146Y-84898984D01*
X63695670Y-84898984D01*
X63600432Y-84851365D01*
X64648051Y-84898984D02*
X64552813Y-84851365D01*
X64505194Y-84756127D01*
X64505194Y-83898984D01*
X65457575Y-84898984D02*
X65457575Y-84375175D01*
X65409956Y-84279937D01*
X65314718Y-84232318D01*
X65124242Y-84232318D01*
X65029004Y-84279937D01*
X65457575Y-84851365D02*
X65362337Y-84898984D01*
X65124242Y-84898984D01*
X65029004Y-84851365D01*
X64981384Y-84756127D01*
X64981384Y-84660889D01*
X65029004Y-84565651D01*
X65124242Y-84518032D01*
X65362337Y-84518032D01*
X65457575Y-84470413D01*
X65933765Y-84232318D02*
X65933765Y-84898984D01*
X65933765Y-84327556D02*
X65981384Y-84279937D01*
X66076623Y-84232318D01*
X66219480Y-84232318D01*
X66314718Y-84279937D01*
X66362337Y-84375175D01*
X66362337Y-84898984D01*
X67267099Y-84898984D02*
X67267099Y-84375175D01*
X67219480Y-84279937D01*
X67124242Y-84232318D01*
X66933765Y-84232318D01*
X66838527Y-84279937D01*
X67267099Y-84851365D02*
X67171861Y-84898984D01*
X66933765Y-84898984D01*
X66838527Y-84851365D01*
X66790908Y-84756127D01*
X66790908Y-84660889D01*
X66838527Y-84565651D01*
X66933765Y-84518032D01*
X67171861Y-84518032D01*
X67267099Y-84470413D01*
X67743289Y-84898984D02*
X67743289Y-84232318D01*
X67743289Y-84422794D02*
X67790908Y-84327556D01*
X67838527Y-84279937D01*
X67933765Y-84232318D01*
X68029004Y-84232318D01*
X69029004Y-83898984D02*
X69267099Y-84898984D01*
X69457575Y-84184699D01*
X69648051Y-84898984D01*
X69886146Y-83898984D01*
X70695670Y-84898984D02*
X70695670Y-84375175D01*
X70648051Y-84279937D01*
X70552813Y-84232318D01*
X70362337Y-84232318D01*
X70267099Y-84279937D01*
X70695670Y-84851365D02*
X70600432Y-84898984D01*
X70362337Y-84898984D01*
X70267099Y-84851365D01*
X70219480Y-84756127D01*
X70219480Y-84660889D01*
X70267099Y-84565651D01*
X70362337Y-84518032D01*
X70600432Y-84518032D01*
X70695670Y-84470413D01*
X71076623Y-84232318D02*
X71314718Y-84898984D01*
X71552813Y-84232318D01*
X72314718Y-84851365D02*
X72219480Y-84898984D01*
X72029004Y-84898984D01*
X71933765Y-84851365D01*
X71886146Y-84756127D01*
X71886146Y-84375175D01*
X71933765Y-84279937D01*
X72029004Y-84232318D01*
X72219480Y-84232318D01*
X72314718Y-84279937D01*
X72362337Y-84375175D01*
X72362337Y-84470413D01*
X71886146Y-84565651D01*
X73219480Y-84232318D02*
X73219480Y-85041842D01*
X73171861Y-85137080D01*
X73124242Y-85184699D01*
X73029004Y-85232318D01*
X72886146Y-85232318D01*
X72790908Y-85184699D01*
X73219480Y-84851365D02*
X73124242Y-84898984D01*
X72933765Y-84898984D01*
X72838527Y-84851365D01*
X72790908Y-84803746D01*
X72743289Y-84708508D01*
X72743289Y-84422794D01*
X72790908Y-84327556D01*
X72838527Y-84279937D01*
X72933765Y-84232318D01*
X73124242Y-84232318D01*
X73219480Y-84279937D01*
X74124242Y-84232318D02*
X74124242Y-84898984D01*
X73695670Y-84232318D02*
X73695670Y-84756127D01*
X73743289Y-84851365D01*
X73838527Y-84898984D01*
X73981384Y-84898984D01*
X74076623Y-84851365D01*
X74124242Y-84803746D01*
X74600432Y-84898984D02*
X74600432Y-84232318D01*
X74600432Y-83898984D02*
X74552813Y-83946604D01*
X74600432Y-83994223D01*
X74648051Y-83946604D01*
X74600432Y-83898984D01*
X74600432Y-83994223D01*
X75505194Y-84898984D02*
X75505194Y-83898984D01*
X75505194Y-84851365D02*
X75409956Y-84898984D01*
X75219480Y-84898984D01*
X75124242Y-84851365D01*
X75076623Y-84803746D01*
X75029004Y-84708508D01*
X75029004Y-84422794D01*
X75076623Y-84327556D01*
X75124242Y-84279937D01*
X75219480Y-84232318D01*
X75409956Y-84232318D01*
X75505194Y-84279937D01*
X76362337Y-84851365D02*
X76267099Y-84898984D01*
X76076623Y-84898984D01*
X75981384Y-84851365D01*
X75933765Y-84756127D01*
X75933765Y-84375175D01*
X75981384Y-84279937D01*
X76076623Y-84232318D01*
X76267099Y-84232318D01*
X76362337Y-84279937D01*
X76409956Y-84375175D01*
X76409956Y-84470413D01*
X75933765Y-84565651D01*
X69425000Y-115600000D02*
X138400000Y-115575000D01*
X138400000Y-114025000D02*
X69425000Y-114025000D01*
X82229761Y-111699761D02*
X82372619Y-111747380D01*
X82610714Y-111747380D01*
X82705952Y-111699761D01*
X82753571Y-111652142D01*
X82801190Y-111556904D01*
X82801190Y-111461666D01*
X82753571Y-111366428D01*
X82705952Y-111318809D01*
X82610714Y-111271190D01*
X82420238Y-111223571D01*
X82325000Y-111175952D01*
X82277380Y-111128333D01*
X82229761Y-111033095D01*
X82229761Y-110937857D01*
X82277380Y-110842619D01*
X82325000Y-110795000D01*
X82420238Y-110747380D01*
X82658333Y-110747380D01*
X82801190Y-110795000D01*
X83086904Y-111080714D02*
X83467857Y-111080714D01*
X83229761Y-110747380D02*
X83229761Y-111604523D01*
X83277380Y-111699761D01*
X83372619Y-111747380D01*
X83467857Y-111747380D01*
X83801190Y-111747380D02*
X83801190Y-111080714D01*
X83801190Y-111271190D02*
X83848809Y-111175952D01*
X83896428Y-111128333D01*
X83991666Y-111080714D01*
X84086904Y-111080714D01*
X84420238Y-111747380D02*
X84420238Y-111080714D01*
X84420238Y-110747380D02*
X84372619Y-110795000D01*
X84420238Y-110842619D01*
X84467857Y-110795000D01*
X84420238Y-110747380D01*
X84420238Y-110842619D01*
X84896428Y-111080714D02*
X84896428Y-112080714D01*
X84896428Y-111128333D02*
X84991666Y-111080714D01*
X85182142Y-111080714D01*
X85277380Y-111128333D01*
X85325000Y-111175952D01*
X85372619Y-111271190D01*
X85372619Y-111556904D01*
X85325000Y-111652142D01*
X85277380Y-111699761D01*
X85182142Y-111747380D01*
X84991666Y-111747380D01*
X84896428Y-111699761D01*
X85944047Y-111747380D02*
X85848809Y-111699761D01*
X85801190Y-111604523D01*
X85801190Y-110747380D01*
X86325000Y-111747380D02*
X86325000Y-111080714D01*
X86325000Y-110747380D02*
X86277380Y-110795000D01*
X86325000Y-110842619D01*
X86372619Y-110795000D01*
X86325000Y-110747380D01*
X86325000Y-110842619D01*
X86801190Y-111080714D02*
X86801190Y-111747380D01*
X86801190Y-111175952D02*
X86848809Y-111128333D01*
X86944047Y-111080714D01*
X87086904Y-111080714D01*
X87182142Y-111128333D01*
X87229761Y-111223571D01*
X87229761Y-111747380D01*
X88086904Y-111699761D02*
X87991666Y-111747380D01*
X87801190Y-111747380D01*
X87705952Y-111699761D01*
X87658333Y-111604523D01*
X87658333Y-111223571D01*
X87705952Y-111128333D01*
X87801190Y-111080714D01*
X87991666Y-111080714D01*
X88086904Y-111128333D01*
X88134523Y-111223571D01*
X88134523Y-111318809D01*
X87658333Y-111414047D01*
X89325000Y-111747380D02*
X89325000Y-110747380D01*
X89563095Y-110747380D01*
X89705952Y-110795000D01*
X89801190Y-110890238D01*
X89848809Y-110985476D01*
X89896428Y-111175952D01*
X89896428Y-111318809D01*
X89848809Y-111509285D01*
X89801190Y-111604523D01*
X89705952Y-111699761D01*
X89563095Y-111747380D01*
X89325000Y-111747380D01*
X90325000Y-111747380D02*
X90325000Y-111080714D01*
X90325000Y-110747380D02*
X90277380Y-110795000D01*
X90325000Y-110842619D01*
X90372619Y-110795000D01*
X90325000Y-110747380D01*
X90325000Y-110842619D01*
X90658333Y-111080714D02*
X91039285Y-111080714D01*
X90801190Y-111747380D02*
X90801190Y-110890238D01*
X90848809Y-110795000D01*
X90944047Y-110747380D01*
X91039285Y-110747380D01*
X91229761Y-111080714D02*
X91610714Y-111080714D01*
X91372619Y-111747380D02*
X91372619Y-110890238D01*
X91420238Y-110795000D01*
X91515476Y-110747380D01*
X91610714Y-110747380D01*
X92325000Y-111699761D02*
X92229761Y-111747380D01*
X92039285Y-111747380D01*
X91944047Y-111699761D01*
X91896428Y-111604523D01*
X91896428Y-111223571D01*
X91944047Y-111128333D01*
X92039285Y-111080714D01*
X92229761Y-111080714D01*
X92325000Y-111128333D01*
X92372619Y-111223571D01*
X92372619Y-111318809D01*
X91896428Y-111414047D01*
X92801190Y-111747380D02*
X92801190Y-111080714D01*
X92801190Y-111271190D02*
X92848809Y-111175952D01*
X92896428Y-111128333D01*
X92991666Y-111080714D01*
X93086904Y-111080714D01*
X93801190Y-111699761D02*
X93705952Y-111747380D01*
X93515476Y-111747380D01*
X93420238Y-111699761D01*
X93372619Y-111604523D01*
X93372619Y-111223571D01*
X93420238Y-111128333D01*
X93515476Y-111080714D01*
X93705952Y-111080714D01*
X93801190Y-111128333D01*
X93848809Y-111223571D01*
X93848809Y-111318809D01*
X93372619Y-111414047D01*
X94277380Y-111080714D02*
X94277380Y-111747380D01*
X94277380Y-111175952D02*
X94325000Y-111128333D01*
X94420238Y-111080714D01*
X94563095Y-111080714D01*
X94658333Y-111128333D01*
X94705952Y-111223571D01*
X94705952Y-111747380D01*
X95039285Y-111080714D02*
X95420238Y-111080714D01*
X95182142Y-110747380D02*
X95182142Y-111604523D01*
X95229761Y-111699761D01*
X95325000Y-111747380D01*
X95420238Y-111747380D01*
X95753571Y-111747380D02*
X95753571Y-111080714D01*
X95753571Y-110747380D02*
X95705952Y-110795000D01*
X95753571Y-110842619D01*
X95801190Y-110795000D01*
X95753571Y-110747380D01*
X95753571Y-110842619D01*
X96658333Y-111747380D02*
X96658333Y-111223571D01*
X96610714Y-111128333D01*
X96515476Y-111080714D01*
X96325000Y-111080714D01*
X96229761Y-111128333D01*
X96658333Y-111699761D02*
X96563095Y-111747380D01*
X96325000Y-111747380D01*
X96229761Y-111699761D01*
X96182142Y-111604523D01*
X96182142Y-111509285D01*
X96229761Y-111414047D01*
X96325000Y-111366428D01*
X96563095Y-111366428D01*
X96658333Y-111318809D01*
X97277380Y-111747380D02*
X97182142Y-111699761D01*
X97134523Y-111604523D01*
X97134523Y-110747380D01*
X98325000Y-110747380D02*
X98991666Y-110747380D01*
X98325000Y-111747380D01*
X98991666Y-111747380D01*
X99515476Y-111747380D02*
X99420238Y-111699761D01*
X99372619Y-111652142D01*
X99325000Y-111556904D01*
X99325000Y-111271190D01*
X99372619Y-111175952D01*
X99420238Y-111128333D01*
X99515476Y-111080714D01*
X99658333Y-111080714D01*
X99753571Y-111128333D01*
X99801190Y-111175952D01*
X99848809Y-111271190D01*
X99848809Y-111556904D01*
X99801190Y-111652142D01*
X99753571Y-111699761D01*
X99658333Y-111747380D01*
X99515476Y-111747380D01*
X100277380Y-111223571D02*
X101039285Y-111223571D01*
X101039285Y-111509285D02*
X100277380Y-111509285D01*
X101991666Y-110747380D02*
X101515476Y-110747380D01*
X101467857Y-111223571D01*
X101515476Y-111175952D01*
X101610714Y-111128333D01*
X101848809Y-111128333D01*
X101944047Y-111175952D01*
X101991666Y-111223571D01*
X102039285Y-111318809D01*
X102039285Y-111556904D01*
X101991666Y-111652142D01*
X101944047Y-111699761D01*
X101848809Y-111747380D01*
X101610714Y-111747380D01*
X101515476Y-111699761D01*
X101467857Y-111652142D01*
X102658333Y-110747380D02*
X102753571Y-110747380D01*
X102848809Y-110795000D01*
X102896428Y-110842619D01*
X102944047Y-110937857D01*
X102991666Y-111128333D01*
X102991666Y-111366428D01*
X102944047Y-111556904D01*
X102896428Y-111652142D01*
X102848809Y-111699761D01*
X102753571Y-111747380D01*
X102658333Y-111747380D01*
X102563095Y-111699761D01*
X102515476Y-111652142D01*
X102467857Y-111556904D01*
X102420238Y-111366428D01*
X102420238Y-111128333D01*
X102467857Y-110937857D01*
X102515476Y-110842619D01*
X102563095Y-110795000D01*
X102658333Y-110747380D01*
X104372619Y-110747380D02*
X104563095Y-110747380D01*
X104658333Y-110795000D01*
X104753571Y-110890238D01*
X104801190Y-111080714D01*
X104801190Y-111414047D01*
X104753571Y-111604523D01*
X104658333Y-111699761D01*
X104563095Y-111747380D01*
X104372619Y-111747380D01*
X104277380Y-111699761D01*
X104182142Y-111604523D01*
X104134523Y-111414047D01*
X104134523Y-111080714D01*
X104182142Y-110890238D01*
X104277380Y-110795000D01*
X104372619Y-110747380D01*
X105229761Y-111747380D02*
X105229761Y-110747380D01*
X105658333Y-111747380D02*
X105658333Y-111223571D01*
X105610714Y-111128333D01*
X105515476Y-111080714D01*
X105372619Y-111080714D01*
X105277380Y-111128333D01*
X105229761Y-111175952D01*
X106134523Y-111747380D02*
X106134523Y-111080714D01*
X106134523Y-111175952D02*
X106182142Y-111128333D01*
X106277380Y-111080714D01*
X106420238Y-111080714D01*
X106515476Y-111128333D01*
X106563095Y-111223571D01*
X106563095Y-111747380D01*
X106563095Y-111223571D02*
X106610714Y-111128333D01*
X106705952Y-111080714D01*
X106848809Y-111080714D01*
X106944047Y-111128333D01*
X106991666Y-111223571D01*
X106991666Y-111747380D01*
X108134523Y-110747380D02*
X108801190Y-110747380D01*
X108134523Y-111747380D01*
X108801190Y-111747380D01*
X109610714Y-111747380D02*
X109610714Y-110747380D01*
X109610714Y-111699761D02*
X109515476Y-111747380D01*
X109325000Y-111747380D01*
X109229761Y-111699761D01*
X109182142Y-111652142D01*
X109134523Y-111556904D01*
X109134523Y-111271190D01*
X109182142Y-111175952D01*
X109229761Y-111128333D01*
X109325000Y-111080714D01*
X109515476Y-111080714D01*
X109610714Y-111128333D01*
X110086904Y-111747380D02*
X110086904Y-111080714D01*
X110086904Y-110747380D02*
X110039285Y-110795000D01*
X110086904Y-110842619D01*
X110134523Y-110795000D01*
X110086904Y-110747380D01*
X110086904Y-110842619D01*
X110420238Y-111080714D02*
X110801190Y-111080714D01*
X110563095Y-111747380D02*
X110563095Y-110890238D01*
X110610714Y-110795000D01*
X110705952Y-110747380D01*
X110801190Y-110747380D01*
X110991666Y-111080714D02*
X111372619Y-111080714D01*
X111134523Y-111747380D02*
X111134523Y-110890238D01*
X111182142Y-110795000D01*
X111277380Y-110747380D01*
X111372619Y-110747380D01*
X111705952Y-111223571D02*
X112467857Y-111223571D01*
X112467857Y-111509285D02*
X111705952Y-111509285D01*
X113467857Y-111747380D02*
X112896428Y-111747380D01*
X113182142Y-111747380D02*
X113182142Y-110747380D01*
X113086904Y-110890238D01*
X112991666Y-110985476D01*
X112896428Y-111033095D01*
X114086904Y-110747380D02*
X114182142Y-110747380D01*
X114277380Y-110795000D01*
X114325000Y-110842619D01*
X114372619Y-110937857D01*
X114420238Y-111128333D01*
X114420238Y-111366428D01*
X114372619Y-111556904D01*
X114325000Y-111652142D01*
X114277380Y-111699761D01*
X114182142Y-111747380D01*
X114086904Y-111747380D01*
X113991666Y-111699761D01*
X113944047Y-111652142D01*
X113896428Y-111556904D01*
X113848809Y-111366428D01*
X113848809Y-111128333D01*
X113896428Y-110937857D01*
X113944047Y-110842619D01*
X113991666Y-110795000D01*
X114086904Y-110747380D01*
X115039285Y-110747380D02*
X115134523Y-110747380D01*
X115229761Y-110795000D01*
X115277380Y-110842619D01*
X115324999Y-110937857D01*
X115372619Y-111128333D01*
X115372619Y-111366428D01*
X115324999Y-111556904D01*
X115277380Y-111652142D01*
X115229761Y-111699761D01*
X115134523Y-111747380D01*
X115039285Y-111747380D01*
X114944047Y-111699761D01*
X114896428Y-111652142D01*
X114848809Y-111556904D01*
X114801190Y-111366428D01*
X114801190Y-111128333D01*
X114848809Y-110937857D01*
X114896428Y-110842619D01*
X114944047Y-110795000D01*
X115039285Y-110747380D01*
X116753571Y-110747380D02*
X116944047Y-110747380D01*
X117039285Y-110795000D01*
X117134523Y-110890238D01*
X117182142Y-111080714D01*
X117182142Y-111414047D01*
X117134523Y-111604523D01*
X117039285Y-111699761D01*
X116944047Y-111747380D01*
X116753571Y-111747380D01*
X116658333Y-111699761D01*
X116563095Y-111604523D01*
X116515476Y-111414047D01*
X116515476Y-111080714D01*
X116563095Y-110890238D01*
X116658333Y-110795000D01*
X116753571Y-110747380D01*
X117610714Y-111747380D02*
X117610714Y-110747380D01*
X118039285Y-111747380D02*
X118039285Y-111223571D01*
X117991666Y-111128333D01*
X117896428Y-111080714D01*
X117753571Y-111080714D01*
X117658333Y-111128333D01*
X117610714Y-111175952D01*
X118515476Y-111747380D02*
X118515476Y-111080714D01*
X118515476Y-111175952D02*
X118563095Y-111128333D01*
X118658333Y-111080714D01*
X118801190Y-111080714D01*
X118896428Y-111128333D01*
X118944047Y-111223571D01*
X118944047Y-111747380D01*
X118944047Y-111223571D02*
X118991666Y-111128333D01*
X119086904Y-111080714D01*
X119229761Y-111080714D01*
X119324999Y-111128333D01*
X119372619Y-111223571D01*
X119372619Y-111747380D01*
X84705952Y-112357380D02*
X84229761Y-112357380D01*
X84182142Y-112833571D01*
X84229761Y-112785952D01*
X84325000Y-112738333D01*
X84563095Y-112738333D01*
X84658333Y-112785952D01*
X84705952Y-112833571D01*
X84753571Y-112928809D01*
X84753571Y-113166904D01*
X84705952Y-113262142D01*
X84658333Y-113309761D01*
X84563095Y-113357380D01*
X84325000Y-113357380D01*
X84229761Y-113309761D01*
X84182142Y-113262142D01*
X85372619Y-112357380D02*
X85467857Y-112357380D01*
X85563095Y-112405000D01*
X85610714Y-112452619D01*
X85658333Y-112547857D01*
X85705952Y-112738333D01*
X85705952Y-112976428D01*
X85658333Y-113166904D01*
X85610714Y-113262142D01*
X85563095Y-113309761D01*
X85467857Y-113357380D01*
X85372619Y-113357380D01*
X85277380Y-113309761D01*
X85229761Y-113262142D01*
X85182142Y-113166904D01*
X85134523Y-112976428D01*
X85134523Y-112738333D01*
X85182142Y-112547857D01*
X85229761Y-112452619D01*
X85277380Y-112405000D01*
X85372619Y-112357380D01*
X87086904Y-112357380D02*
X87277380Y-112357380D01*
X87372619Y-112405000D01*
X87467857Y-112500238D01*
X87515476Y-112690714D01*
X87515476Y-113024047D01*
X87467857Y-113214523D01*
X87372619Y-113309761D01*
X87277380Y-113357380D01*
X87086904Y-113357380D01*
X86991666Y-113309761D01*
X86896428Y-113214523D01*
X86848809Y-113024047D01*
X86848809Y-112690714D01*
X86896428Y-112500238D01*
X86991666Y-112405000D01*
X87086904Y-112357380D01*
X87944047Y-113357380D02*
X87944047Y-112357380D01*
X88372619Y-113357380D02*
X88372619Y-112833571D01*
X88325000Y-112738333D01*
X88229761Y-112690714D01*
X88086904Y-112690714D01*
X87991666Y-112738333D01*
X87944047Y-112785952D01*
X88848809Y-113357380D02*
X88848809Y-112690714D01*
X88848809Y-112785952D02*
X88896428Y-112738333D01*
X88991666Y-112690714D01*
X89134523Y-112690714D01*
X89229761Y-112738333D01*
X89277380Y-112833571D01*
X89277380Y-113357380D01*
X89277380Y-112833571D02*
X89325000Y-112738333D01*
X89420238Y-112690714D01*
X89563095Y-112690714D01*
X89658333Y-112738333D01*
X89705952Y-112833571D01*
X89705952Y-113357380D01*
X90801190Y-112357380D02*
X91134523Y-113357380D01*
X91467857Y-112357380D01*
X91801190Y-113357380D02*
X91801190Y-112690714D01*
X91801190Y-112357380D02*
X91753571Y-112405000D01*
X91801190Y-112452619D01*
X91848809Y-112405000D01*
X91801190Y-112357380D01*
X91801190Y-112452619D01*
X92705952Y-113357380D02*
X92705952Y-112833571D01*
X92658333Y-112738333D01*
X92563095Y-112690714D01*
X92372619Y-112690714D01*
X92277380Y-112738333D01*
X92705952Y-113309761D02*
X92610714Y-113357380D01*
X92372619Y-113357380D01*
X92277380Y-113309761D01*
X92229761Y-113214523D01*
X92229761Y-113119285D01*
X92277380Y-113024047D01*
X92372619Y-112976428D01*
X92610714Y-112976428D01*
X92705952Y-112928809D01*
X93801190Y-112690714D02*
X94182142Y-112690714D01*
X93944047Y-112357380D02*
X93944047Y-113214523D01*
X93991666Y-113309761D01*
X94086904Y-113357380D01*
X94182142Y-113357380D01*
X94658333Y-113357380D02*
X94563095Y-113309761D01*
X94515476Y-113262142D01*
X94467857Y-113166904D01*
X94467857Y-112881190D01*
X94515476Y-112785952D01*
X94563095Y-112738333D01*
X94658333Y-112690714D01*
X94801190Y-112690714D01*
X94896428Y-112738333D01*
X94944047Y-112785952D01*
X94991666Y-112881190D01*
X94991666Y-113166904D01*
X94944047Y-113262142D01*
X94896428Y-113309761D01*
X94801190Y-113357380D01*
X94658333Y-113357380D01*
X96753571Y-113262142D02*
X96705952Y-113309761D01*
X96563095Y-113357380D01*
X96467857Y-113357380D01*
X96325000Y-113309761D01*
X96229761Y-113214523D01*
X96182142Y-113119285D01*
X96134523Y-112928809D01*
X96134523Y-112785952D01*
X96182142Y-112595476D01*
X96229761Y-112500238D01*
X96325000Y-112405000D01*
X96467857Y-112357380D01*
X96563095Y-112357380D01*
X96705952Y-112405000D01*
X96753571Y-112452619D01*
X97325000Y-113357380D02*
X97229761Y-113309761D01*
X97182142Y-113262142D01*
X97134523Y-113166904D01*
X97134523Y-112881190D01*
X97182142Y-112785952D01*
X97229761Y-112738333D01*
X97325000Y-112690714D01*
X97467857Y-112690714D01*
X97563095Y-112738333D01*
X97610714Y-112785952D01*
X97658333Y-112881190D01*
X97658333Y-113166904D01*
X97610714Y-113262142D01*
X97563095Y-113309761D01*
X97467857Y-113357380D01*
X97325000Y-113357380D01*
X98086904Y-112690714D02*
X98086904Y-113690714D01*
X98086904Y-112738333D02*
X98182142Y-112690714D01*
X98372619Y-112690714D01*
X98467857Y-112738333D01*
X98515476Y-112785952D01*
X98563095Y-112881190D01*
X98563095Y-113166904D01*
X98515476Y-113262142D01*
X98467857Y-113309761D01*
X98372619Y-113357380D01*
X98182142Y-113357380D01*
X98086904Y-113309761D01*
X99134523Y-113357380D02*
X99039285Y-113309761D01*
X98991666Y-113214523D01*
X98991666Y-112357380D01*
X99515476Y-112690714D02*
X99515476Y-113357380D01*
X99515476Y-112785952D02*
X99563095Y-112738333D01*
X99658333Y-112690714D01*
X99801190Y-112690714D01*
X99896428Y-112738333D01*
X99944047Y-112833571D01*
X99944047Y-113357380D01*
X100848809Y-113357380D02*
X100848809Y-112833571D01*
X100801190Y-112738333D01*
X100705952Y-112690714D01*
X100515476Y-112690714D01*
X100420238Y-112738333D01*
X100848809Y-113309761D02*
X100753571Y-113357380D01*
X100515476Y-113357380D01*
X100420238Y-113309761D01*
X100372619Y-113214523D01*
X100372619Y-113119285D01*
X100420238Y-113024047D01*
X100515476Y-112976428D01*
X100753571Y-112976428D01*
X100848809Y-112928809D01*
X101325000Y-113357380D02*
X101325000Y-112690714D01*
X101325000Y-112881190D02*
X101372619Y-112785952D01*
X101420238Y-112738333D01*
X101515476Y-112690714D01*
X101610714Y-112690714D01*
X102610714Y-112357380D02*
X102848809Y-113357380D01*
X103039285Y-112643095D01*
X103229761Y-113357380D01*
X103467857Y-112357380D01*
X104277380Y-113357380D02*
X104277380Y-112833571D01*
X104229761Y-112738333D01*
X104134523Y-112690714D01*
X103944047Y-112690714D01*
X103848809Y-112738333D01*
X104277380Y-113309761D02*
X104182142Y-113357380D01*
X103944047Y-113357380D01*
X103848809Y-113309761D01*
X103801190Y-113214523D01*
X103801190Y-113119285D01*
X103848809Y-113024047D01*
X103944047Y-112976428D01*
X104182142Y-112976428D01*
X104277380Y-112928809D01*
X104658333Y-112690714D02*
X104896428Y-113357380D01*
X105134523Y-112690714D01*
X105896428Y-113309761D02*
X105801190Y-113357380D01*
X105610714Y-113357380D01*
X105515476Y-113309761D01*
X105467857Y-113214523D01*
X105467857Y-112833571D01*
X105515476Y-112738333D01*
X105610714Y-112690714D01*
X105801190Y-112690714D01*
X105896428Y-112738333D01*
X105944047Y-112833571D01*
X105944047Y-112928809D01*
X105467857Y-113024047D01*
X106801190Y-112690714D02*
X106801190Y-113500238D01*
X106753571Y-113595476D01*
X106705952Y-113643095D01*
X106610714Y-113690714D01*
X106467857Y-113690714D01*
X106372619Y-113643095D01*
X106801190Y-113309761D02*
X106705952Y-113357380D01*
X106515476Y-113357380D01*
X106420238Y-113309761D01*
X106372619Y-113262142D01*
X106325000Y-113166904D01*
X106325000Y-112881190D01*
X106372619Y-112785952D01*
X106420238Y-112738333D01*
X106515476Y-112690714D01*
X106705952Y-112690714D01*
X106801190Y-112738333D01*
X107705952Y-112690714D02*
X107705952Y-113357380D01*
X107277380Y-112690714D02*
X107277380Y-113214523D01*
X107325000Y-113309761D01*
X107420238Y-113357380D01*
X107563095Y-113357380D01*
X107658333Y-113309761D01*
X107705952Y-113262142D01*
X108182142Y-113357380D02*
X108182142Y-112690714D01*
X108182142Y-112357380D02*
X108134523Y-112405000D01*
X108182142Y-112452619D01*
X108229761Y-112405000D01*
X108182142Y-112357380D01*
X108182142Y-112452619D01*
X109086904Y-113357380D02*
X109086904Y-112357380D01*
X109086904Y-113309761D02*
X108991666Y-113357380D01*
X108801190Y-113357380D01*
X108705952Y-113309761D01*
X108658333Y-113262142D01*
X108610714Y-113166904D01*
X108610714Y-112881190D01*
X108658333Y-112785952D01*
X108705952Y-112738333D01*
X108801190Y-112690714D01*
X108991666Y-112690714D01*
X109086904Y-112738333D01*
X109944047Y-113309761D02*
X109848809Y-113357380D01*
X109658333Y-113357380D01*
X109563095Y-113309761D01*
X109515476Y-113214523D01*
X109515476Y-112833571D01*
X109563095Y-112738333D01*
X109658333Y-112690714D01*
X109848809Y-112690714D01*
X109944047Y-112738333D01*
X109991666Y-112833571D01*
X109991666Y-112928809D01*
X109515476Y-113024047D01*
X111658333Y-112357380D02*
X111182142Y-112357380D01*
X111134523Y-112833571D01*
X111182142Y-112785952D01*
X111277380Y-112738333D01*
X111515476Y-112738333D01*
X111610714Y-112785952D01*
X111658333Y-112833571D01*
X111705952Y-112928809D01*
X111705952Y-113166904D01*
X111658333Y-113262142D01*
X111610714Y-113309761D01*
X111515476Y-113357380D01*
X111277380Y-113357380D01*
X111182142Y-113309761D01*
X111134523Y-113262142D01*
X112325000Y-112357380D02*
X112420238Y-112357380D01*
X112515476Y-112405000D01*
X112563095Y-112452619D01*
X112610714Y-112547857D01*
X112658333Y-112738333D01*
X112658333Y-112976428D01*
X112610714Y-113166904D01*
X112563095Y-113262142D01*
X112515476Y-113309761D01*
X112420238Y-113357380D01*
X112325000Y-113357380D01*
X112229761Y-113309761D01*
X112182142Y-113262142D01*
X112134523Y-113166904D01*
X112086904Y-112976428D01*
X112086904Y-112738333D01*
X112134523Y-112547857D01*
X112182142Y-112452619D01*
X112229761Y-112405000D01*
X112325000Y-112357380D01*
X114039285Y-112357380D02*
X114229761Y-112357380D01*
X114325000Y-112405000D01*
X114420238Y-112500238D01*
X114467857Y-112690714D01*
X114467857Y-113024047D01*
X114420238Y-113214523D01*
X114325000Y-113309761D01*
X114229761Y-113357380D01*
X114039285Y-113357380D01*
X113944047Y-113309761D01*
X113848809Y-113214523D01*
X113801190Y-113024047D01*
X113801190Y-112690714D01*
X113848809Y-112500238D01*
X113944047Y-112405000D01*
X114039285Y-112357380D01*
X114896428Y-113357380D02*
X114896428Y-112357380D01*
X115325000Y-113357380D02*
X115325000Y-112833571D01*
X115277380Y-112738333D01*
X115182142Y-112690714D01*
X115039285Y-112690714D01*
X114944047Y-112738333D01*
X114896428Y-112785952D01*
X115801190Y-113357380D02*
X115801190Y-112690714D01*
X115801190Y-112785952D02*
X115848809Y-112738333D01*
X115944047Y-112690714D01*
X116086904Y-112690714D01*
X116182142Y-112738333D01*
X116229761Y-112833571D01*
X116229761Y-113357380D01*
X116229761Y-112833571D02*
X116277380Y-112738333D01*
X116372619Y-112690714D01*
X116515476Y-112690714D01*
X116610714Y-112738333D01*
X116658333Y-112833571D01*
X116658333Y-113357380D01*
X80904761Y-147315180D02*
X80904761Y-146315180D01*
X81238095Y-147029466D01*
X81571428Y-146315180D01*
X81571428Y-147315180D01*
X82047619Y-147315180D02*
X82047619Y-146648514D01*
X82047619Y-146315180D02*
X82000000Y-146362800D01*
X82047619Y-146410419D01*
X82095238Y-146362800D01*
X82047619Y-146315180D01*
X82047619Y-146410419D01*
X82952380Y-147267561D02*
X82857142Y-147315180D01*
X82666666Y-147315180D01*
X82571428Y-147267561D01*
X82523809Y-147219942D01*
X82476190Y-147124704D01*
X82476190Y-146838990D01*
X82523809Y-146743752D01*
X82571428Y-146696133D01*
X82666666Y-146648514D01*
X82857142Y-146648514D01*
X82952380Y-146696133D01*
X83380952Y-147315180D02*
X83380952Y-146648514D01*
X83380952Y-146838990D02*
X83428571Y-146743752D01*
X83476190Y-146696133D01*
X83571428Y-146648514D01*
X83666666Y-146648514D01*
X84142857Y-147315180D02*
X84047619Y-147267561D01*
X84000000Y-147219942D01*
X83952380Y-147124704D01*
X83952380Y-146838990D01*
X84000000Y-146743752D01*
X84047619Y-146696133D01*
X84142857Y-146648514D01*
X84285714Y-146648514D01*
X84380952Y-146696133D01*
X84428571Y-146743752D01*
X84476190Y-146838990D01*
X84476190Y-147124704D01*
X84428571Y-147219942D01*
X84380952Y-147267561D01*
X84285714Y-147315180D01*
X84142857Y-147315180D01*
X84857142Y-147267561D02*
X84952380Y-147315180D01*
X85142857Y-147315180D01*
X85238095Y-147267561D01*
X85285714Y-147172323D01*
X85285714Y-147124704D01*
X85238095Y-147029466D01*
X85142857Y-146981847D01*
X85000000Y-146981847D01*
X84904761Y-146934228D01*
X84857142Y-146838990D01*
X84857142Y-146791371D01*
X84904761Y-146696133D01*
X85000000Y-146648514D01*
X85142857Y-146648514D01*
X85238095Y-146696133D01*
X85571428Y-146648514D02*
X85952380Y-146648514D01*
X85714285Y-146315180D02*
X85714285Y-147172323D01*
X85761904Y-147267561D01*
X85857142Y-147315180D01*
X85952380Y-147315180D01*
X86285714Y-147315180D02*
X86285714Y-146648514D01*
X86285714Y-146838990D02*
X86333333Y-146743752D01*
X86380952Y-146696133D01*
X86476190Y-146648514D01*
X86571428Y-146648514D01*
X86904761Y-147315180D02*
X86904761Y-146648514D01*
X86904761Y-146315180D02*
X86857142Y-146362800D01*
X86904761Y-146410419D01*
X86952380Y-146362800D01*
X86904761Y-146315180D01*
X86904761Y-146410419D01*
X87380952Y-146648514D02*
X87380952Y-147648514D01*
X87380952Y-146696133D02*
X87476190Y-146648514D01*
X87666666Y-146648514D01*
X87761904Y-146696133D01*
X87809523Y-146743752D01*
X87857142Y-146838990D01*
X87857142Y-147124704D01*
X87809523Y-147219942D01*
X87761904Y-147267561D01*
X87666666Y-147315180D01*
X87476190Y-147315180D01*
X87380952Y-147267561D01*
X89047619Y-147315180D02*
X89047619Y-146315180D01*
X89285714Y-146315180D01*
X89428571Y-146362800D01*
X89523809Y-146458038D01*
X89571428Y-146553276D01*
X89619047Y-146743752D01*
X89619047Y-146886609D01*
X89571428Y-147077085D01*
X89523809Y-147172323D01*
X89428571Y-147267561D01*
X89285714Y-147315180D01*
X89047619Y-147315180D01*
X90047619Y-147315180D02*
X90047619Y-146648514D01*
X90047619Y-146315180D02*
X90000000Y-146362800D01*
X90047619Y-146410419D01*
X90095238Y-146362800D01*
X90047619Y-146315180D01*
X90047619Y-146410419D01*
X90380952Y-146648514D02*
X90761904Y-146648514D01*
X90523809Y-147315180D02*
X90523809Y-146458038D01*
X90571428Y-146362800D01*
X90666666Y-146315180D01*
X90761904Y-146315180D01*
X90952380Y-146648514D02*
X91333333Y-146648514D01*
X91095238Y-147315180D02*
X91095238Y-146458038D01*
X91142857Y-146362800D01*
X91238095Y-146315180D01*
X91333333Y-146315180D01*
X92047619Y-147267561D02*
X91952380Y-147315180D01*
X91761904Y-147315180D01*
X91666666Y-147267561D01*
X91619047Y-147172323D01*
X91619047Y-146791371D01*
X91666666Y-146696133D01*
X91761904Y-146648514D01*
X91952380Y-146648514D01*
X92047619Y-146696133D01*
X92095238Y-146791371D01*
X92095238Y-146886609D01*
X91619047Y-146981847D01*
X92523809Y-147315180D02*
X92523809Y-146648514D01*
X92523809Y-146838990D02*
X92571428Y-146743752D01*
X92619047Y-146696133D01*
X92714285Y-146648514D01*
X92809523Y-146648514D01*
X93523809Y-147267561D02*
X93428571Y-147315180D01*
X93238095Y-147315180D01*
X93142857Y-147267561D01*
X93095238Y-147172323D01*
X93095238Y-146791371D01*
X93142857Y-146696133D01*
X93238095Y-146648514D01*
X93428571Y-146648514D01*
X93523809Y-146696133D01*
X93571428Y-146791371D01*
X93571428Y-146886609D01*
X93095238Y-146981847D01*
X94000000Y-146648514D02*
X94000000Y-147315180D01*
X94000000Y-146743752D02*
X94047619Y-146696133D01*
X94142857Y-146648514D01*
X94285714Y-146648514D01*
X94380952Y-146696133D01*
X94428571Y-146791371D01*
X94428571Y-147315180D01*
X94761904Y-146648514D02*
X95142857Y-146648514D01*
X94904761Y-146315180D02*
X94904761Y-147172323D01*
X94952380Y-147267561D01*
X95047619Y-147315180D01*
X95142857Y-147315180D01*
X95476190Y-147315180D02*
X95476190Y-146648514D01*
X95476190Y-146315180D02*
X95428571Y-146362800D01*
X95476190Y-146410419D01*
X95523809Y-146362800D01*
X95476190Y-146315180D01*
X95476190Y-146410419D01*
X96380952Y-147315180D02*
X96380952Y-146791371D01*
X96333333Y-146696133D01*
X96238095Y-146648514D01*
X96047619Y-146648514D01*
X95952380Y-146696133D01*
X96380952Y-147267561D02*
X96285714Y-147315180D01*
X96047619Y-147315180D01*
X95952380Y-147267561D01*
X95904761Y-147172323D01*
X95904761Y-147077085D01*
X95952380Y-146981847D01*
X96047619Y-146934228D01*
X96285714Y-146934228D01*
X96380952Y-146886609D01*
X97000000Y-147315180D02*
X96904761Y-147267561D01*
X96857142Y-147172323D01*
X96857142Y-146315180D01*
X98047619Y-146315180D02*
X98714285Y-146315180D01*
X98047619Y-147315180D01*
X98714285Y-147315180D01*
X99238095Y-147315180D02*
X99142857Y-147267561D01*
X99095238Y-147219942D01*
X99047619Y-147124704D01*
X99047619Y-146838990D01*
X99095238Y-146743752D01*
X99142857Y-146696133D01*
X99238095Y-146648514D01*
X99380952Y-146648514D01*
X99476190Y-146696133D01*
X99523809Y-146743752D01*
X99571428Y-146838990D01*
X99571428Y-147124704D01*
X99523809Y-147219942D01*
X99476190Y-147267561D01*
X99380952Y-147315180D01*
X99238095Y-147315180D01*
X100000000Y-146791371D02*
X100761904Y-146791371D01*
X100761904Y-147077085D02*
X100000000Y-147077085D01*
X101714285Y-146315180D02*
X101238095Y-146315180D01*
X101190476Y-146791371D01*
X101238095Y-146743752D01*
X101333333Y-146696133D01*
X101571428Y-146696133D01*
X101666666Y-146743752D01*
X101714285Y-146791371D01*
X101761904Y-146886609D01*
X101761904Y-147124704D01*
X101714285Y-147219942D01*
X101666666Y-147267561D01*
X101571428Y-147315180D01*
X101333333Y-147315180D01*
X101238095Y-147267561D01*
X101190476Y-147219942D01*
X102380952Y-146315180D02*
X102476190Y-146315180D01*
X102571428Y-146362800D01*
X102619047Y-146410419D01*
X102666666Y-146505657D01*
X102714285Y-146696133D01*
X102714285Y-146934228D01*
X102666666Y-147124704D01*
X102619047Y-147219942D01*
X102571428Y-147267561D01*
X102476190Y-147315180D01*
X102380952Y-147315180D01*
X102285714Y-147267561D01*
X102238095Y-147219942D01*
X102190476Y-147124704D01*
X102142857Y-146934228D01*
X102142857Y-146696133D01*
X102190476Y-146505657D01*
X102238095Y-146410419D01*
X102285714Y-146362800D01*
X102380952Y-146315180D01*
X104095238Y-146315180D02*
X104285714Y-146315180D01*
X104380952Y-146362800D01*
X104476190Y-146458038D01*
X104523809Y-146648514D01*
X104523809Y-146981847D01*
X104476190Y-147172323D01*
X104380952Y-147267561D01*
X104285714Y-147315180D01*
X104095238Y-147315180D01*
X104000000Y-147267561D01*
X103904761Y-147172323D01*
X103857142Y-146981847D01*
X103857142Y-146648514D01*
X103904761Y-146458038D01*
X104000000Y-146362800D01*
X104095238Y-146315180D01*
X104952380Y-147315180D02*
X104952380Y-146315180D01*
X105380952Y-147315180D02*
X105380952Y-146791371D01*
X105333333Y-146696133D01*
X105238095Y-146648514D01*
X105095238Y-146648514D01*
X105000000Y-146696133D01*
X104952380Y-146743752D01*
X105857142Y-147315180D02*
X105857142Y-146648514D01*
X105857142Y-146743752D02*
X105904761Y-146696133D01*
X106000000Y-146648514D01*
X106142857Y-146648514D01*
X106238095Y-146696133D01*
X106285714Y-146791371D01*
X106285714Y-147315180D01*
X106285714Y-146791371D02*
X106333333Y-146696133D01*
X106428571Y-146648514D01*
X106571428Y-146648514D01*
X106666666Y-146696133D01*
X106714285Y-146791371D01*
X106714285Y-147315180D01*
X107857142Y-146315180D02*
X108523809Y-146315180D01*
X107857142Y-147315180D01*
X108523809Y-147315180D01*
X109333333Y-147315180D02*
X109333333Y-146315180D01*
X109333333Y-147267561D02*
X109238095Y-147315180D01*
X109047619Y-147315180D01*
X108952380Y-147267561D01*
X108904761Y-147219942D01*
X108857142Y-147124704D01*
X108857142Y-146838990D01*
X108904761Y-146743752D01*
X108952380Y-146696133D01*
X109047619Y-146648514D01*
X109238095Y-146648514D01*
X109333333Y-146696133D01*
X109809523Y-147315180D02*
X109809523Y-146648514D01*
X109809523Y-146315180D02*
X109761904Y-146362800D01*
X109809523Y-146410419D01*
X109857142Y-146362800D01*
X109809523Y-146315180D01*
X109809523Y-146410419D01*
X110142857Y-146648514D02*
X110523809Y-146648514D01*
X110285714Y-147315180D02*
X110285714Y-146458038D01*
X110333333Y-146362800D01*
X110428571Y-146315180D01*
X110523809Y-146315180D01*
X110714285Y-146648514D02*
X111095238Y-146648514D01*
X110857142Y-147315180D02*
X110857142Y-146458038D01*
X110904761Y-146362800D01*
X111000000Y-146315180D01*
X111095238Y-146315180D01*
X111428571Y-146791371D02*
X112190476Y-146791371D01*
X112190476Y-147077085D02*
X111428571Y-147077085D01*
X113190476Y-147315180D02*
X112619047Y-147315180D01*
X112904761Y-147315180D02*
X112904761Y-146315180D01*
X112809523Y-146458038D01*
X112714285Y-146553276D01*
X112619047Y-146600895D01*
X113809523Y-146315180D02*
X113904761Y-146315180D01*
X114000000Y-146362800D01*
X114047619Y-146410419D01*
X114095238Y-146505657D01*
X114142857Y-146696133D01*
X114142857Y-146934228D01*
X114095238Y-147124704D01*
X114047619Y-147219942D01*
X114000000Y-147267561D01*
X113904761Y-147315180D01*
X113809523Y-147315180D01*
X113714285Y-147267561D01*
X113666666Y-147219942D01*
X113619047Y-147124704D01*
X113571428Y-146934228D01*
X113571428Y-146696133D01*
X113619047Y-146505657D01*
X113666666Y-146410419D01*
X113714285Y-146362800D01*
X113809523Y-146315180D01*
X114761904Y-146315180D02*
X114857142Y-146315180D01*
X114952380Y-146362800D01*
X115000000Y-146410419D01*
X115047619Y-146505657D01*
X115095238Y-146696133D01*
X115095238Y-146934228D01*
X115047619Y-147124704D01*
X115000000Y-147219942D01*
X114952380Y-147267561D01*
X114857142Y-147315180D01*
X114761904Y-147315180D01*
X114666666Y-147267561D01*
X114619047Y-147219942D01*
X114571428Y-147124704D01*
X114523809Y-146934228D01*
X114523809Y-146696133D01*
X114571428Y-146505657D01*
X114619047Y-146410419D01*
X114666666Y-146362800D01*
X114761904Y-146315180D01*
X116476190Y-146315180D02*
X116666666Y-146315180D01*
X116761904Y-146362800D01*
X116857142Y-146458038D01*
X116904761Y-146648514D01*
X116904761Y-146981847D01*
X116857142Y-147172323D01*
X116761904Y-147267561D01*
X116666666Y-147315180D01*
X116476190Y-147315180D01*
X116380952Y-147267561D01*
X116285714Y-147172323D01*
X116238095Y-146981847D01*
X116238095Y-146648514D01*
X116285714Y-146458038D01*
X116380952Y-146362800D01*
X116476190Y-146315180D01*
X117333333Y-147315180D02*
X117333333Y-146315180D01*
X117761904Y-147315180D02*
X117761904Y-146791371D01*
X117714285Y-146696133D01*
X117619047Y-146648514D01*
X117476190Y-146648514D01*
X117380952Y-146696133D01*
X117333333Y-146743752D01*
X118238095Y-147315180D02*
X118238095Y-146648514D01*
X118238095Y-146743752D02*
X118285714Y-146696133D01*
X118380952Y-146648514D01*
X118523809Y-146648514D01*
X118619047Y-146696133D01*
X118666666Y-146791371D01*
X118666666Y-147315180D01*
X118666666Y-146791371D02*
X118714285Y-146696133D01*
X118809523Y-146648514D01*
X118952380Y-146648514D01*
X119047619Y-146696133D01*
X119095238Y-146791371D01*
X119095238Y-147315180D01*
D11*
X61349000Y-123551000D02*
X61349000Y-124051000D01*
X61349000Y-124051000D02*
X60849000Y-123801000D01*
X60849000Y-123801000D02*
X61349000Y-123551000D01*
X146084850Y-123549600D02*
X146584850Y-123799600D01*
X146584850Y-123799600D02*
X146084850Y-124049600D01*
X146084850Y-124049600D02*
X146084850Y-123549600D01*
X60817000Y-87694000D02*
X61317000Y-87444000D01*
X61317000Y-87944000D02*
X60817000Y-87694000D01*
X61317000Y-87444000D02*
X61317000Y-87944000D01*
X146343200Y-140273000D02*
X145843200Y-140523000D01*
X145843200Y-140023000D02*
X146343200Y-140273000D01*
X145843200Y-140523000D02*
X145843200Y-140023000D01*
X61307000Y-140446800D02*
X60807000Y-140196800D01*
X61307000Y-139946800D02*
X61307000Y-140446800D01*
X60807000Y-140196800D02*
X61307000Y-139946800D01*
X145894350Y-105964800D02*
X145894350Y-105464800D01*
X146394350Y-105714800D02*
X145894350Y-105964800D01*
X145894350Y-105464800D02*
X146394350Y-105714800D01*
X61293450Y-105502900D02*
X61293450Y-106002900D01*
X61293450Y-106002900D02*
X60793450Y-105752900D01*
X60793450Y-105752900D02*
X61293450Y-105502900D01*
X78305000Y-71344000D02*
X78555000Y-71844000D01*
X78555000Y-71844000D02*
X78055000Y-71844000D01*
X78055000Y-71844000D02*
X78305000Y-71344000D01*
X146055000Y-87932000D02*
X146055000Y-87432000D01*
X146555000Y-87682000D02*
X146055000Y-87932000D01*
X146055000Y-87432000D02*
X146555000Y-87682000D01*
X61332400Y-156355200D02*
X61332400Y-156855200D01*
X60832400Y-156605200D02*
X61332400Y-156355200D01*
X61332400Y-156855200D02*
X60832400Y-156605200D01*
X145843200Y-156753600D02*
X145843200Y-156253600D01*
X146343200Y-156503600D02*
X145843200Y-156753600D01*
X145843200Y-156253600D02*
X146343200Y-156503600D01*
%LPC*%
D12*
X57129000Y-119421000D03*
X57129000Y-128181000D03*
D13*
X57129000Y-123801000D03*
D12*
X150297300Y-119394200D03*
X150297300Y-128154200D03*
X57093700Y-144549900D03*
X57093700Y-135789900D03*
D13*
X150304850Y-123799600D03*
D12*
X150304850Y-119419600D03*
X150304850Y-128179600D03*
D13*
X57097000Y-87694000D03*
D12*
X57097000Y-92074000D03*
X57097000Y-83314000D03*
X150114350Y-101341150D03*
X150114350Y-110101150D03*
D13*
X150063200Y-140273000D03*
D12*
X150063200Y-144653000D03*
X150063200Y-135893000D03*
X57092000Y-92075000D03*
X57092000Y-83315000D03*
D13*
X57087000Y-140196800D03*
D12*
X57087000Y-135816800D03*
X57087000Y-144576800D03*
X57067450Y-110132900D03*
X57067450Y-101372900D03*
D13*
X150114350Y-105714800D03*
D12*
X150114350Y-110094800D03*
X150114350Y-101334800D03*
X150068700Y-135878800D03*
X150068700Y-144638800D03*
D13*
X57073450Y-105752900D03*
D12*
X57073450Y-101372900D03*
X57073450Y-110132900D03*
X150069900Y-160882100D03*
X150069900Y-152122100D03*
D14*
X78305000Y-67624000D03*
D15*
X82685000Y-67624000D03*
X73925000Y-67624000D03*
D13*
X150275000Y-87682000D03*
D12*
X150275000Y-83302000D03*
X150275000Y-92062000D03*
D13*
X57112400Y-156605200D03*
D12*
X57112400Y-160985200D03*
X57112400Y-152225200D03*
D15*
X133398000Y-67635000D03*
X124638000Y-67635000D03*
D12*
X150274000Y-92074000D03*
X150274000Y-83314000D03*
D13*
X150063200Y-156503600D03*
D12*
X150063200Y-160883600D03*
X150063200Y-152123600D03*
X57130600Y-128180000D03*
X57130600Y-119420000D03*
X57092850Y-152204650D03*
X57092850Y-160964650D03*
M02*
