G04 #@! TF.GenerationSoftware,KiCad,Pcbnew,(6.0.1)*
G04 #@! TF.CreationDate,2022-06-06T21:41:38+02:00*
G04 #@! TF.ProjectId,rf_test_board,72665f74-6573-4745-9f62-6f6172642e6b,rev?*
G04 #@! TF.SameCoordinates,Original*
G04 #@! TF.FileFunction,Soldermask,Top*
G04 #@! TF.FilePolarity,Negative*
%FSLAX46Y46*%
G04 Gerber Fmt 4.6, Leading zero omitted, Abs format (unit mm)*
G04 Created by KiCad (PCBNEW (6.0.1)) date 2022-06-06 21:41:38*
%MOMM*%
%LPD*%
G01*
G04 APERTURE LIST*
%ADD10R,5.080000X2.420000*%
%ADD11R,5.080000X2.290000*%
%ADD12R,2.290000X5.080000*%
%ADD13R,2.420000X5.080000*%
G04 APERTURE END LIST*
D10*
X57129000Y-119421000D03*
X57129000Y-128181000D03*
D11*
X57129000Y-123801000D03*
D10*
X150297300Y-119394200D03*
X150297300Y-128154200D03*
X57093700Y-144549900D03*
X57093700Y-135789900D03*
D11*
X150304850Y-123799600D03*
D10*
X150304850Y-119419600D03*
X150304850Y-128179600D03*
D11*
X57097000Y-87694000D03*
D10*
X57097000Y-92074000D03*
X57097000Y-83314000D03*
X150114350Y-101341150D03*
X150114350Y-110101150D03*
D11*
X150063200Y-140273000D03*
D10*
X150063200Y-144653000D03*
X150063200Y-135893000D03*
X57092000Y-92075000D03*
X57092000Y-83315000D03*
D11*
X57087000Y-140196800D03*
D10*
X57087000Y-135816800D03*
X57087000Y-144576800D03*
X57067450Y-110132900D03*
X57067450Y-101372900D03*
D11*
X150114350Y-105714800D03*
D10*
X150114350Y-110094800D03*
X150114350Y-101334800D03*
X150068700Y-135878800D03*
X150068700Y-144638800D03*
D11*
X57073450Y-105752900D03*
D10*
X57073450Y-101372900D03*
X57073450Y-110132900D03*
X150069900Y-160882100D03*
X150069900Y-152122100D03*
D12*
X78305000Y-67624000D03*
D13*
X82685000Y-67624000D03*
X73925000Y-67624000D03*
D11*
X150275000Y-87682000D03*
D10*
X150275000Y-83302000D03*
X150275000Y-92062000D03*
D11*
X57112400Y-156605200D03*
D10*
X57112400Y-160985200D03*
X57112400Y-152225200D03*
D13*
X133398000Y-67635000D03*
X124638000Y-67635000D03*
D10*
X150274000Y-92074000D03*
X150274000Y-83314000D03*
D11*
X150063200Y-156503600D03*
D10*
X150063200Y-160883600D03*
X150063200Y-152123600D03*
X57130600Y-128180000D03*
X57130600Y-119420000D03*
X57092850Y-152204650D03*
X57092850Y-160964650D03*
M02*
