M48
; DRILL file {KiCad (6.0.1)} date Mon Jun  6 21:42:15 2022
; FORMAT={-:-/ absolute / metric / decimal}
; #@! TF.CreationDate,2022-06-06T21:42:15+02:00
; #@! TF.GenerationSoftware,Kicad,Pcbnew,(6.0.1)
; #@! TF.FileFunction,Plated,1,4,PTH
FMAT,2
METRIC
; #@! TA.AperFunction,Plated,PTH,ViaDrill
T1C0.355
; #@! TA.AperFunction,Plated,PTH,ComponentDrill
T2C0.460
%
G90
G05
T1
X60.634Y-88.887
X60.665Y-86.234
X60.96Y-125.73
X63.174Y-88.887
X63.205Y-86.234
X63.5Y-125.73
X63.954Y-111.354
X64.102Y-117.92
X64.97Y-112.37
X65.22Y-116.86
X65.714Y-88.887
X65.745Y-86.234
X66.03Y-113.488
X66.04Y-125.73
X66.236Y-115.844
X66.7Y-120.44
X66.758Y-108.61
X67.818Y-109.728
X67.818Y-119.38
X68.254Y-88.887
X68.285Y-86.234
X68.58Y-101.6
X68.58Y-121.92
X68.58Y-125.73
X68.834Y-110.744
X68.834Y-118.364
X69.43Y-105.76
X69.431Y-115.589
X69.437Y-114.033
X70.794Y-88.887
X70.825Y-86.234
X71.12Y-101.6
X71.12Y-109.22
X71.12Y-121.92
X71.12Y-125.73
X73.334Y-88.887
X73.365Y-86.234
X73.66Y-101.6
X73.66Y-109.22
X73.66Y-121.92
X73.66Y-125.73
X75.874Y-88.887
X75.905Y-86.234
X76.2Y-101.6
X76.2Y-109.22
X76.2Y-121.92
X76.2Y-125.73
X77.041Y-72.311
X77.041Y-74.851
X77.041Y-77.391
X77.041Y-79.931
X77.041Y-82.471
X77.041Y-85.011
X78.414Y-88.887
X78.74Y-101.6
X78.74Y-109.22
X78.74Y-121.92
X78.74Y-125.73
X79.574Y-72.308
X79.574Y-74.848
X79.574Y-77.388
X79.574Y-79.928
X79.574Y-82.468
X79.574Y-85.008
X81.28Y-101.6
X81.28Y-109.22
X81.28Y-121.92
X81.28Y-125.73
X83.82Y-101.6
X83.82Y-109.22
X83.82Y-121.92
X83.82Y-125.73
X86.36Y-101.6
X86.36Y-109.22
X86.36Y-121.92
X86.36Y-125.73
X88.9Y-101.6
X88.9Y-109.22
X88.9Y-121.92
X88.9Y-125.73
X91.44Y-101.6
X91.44Y-109.22
X91.44Y-121.92
X91.44Y-125.73
X93.98Y-101.6
X93.98Y-109.22
X93.98Y-121.92
X93.98Y-125.73
X96.52Y-101.6
X96.52Y-109.22
X96.52Y-121.92
X96.52Y-125.73
X99.06Y-101.6
X99.06Y-109.22
X99.06Y-121.92
X99.06Y-125.73
X101.6Y-101.6
X101.6Y-109.22
X101.6Y-121.92
X101.6Y-125.73
X104.14Y-101.6
X104.14Y-109.22
X104.14Y-121.92
X104.14Y-125.73
X106.68Y-101.6
X106.68Y-109.22
X106.68Y-121.92
X106.68Y-125.73
X109.22Y-101.6
X109.22Y-109.22
X109.22Y-121.92
X109.22Y-125.73
X111.76Y-101.6
X111.76Y-109.22
X111.76Y-121.92
X111.76Y-125.73
X114.3Y-101.6
X114.3Y-109.22
X114.3Y-121.92
X114.3Y-125.73
X116.84Y-101.6
X116.84Y-109.22
X116.84Y-121.92
X116.84Y-125.73
X119.38Y-101.6
X119.38Y-109.22
X119.38Y-121.92
X119.38Y-125.73
X121.92Y-101.6
X121.92Y-109.22
X121.92Y-121.92
X121.92Y-125.73
X124.46Y-101.6
X124.46Y-109.22
X124.46Y-121.92
X124.46Y-125.73
X127.0Y-101.6
X127.0Y-109.22
X127.0Y-121.92
X127.0Y-125.73
X127.508Y-72.644
X127.508Y-74.168
X128.524Y-75.184
X129.54Y-76.2
X129.54Y-101.6
X129.54Y-109.22
X129.54Y-121.92
X129.54Y-125.73
X130.556Y-72.644
X130.556Y-77.216
X131.064Y-74.168
X131.572Y-78.232
X132.08Y-75.184
X132.08Y-101.6
X132.08Y-109.22
X132.08Y-121.92
X132.08Y-125.73
X132.588Y-79.248
X133.096Y-76.2
X133.604Y-80.264
X134.112Y-77.216
X134.62Y-81.28
X134.62Y-101.6
X134.62Y-109.22
X134.62Y-121.92
X134.62Y-125.73
X135.128Y-78.232
X135.636Y-82.296
X135.925Y-80.845
X136.144Y-79.248
X136.652Y-83.312
X137.16Y-80.264
X137.16Y-101.6
X137.16Y-109.22
X137.16Y-121.92
X137.16Y-125.73
X137.668Y-84.328
X138.176Y-81.28
X138.398Y-115.576
X138.4Y-105.76
X138.405Y-114.021
X138.684Y-85.344
X139.09Y-110.788
X139.148Y-118.77
X139.192Y-82.296
X139.7Y-86.36
X139.7Y-101.6
X139.7Y-121.92
X139.7Y-125.73
X140.208Y-83.312
X140.208Y-109.728
X140.208Y-119.888
X141.224Y-84.328
X141.224Y-108.712
X141.224Y-120.904
X141.382Y-113.04
X141.424Y-116.364
X141.649Y-88.903
X142.24Y-85.344
X142.24Y-125.73
X142.44Y-117.38
X142.5Y-111.98
X143.256Y-86.36
X143.256Y-88.9
X143.5Y-118.498
X143.516Y-110.964
X144.78Y-86.36
X144.78Y-88.9
X144.78Y-125.73
X146.304Y-86.36
X146.304Y-88.9
T2
X60.507Y-101.373
X60.507Y-110.133
X60.513Y-101.373
X60.513Y-110.133
X60.527Y-135.817
X60.527Y-144.577
X60.532Y-83.315
X60.532Y-92.075
X60.533Y-152.205
X60.533Y-160.965
X60.534Y-135.79
X60.534Y-144.55
X60.537Y-83.314
X60.537Y-92.074
X60.552Y-152.225
X60.552Y-160.985
X60.569Y-119.421
X60.569Y-128.181
X60.571Y-119.42
X60.571Y-128.18
X73.925Y-71.064
X82.685Y-71.064
X124.638Y-71.075
X133.398Y-71.075
X146.623Y-135.893
X146.623Y-144.653
X146.623Y-152.124
X146.623Y-160.884
X146.629Y-135.879
X146.629Y-144.639
X146.63Y-152.122
X146.63Y-160.882
X146.674Y-101.335
X146.674Y-101.341
X146.674Y-110.095
X146.674Y-110.101
X146.834Y-83.314
X146.834Y-92.074
X146.835Y-83.302
X146.835Y-92.062
X146.857Y-119.394
X146.857Y-128.154
X146.865Y-119.42
X146.865Y-128.18
T0
M30
