G04 #@! TF.GenerationSoftware,KiCad,Pcbnew,(6.0.1)*
G04 #@! TF.CreationDate,2022-06-06T21:41:38+02:00*
G04 #@! TF.ProjectId,rf_test_board,72665f74-6573-4745-9f62-6f6172642e6b,rev?*
G04 #@! TF.SameCoordinates,Original*
G04 #@! TF.FileFunction,Legend,Bot*
G04 #@! TF.FilePolarity,Positive*
%FSLAX46Y46*%
G04 Gerber Fmt 4.6, Leading zero omitted, Abs format (unit mm)*
G04 Created by KiCad (PCBNEW (6.0.1)) date 2022-06-06 21:41:38*
%MOMM*%
%LPD*%
G01*
G04 APERTURE LIST*
%ADD10C,0.150000*%
%ADD11C,0.120000*%
%ADD12R,5.080000X2.420000*%
%ADD13R,5.080000X2.290000*%
%ADD14R,2.420000X5.080000*%
%ADD15R,2.290000X5.080000*%
G04 APERTURE END LIST*
D10*
X109941142Y-87057380D02*
X109941142Y-86057380D01*
X109607809Y-86771666D01*
X109274476Y-86057380D01*
X109274476Y-87057380D01*
X108798285Y-87057380D02*
X108798285Y-86390714D01*
X108798285Y-86057380D02*
X108845904Y-86105000D01*
X108798285Y-86152619D01*
X108750666Y-86105000D01*
X108798285Y-86057380D01*
X108798285Y-86152619D01*
X107893523Y-87009761D02*
X107988761Y-87057380D01*
X108179238Y-87057380D01*
X108274476Y-87009761D01*
X108322095Y-86962142D01*
X108369714Y-86866904D01*
X108369714Y-86581190D01*
X108322095Y-86485952D01*
X108274476Y-86438333D01*
X108179238Y-86390714D01*
X107988761Y-86390714D01*
X107893523Y-86438333D01*
X107464952Y-87057380D02*
X107464952Y-86390714D01*
X107464952Y-86581190D02*
X107417333Y-86485952D01*
X107369714Y-86438333D01*
X107274476Y-86390714D01*
X107179238Y-86390714D01*
X106703047Y-87057380D02*
X106798285Y-87009761D01*
X106845904Y-86962142D01*
X106893523Y-86866904D01*
X106893523Y-86581190D01*
X106845904Y-86485952D01*
X106798285Y-86438333D01*
X106703047Y-86390714D01*
X106560190Y-86390714D01*
X106464952Y-86438333D01*
X106417333Y-86485952D01*
X106369714Y-86581190D01*
X106369714Y-86866904D01*
X106417333Y-86962142D01*
X106464952Y-87009761D01*
X106560190Y-87057380D01*
X106703047Y-87057380D01*
X105988761Y-87009761D02*
X105893523Y-87057380D01*
X105703047Y-87057380D01*
X105607809Y-87009761D01*
X105560190Y-86914523D01*
X105560190Y-86866904D01*
X105607809Y-86771666D01*
X105703047Y-86724047D01*
X105845904Y-86724047D01*
X105941142Y-86676428D01*
X105988761Y-86581190D01*
X105988761Y-86533571D01*
X105941142Y-86438333D01*
X105845904Y-86390714D01*
X105703047Y-86390714D01*
X105607809Y-86438333D01*
X105274476Y-86390714D02*
X104893523Y-86390714D01*
X105131619Y-86057380D02*
X105131619Y-86914523D01*
X105084000Y-87009761D01*
X104988761Y-87057380D01*
X104893523Y-87057380D01*
X104560190Y-87057380D02*
X104560190Y-86390714D01*
X104560190Y-86581190D02*
X104512571Y-86485952D01*
X104464952Y-86438333D01*
X104369714Y-86390714D01*
X104274476Y-86390714D01*
X103941142Y-87057380D02*
X103941142Y-86390714D01*
X103941142Y-86057380D02*
X103988761Y-86105000D01*
X103941142Y-86152619D01*
X103893523Y-86105000D01*
X103941142Y-86057380D01*
X103941142Y-86152619D01*
X103464952Y-86390714D02*
X103464952Y-87390714D01*
X103464952Y-86438333D02*
X103369714Y-86390714D01*
X103179238Y-86390714D01*
X103084000Y-86438333D01*
X103036380Y-86485952D01*
X102988761Y-86581190D01*
X102988761Y-86866904D01*
X103036380Y-86962142D01*
X103084000Y-87009761D01*
X103179238Y-87057380D01*
X103369714Y-87057380D01*
X103464952Y-87009761D01*
X101893523Y-86057380D02*
X101226857Y-86057380D01*
X101893523Y-87057380D01*
X101226857Y-87057380D01*
X100703047Y-87057380D02*
X100798285Y-87009761D01*
X100845904Y-86962142D01*
X100893523Y-86866904D01*
X100893523Y-86581190D01*
X100845904Y-86485952D01*
X100798285Y-86438333D01*
X100703047Y-86390714D01*
X100560190Y-86390714D01*
X100464952Y-86438333D01*
X100417333Y-86485952D01*
X100369714Y-86581190D01*
X100369714Y-86866904D01*
X100417333Y-86962142D01*
X100464952Y-87009761D01*
X100560190Y-87057380D01*
X100703047Y-87057380D01*
X99941142Y-86533571D02*
X99179238Y-86533571D01*
X99179238Y-86819285D02*
X99941142Y-86819285D01*
X98226857Y-86057380D02*
X98703047Y-86057380D01*
X98750666Y-86533571D01*
X98703047Y-86485952D01*
X98607809Y-86438333D01*
X98369714Y-86438333D01*
X98274476Y-86485952D01*
X98226857Y-86533571D01*
X98179238Y-86628809D01*
X98179238Y-86866904D01*
X98226857Y-86962142D01*
X98274476Y-87009761D01*
X98369714Y-87057380D01*
X98607809Y-87057380D01*
X98703047Y-87009761D01*
X98750666Y-86962142D01*
X97560190Y-86057380D02*
X97464952Y-86057380D01*
X97369714Y-86105000D01*
X97322095Y-86152619D01*
X97274476Y-86247857D01*
X97226857Y-86438333D01*
X97226857Y-86676428D01*
X97274476Y-86866904D01*
X97322095Y-86962142D01*
X97369714Y-87009761D01*
X97464952Y-87057380D01*
X97560190Y-87057380D01*
X97655428Y-87009761D01*
X97703047Y-86962142D01*
X97750666Y-86866904D01*
X97798285Y-86676428D01*
X97798285Y-86438333D01*
X97750666Y-86247857D01*
X97703047Y-86152619D01*
X97655428Y-86105000D01*
X97560190Y-86057380D01*
X95845904Y-86057380D02*
X95655428Y-86057380D01*
X95560190Y-86105000D01*
X95464952Y-86200238D01*
X95417333Y-86390714D01*
X95417333Y-86724047D01*
X95464952Y-86914523D01*
X95560190Y-87009761D01*
X95655428Y-87057380D01*
X95845904Y-87057380D01*
X95941142Y-87009761D01*
X96036380Y-86914523D01*
X96084000Y-86724047D01*
X96084000Y-86390714D01*
X96036380Y-86200238D01*
X95941142Y-86105000D01*
X95845904Y-86057380D01*
X94988761Y-87057380D02*
X94988761Y-86057380D01*
X94560190Y-87057380D02*
X94560190Y-86533571D01*
X94607809Y-86438333D01*
X94703047Y-86390714D01*
X94845904Y-86390714D01*
X94941142Y-86438333D01*
X94988761Y-86485952D01*
X94084000Y-87057380D02*
X94084000Y-86390714D01*
X94084000Y-86485952D02*
X94036380Y-86438333D01*
X93941142Y-86390714D01*
X93798285Y-86390714D01*
X93703047Y-86438333D01*
X93655428Y-86533571D01*
X93655428Y-87057380D01*
X93655428Y-86533571D02*
X93607809Y-86438333D01*
X93512571Y-86390714D01*
X93369714Y-86390714D01*
X93274476Y-86438333D01*
X93226857Y-86533571D01*
X93226857Y-87057380D01*
X69425000Y-105750000D02*
X138400000Y-105750000D01*
X109457142Y-103739761D02*
X109314285Y-103787380D01*
X109076190Y-103787380D01*
X108980952Y-103739761D01*
X108933333Y-103692142D01*
X108885714Y-103596904D01*
X108885714Y-103501666D01*
X108933333Y-103406428D01*
X108980952Y-103358809D01*
X109076190Y-103311190D01*
X109266666Y-103263571D01*
X109361904Y-103215952D01*
X109409523Y-103168333D01*
X109457142Y-103073095D01*
X109457142Y-102977857D01*
X109409523Y-102882619D01*
X109361904Y-102835000D01*
X109266666Y-102787380D01*
X109028571Y-102787380D01*
X108885714Y-102835000D01*
X108600000Y-103120714D02*
X108219047Y-103120714D01*
X108457142Y-102787380D02*
X108457142Y-103644523D01*
X108409523Y-103739761D01*
X108314285Y-103787380D01*
X108219047Y-103787380D01*
X107885714Y-103787380D02*
X107885714Y-103120714D01*
X107885714Y-103311190D02*
X107838095Y-103215952D01*
X107790476Y-103168333D01*
X107695238Y-103120714D01*
X107600000Y-103120714D01*
X107266666Y-103787380D02*
X107266666Y-103120714D01*
X107266666Y-102787380D02*
X107314285Y-102835000D01*
X107266666Y-102882619D01*
X107219047Y-102835000D01*
X107266666Y-102787380D01*
X107266666Y-102882619D01*
X106790476Y-103120714D02*
X106790476Y-104120714D01*
X106790476Y-103168333D02*
X106695238Y-103120714D01*
X106504761Y-103120714D01*
X106409523Y-103168333D01*
X106361904Y-103215952D01*
X106314285Y-103311190D01*
X106314285Y-103596904D01*
X106361904Y-103692142D01*
X106409523Y-103739761D01*
X106504761Y-103787380D01*
X106695238Y-103787380D01*
X106790476Y-103739761D01*
X105742857Y-103787380D02*
X105838095Y-103739761D01*
X105885714Y-103644523D01*
X105885714Y-102787380D01*
X105361904Y-103787380D02*
X105361904Y-103120714D01*
X105361904Y-102787380D02*
X105409523Y-102835000D01*
X105361904Y-102882619D01*
X105314285Y-102835000D01*
X105361904Y-102787380D01*
X105361904Y-102882619D01*
X104885714Y-103120714D02*
X104885714Y-103787380D01*
X104885714Y-103215952D02*
X104838095Y-103168333D01*
X104742857Y-103120714D01*
X104600000Y-103120714D01*
X104504761Y-103168333D01*
X104457142Y-103263571D01*
X104457142Y-103787380D01*
X103600000Y-103739761D02*
X103695238Y-103787380D01*
X103885714Y-103787380D01*
X103980952Y-103739761D01*
X104028571Y-103644523D01*
X104028571Y-103263571D01*
X103980952Y-103168333D01*
X103885714Y-103120714D01*
X103695238Y-103120714D01*
X103600000Y-103168333D01*
X103552380Y-103263571D01*
X103552380Y-103358809D01*
X104028571Y-103454047D01*
X102457142Y-102787380D02*
X101790476Y-102787380D01*
X102457142Y-103787380D01*
X101790476Y-103787380D01*
X101266666Y-103787380D02*
X101361904Y-103739761D01*
X101409523Y-103692142D01*
X101457142Y-103596904D01*
X101457142Y-103311190D01*
X101409523Y-103215952D01*
X101361904Y-103168333D01*
X101266666Y-103120714D01*
X101123809Y-103120714D01*
X101028571Y-103168333D01*
X100980952Y-103215952D01*
X100933333Y-103311190D01*
X100933333Y-103596904D01*
X100980952Y-103692142D01*
X101028571Y-103739761D01*
X101123809Y-103787380D01*
X101266666Y-103787380D01*
X100504761Y-103263571D02*
X99742857Y-103263571D01*
X99742857Y-103549285D02*
X100504761Y-103549285D01*
X98790476Y-102787380D02*
X99266666Y-102787380D01*
X99314285Y-103263571D01*
X99266666Y-103215952D01*
X99171428Y-103168333D01*
X98933333Y-103168333D01*
X98838095Y-103215952D01*
X98790476Y-103263571D01*
X98742857Y-103358809D01*
X98742857Y-103596904D01*
X98790476Y-103692142D01*
X98838095Y-103739761D01*
X98933333Y-103787380D01*
X99171428Y-103787380D01*
X99266666Y-103739761D01*
X99314285Y-103692142D01*
X98123809Y-102787380D02*
X98028571Y-102787380D01*
X97933333Y-102835000D01*
X97885714Y-102882619D01*
X97838095Y-102977857D01*
X97790476Y-103168333D01*
X97790476Y-103406428D01*
X97838095Y-103596904D01*
X97885714Y-103692142D01*
X97933333Y-103739761D01*
X98028571Y-103787380D01*
X98123809Y-103787380D01*
X98219047Y-103739761D01*
X98266666Y-103692142D01*
X98314285Y-103596904D01*
X98361904Y-103406428D01*
X98361904Y-103168333D01*
X98314285Y-102977857D01*
X98266666Y-102882619D01*
X98219047Y-102835000D01*
X98123809Y-102787380D01*
X96409523Y-102787380D02*
X96219047Y-102787380D01*
X96123809Y-102835000D01*
X96028571Y-102930238D01*
X95980952Y-103120714D01*
X95980952Y-103454047D01*
X96028571Y-103644523D01*
X96123809Y-103739761D01*
X96219047Y-103787380D01*
X96409523Y-103787380D01*
X96504761Y-103739761D01*
X96600000Y-103644523D01*
X96647619Y-103454047D01*
X96647619Y-103120714D01*
X96600000Y-102930238D01*
X96504761Y-102835000D01*
X96409523Y-102787380D01*
X95552380Y-103787380D02*
X95552380Y-102787380D01*
X95123809Y-103787380D02*
X95123809Y-103263571D01*
X95171428Y-103168333D01*
X95266666Y-103120714D01*
X95409523Y-103120714D01*
X95504761Y-103168333D01*
X95552380Y-103215952D01*
X94647619Y-103787380D02*
X94647619Y-103120714D01*
X94647619Y-103215952D02*
X94600000Y-103168333D01*
X94504761Y-103120714D01*
X94361904Y-103120714D01*
X94266666Y-103168333D01*
X94219047Y-103263571D01*
X94219047Y-103787380D01*
X94219047Y-103263571D02*
X94171428Y-103168333D01*
X94076190Y-103120714D01*
X93933333Y-103120714D01*
X93838095Y-103168333D01*
X93790476Y-103263571D01*
X93790476Y-103787380D01*
X114433333Y-104397380D02*
X114909523Y-104397380D01*
X114957142Y-104873571D01*
X114909523Y-104825952D01*
X114814285Y-104778333D01*
X114576190Y-104778333D01*
X114480952Y-104825952D01*
X114433333Y-104873571D01*
X114385714Y-104968809D01*
X114385714Y-105206904D01*
X114433333Y-105302142D01*
X114480952Y-105349761D01*
X114576190Y-105397380D01*
X114814285Y-105397380D01*
X114909523Y-105349761D01*
X114957142Y-105302142D01*
X113766666Y-104397380D02*
X113671428Y-104397380D01*
X113576190Y-104445000D01*
X113528571Y-104492619D01*
X113480952Y-104587857D01*
X113433333Y-104778333D01*
X113433333Y-105016428D01*
X113480952Y-105206904D01*
X113528571Y-105302142D01*
X113576190Y-105349761D01*
X113671428Y-105397380D01*
X113766666Y-105397380D01*
X113861904Y-105349761D01*
X113909523Y-105302142D01*
X113957142Y-105206904D01*
X114004761Y-105016428D01*
X114004761Y-104778333D01*
X113957142Y-104587857D01*
X113909523Y-104492619D01*
X113861904Y-104445000D01*
X113766666Y-104397380D01*
X112052380Y-104397380D02*
X111861904Y-104397380D01*
X111766666Y-104445000D01*
X111671428Y-104540238D01*
X111623809Y-104730714D01*
X111623809Y-105064047D01*
X111671428Y-105254523D01*
X111766666Y-105349761D01*
X111861904Y-105397380D01*
X112052380Y-105397380D01*
X112147619Y-105349761D01*
X112242857Y-105254523D01*
X112290476Y-105064047D01*
X112290476Y-104730714D01*
X112242857Y-104540238D01*
X112147619Y-104445000D01*
X112052380Y-104397380D01*
X111195238Y-105397380D02*
X111195238Y-104397380D01*
X110766666Y-105397380D02*
X110766666Y-104873571D01*
X110814285Y-104778333D01*
X110909523Y-104730714D01*
X111052380Y-104730714D01*
X111147619Y-104778333D01*
X111195238Y-104825952D01*
X110290476Y-105397380D02*
X110290476Y-104730714D01*
X110290476Y-104825952D02*
X110242857Y-104778333D01*
X110147619Y-104730714D01*
X110004761Y-104730714D01*
X109909523Y-104778333D01*
X109861904Y-104873571D01*
X109861904Y-105397380D01*
X109861904Y-104873571D02*
X109814285Y-104778333D01*
X109719047Y-104730714D01*
X109576190Y-104730714D01*
X109480952Y-104778333D01*
X109433333Y-104873571D01*
X109433333Y-105397380D01*
X108338095Y-104397380D02*
X108004761Y-105397380D01*
X107671428Y-104397380D01*
X107338095Y-105397380D02*
X107338095Y-104730714D01*
X107338095Y-104397380D02*
X107385714Y-104445000D01*
X107338095Y-104492619D01*
X107290476Y-104445000D01*
X107338095Y-104397380D01*
X107338095Y-104492619D01*
X106433333Y-105397380D02*
X106433333Y-104873571D01*
X106480952Y-104778333D01*
X106576190Y-104730714D01*
X106766666Y-104730714D01*
X106861904Y-104778333D01*
X106433333Y-105349761D02*
X106528571Y-105397380D01*
X106766666Y-105397380D01*
X106861904Y-105349761D01*
X106909523Y-105254523D01*
X106909523Y-105159285D01*
X106861904Y-105064047D01*
X106766666Y-105016428D01*
X106528571Y-105016428D01*
X106433333Y-104968809D01*
X105338095Y-104730714D02*
X104957142Y-104730714D01*
X105195238Y-104397380D02*
X105195238Y-105254523D01*
X105147619Y-105349761D01*
X105052380Y-105397380D01*
X104957142Y-105397380D01*
X104480952Y-105397380D02*
X104576190Y-105349761D01*
X104623809Y-105302142D01*
X104671428Y-105206904D01*
X104671428Y-104921190D01*
X104623809Y-104825952D01*
X104576190Y-104778333D01*
X104480952Y-104730714D01*
X104338095Y-104730714D01*
X104242857Y-104778333D01*
X104195238Y-104825952D01*
X104147619Y-104921190D01*
X104147619Y-105206904D01*
X104195238Y-105302142D01*
X104242857Y-105349761D01*
X104338095Y-105397380D01*
X104480952Y-105397380D01*
X102385714Y-105302142D02*
X102433333Y-105349761D01*
X102576190Y-105397380D01*
X102671428Y-105397380D01*
X102814285Y-105349761D01*
X102909523Y-105254523D01*
X102957142Y-105159285D01*
X103004761Y-104968809D01*
X103004761Y-104825952D01*
X102957142Y-104635476D01*
X102909523Y-104540238D01*
X102814285Y-104445000D01*
X102671428Y-104397380D01*
X102576190Y-104397380D01*
X102433333Y-104445000D01*
X102385714Y-104492619D01*
X101814285Y-105397380D02*
X101909523Y-105349761D01*
X101957142Y-105302142D01*
X102004761Y-105206904D01*
X102004761Y-104921190D01*
X101957142Y-104825952D01*
X101909523Y-104778333D01*
X101814285Y-104730714D01*
X101671428Y-104730714D01*
X101576190Y-104778333D01*
X101528571Y-104825952D01*
X101480952Y-104921190D01*
X101480952Y-105206904D01*
X101528571Y-105302142D01*
X101576190Y-105349761D01*
X101671428Y-105397380D01*
X101814285Y-105397380D01*
X101052380Y-104730714D02*
X101052380Y-105730714D01*
X101052380Y-104778333D02*
X100957142Y-104730714D01*
X100766666Y-104730714D01*
X100671428Y-104778333D01*
X100623809Y-104825952D01*
X100576190Y-104921190D01*
X100576190Y-105206904D01*
X100623809Y-105302142D01*
X100671428Y-105349761D01*
X100766666Y-105397380D01*
X100957142Y-105397380D01*
X101052380Y-105349761D01*
X100004761Y-105397380D02*
X100100000Y-105349761D01*
X100147619Y-105254523D01*
X100147619Y-104397380D01*
X99195238Y-105397380D02*
X99195238Y-104873571D01*
X99242857Y-104778333D01*
X99338095Y-104730714D01*
X99528571Y-104730714D01*
X99623809Y-104778333D01*
X99195238Y-105349761D02*
X99290476Y-105397380D01*
X99528571Y-105397380D01*
X99623809Y-105349761D01*
X99671428Y-105254523D01*
X99671428Y-105159285D01*
X99623809Y-105064047D01*
X99528571Y-105016428D01*
X99290476Y-105016428D01*
X99195238Y-104968809D01*
X98719047Y-104730714D02*
X98719047Y-105397380D01*
X98719047Y-104825952D02*
X98671428Y-104778333D01*
X98576190Y-104730714D01*
X98433333Y-104730714D01*
X98338095Y-104778333D01*
X98290476Y-104873571D01*
X98290476Y-105397380D01*
X97385714Y-105397380D02*
X97385714Y-104873571D01*
X97433333Y-104778333D01*
X97528571Y-104730714D01*
X97719047Y-104730714D01*
X97814285Y-104778333D01*
X97385714Y-105349761D02*
X97480952Y-105397380D01*
X97719047Y-105397380D01*
X97814285Y-105349761D01*
X97861904Y-105254523D01*
X97861904Y-105159285D01*
X97814285Y-105064047D01*
X97719047Y-105016428D01*
X97480952Y-105016428D01*
X97385714Y-104968809D01*
X96909523Y-105397380D02*
X96909523Y-104730714D01*
X96909523Y-104921190D02*
X96861904Y-104825952D01*
X96814285Y-104778333D01*
X96719047Y-104730714D01*
X96623809Y-104730714D01*
X95623809Y-104397380D02*
X95385714Y-105397380D01*
X95195238Y-104683095D01*
X95004761Y-105397380D01*
X94766666Y-104397380D01*
X93957142Y-105397380D02*
X93957142Y-104873571D01*
X94004761Y-104778333D01*
X94100000Y-104730714D01*
X94290476Y-104730714D01*
X94385714Y-104778333D01*
X93957142Y-105349761D02*
X94052380Y-105397380D01*
X94290476Y-105397380D01*
X94385714Y-105349761D01*
X94433333Y-105254523D01*
X94433333Y-105159285D01*
X94385714Y-105064047D01*
X94290476Y-105016428D01*
X94052380Y-105016428D01*
X93957142Y-104968809D01*
X93576190Y-104730714D02*
X93338095Y-105397380D01*
X93100000Y-104730714D01*
X92338095Y-105349761D02*
X92433333Y-105397380D01*
X92623809Y-105397380D01*
X92719047Y-105349761D01*
X92766666Y-105254523D01*
X92766666Y-104873571D01*
X92719047Y-104778333D01*
X92623809Y-104730714D01*
X92433333Y-104730714D01*
X92338095Y-104778333D01*
X92290476Y-104873571D01*
X92290476Y-104968809D01*
X92766666Y-105064047D01*
X91433333Y-104730714D02*
X91433333Y-105540238D01*
X91480952Y-105635476D01*
X91528571Y-105683095D01*
X91623809Y-105730714D01*
X91766666Y-105730714D01*
X91861904Y-105683095D01*
X91433333Y-105349761D02*
X91528571Y-105397380D01*
X91719047Y-105397380D01*
X91814285Y-105349761D01*
X91861904Y-105302142D01*
X91909523Y-105206904D01*
X91909523Y-104921190D01*
X91861904Y-104825952D01*
X91814285Y-104778333D01*
X91719047Y-104730714D01*
X91528571Y-104730714D01*
X91433333Y-104778333D01*
X90528571Y-104730714D02*
X90528571Y-105397380D01*
X90957142Y-104730714D02*
X90957142Y-105254523D01*
X90909523Y-105349761D01*
X90814285Y-105397380D01*
X90671428Y-105397380D01*
X90576190Y-105349761D01*
X90528571Y-105302142D01*
X90052380Y-105397380D02*
X90052380Y-104730714D01*
X90052380Y-104397380D02*
X90100000Y-104445000D01*
X90052380Y-104492619D01*
X90004761Y-104445000D01*
X90052380Y-104397380D01*
X90052380Y-104492619D01*
X89147619Y-105397380D02*
X89147619Y-104397380D01*
X89147619Y-105349761D02*
X89242857Y-105397380D01*
X89433333Y-105397380D01*
X89528571Y-105349761D01*
X89576190Y-105302142D01*
X89623809Y-105206904D01*
X89623809Y-104921190D01*
X89576190Y-104825952D01*
X89528571Y-104778333D01*
X89433333Y-104730714D01*
X89242857Y-104730714D01*
X89147619Y-104778333D01*
X88290476Y-105349761D02*
X88385714Y-105397380D01*
X88576190Y-105397380D01*
X88671428Y-105349761D01*
X88719047Y-105254523D01*
X88719047Y-104873571D01*
X88671428Y-104778333D01*
X88576190Y-104730714D01*
X88385714Y-104730714D01*
X88290476Y-104778333D01*
X88242857Y-104873571D01*
X88242857Y-104968809D01*
X88719047Y-105064047D01*
X113266666Y-119737142D02*
X113314285Y-119784761D01*
X113457142Y-119832380D01*
X113552380Y-119832380D01*
X113695238Y-119784761D01*
X113790476Y-119689523D01*
X113838095Y-119594285D01*
X113885714Y-119403809D01*
X113885714Y-119260952D01*
X113838095Y-119070476D01*
X113790476Y-118975238D01*
X113695238Y-118880000D01*
X113552380Y-118832380D01*
X113457142Y-118832380D01*
X113314285Y-118880000D01*
X113266666Y-118927619D01*
X112695238Y-119832380D02*
X112790476Y-119784761D01*
X112838095Y-119737142D01*
X112885714Y-119641904D01*
X112885714Y-119356190D01*
X112838095Y-119260952D01*
X112790476Y-119213333D01*
X112695238Y-119165714D01*
X112552380Y-119165714D01*
X112457142Y-119213333D01*
X112409523Y-119260952D01*
X112361904Y-119356190D01*
X112361904Y-119641904D01*
X112409523Y-119737142D01*
X112457142Y-119784761D01*
X112552380Y-119832380D01*
X112695238Y-119832380D01*
X111933333Y-119165714D02*
X111933333Y-120165714D01*
X111933333Y-119213333D02*
X111838095Y-119165714D01*
X111647619Y-119165714D01*
X111552380Y-119213333D01*
X111504761Y-119260952D01*
X111457142Y-119356190D01*
X111457142Y-119641904D01*
X111504761Y-119737142D01*
X111552380Y-119784761D01*
X111647619Y-119832380D01*
X111838095Y-119832380D01*
X111933333Y-119784761D01*
X110885714Y-119832380D02*
X110980952Y-119784761D01*
X111028571Y-119689523D01*
X111028571Y-118832380D01*
X110076190Y-119832380D02*
X110076190Y-119308571D01*
X110123809Y-119213333D01*
X110219047Y-119165714D01*
X110409523Y-119165714D01*
X110504761Y-119213333D01*
X110076190Y-119784761D02*
X110171428Y-119832380D01*
X110409523Y-119832380D01*
X110504761Y-119784761D01*
X110552380Y-119689523D01*
X110552380Y-119594285D01*
X110504761Y-119499047D01*
X110409523Y-119451428D01*
X110171428Y-119451428D01*
X110076190Y-119403809D01*
X109600000Y-119165714D02*
X109600000Y-119832380D01*
X109600000Y-119260952D02*
X109552380Y-119213333D01*
X109457142Y-119165714D01*
X109314285Y-119165714D01*
X109219047Y-119213333D01*
X109171428Y-119308571D01*
X109171428Y-119832380D01*
X108266666Y-119832380D02*
X108266666Y-119308571D01*
X108314285Y-119213333D01*
X108409523Y-119165714D01*
X108600000Y-119165714D01*
X108695238Y-119213333D01*
X108266666Y-119784761D02*
X108361904Y-119832380D01*
X108600000Y-119832380D01*
X108695238Y-119784761D01*
X108742857Y-119689523D01*
X108742857Y-119594285D01*
X108695238Y-119499047D01*
X108600000Y-119451428D01*
X108361904Y-119451428D01*
X108266666Y-119403809D01*
X107790476Y-119832380D02*
X107790476Y-119165714D01*
X107790476Y-119356190D02*
X107742857Y-119260952D01*
X107695238Y-119213333D01*
X107600000Y-119165714D01*
X107504761Y-119165714D01*
X106504761Y-118832380D02*
X106266666Y-119832380D01*
X106076190Y-119118095D01*
X105885714Y-119832380D01*
X105647619Y-118832380D01*
X104838095Y-119832380D02*
X104838095Y-119308571D01*
X104885714Y-119213333D01*
X104980952Y-119165714D01*
X105171428Y-119165714D01*
X105266666Y-119213333D01*
X104838095Y-119784761D02*
X104933333Y-119832380D01*
X105171428Y-119832380D01*
X105266666Y-119784761D01*
X105314285Y-119689523D01*
X105314285Y-119594285D01*
X105266666Y-119499047D01*
X105171428Y-119451428D01*
X104933333Y-119451428D01*
X104838095Y-119403809D01*
X104457142Y-119165714D02*
X104219047Y-119832380D01*
X103980952Y-119165714D01*
X103219047Y-119784761D02*
X103314285Y-119832380D01*
X103504761Y-119832380D01*
X103600000Y-119784761D01*
X103647619Y-119689523D01*
X103647619Y-119308571D01*
X103600000Y-119213333D01*
X103504761Y-119165714D01*
X103314285Y-119165714D01*
X103219047Y-119213333D01*
X103171428Y-119308571D01*
X103171428Y-119403809D01*
X103647619Y-119499047D01*
X102314285Y-119165714D02*
X102314285Y-119975238D01*
X102361904Y-120070476D01*
X102409523Y-120118095D01*
X102504761Y-120165714D01*
X102647619Y-120165714D01*
X102742857Y-120118095D01*
X102314285Y-119784761D02*
X102409523Y-119832380D01*
X102600000Y-119832380D01*
X102695238Y-119784761D01*
X102742857Y-119737142D01*
X102790476Y-119641904D01*
X102790476Y-119356190D01*
X102742857Y-119260952D01*
X102695238Y-119213333D01*
X102600000Y-119165714D01*
X102409523Y-119165714D01*
X102314285Y-119213333D01*
X101409523Y-119165714D02*
X101409523Y-119832380D01*
X101838095Y-119165714D02*
X101838095Y-119689523D01*
X101790476Y-119784761D01*
X101695238Y-119832380D01*
X101552380Y-119832380D01*
X101457142Y-119784761D01*
X101409523Y-119737142D01*
X100933333Y-119832380D02*
X100933333Y-119165714D01*
X100933333Y-118832380D02*
X100980952Y-118880000D01*
X100933333Y-118927619D01*
X100885714Y-118880000D01*
X100933333Y-118832380D01*
X100933333Y-118927619D01*
X100028571Y-119832380D02*
X100028571Y-118832380D01*
X100028571Y-119784761D02*
X100123809Y-119832380D01*
X100314285Y-119832380D01*
X100409523Y-119784761D01*
X100457142Y-119737142D01*
X100504761Y-119641904D01*
X100504761Y-119356190D01*
X100457142Y-119260952D01*
X100409523Y-119213333D01*
X100314285Y-119165714D01*
X100123809Y-119165714D01*
X100028571Y-119213333D01*
X99171428Y-119784761D02*
X99266666Y-119832380D01*
X99457142Y-119832380D01*
X99552380Y-119784761D01*
X99600000Y-119689523D01*
X99600000Y-119308571D01*
X99552380Y-119213333D01*
X99457142Y-119165714D01*
X99266666Y-119165714D01*
X99171428Y-119213333D01*
X99123809Y-119308571D01*
X99123809Y-119403809D01*
X99600000Y-119499047D01*
X98028571Y-118832380D02*
X97361904Y-118832380D01*
X98028571Y-119832380D01*
X97361904Y-119832380D01*
X96838095Y-119832380D02*
X96933333Y-119784761D01*
X96980952Y-119737142D01*
X97028571Y-119641904D01*
X97028571Y-119356190D01*
X96980952Y-119260952D01*
X96933333Y-119213333D01*
X96838095Y-119165714D01*
X96695238Y-119165714D01*
X96600000Y-119213333D01*
X96552380Y-119260952D01*
X96504761Y-119356190D01*
X96504761Y-119641904D01*
X96552380Y-119737142D01*
X96600000Y-119784761D01*
X96695238Y-119832380D01*
X96838095Y-119832380D01*
X96076190Y-119308571D02*
X95314285Y-119308571D01*
X95314285Y-119594285D02*
X96076190Y-119594285D01*
X94361904Y-118832380D02*
X94838095Y-118832380D01*
X94885714Y-119308571D01*
X94838095Y-119260952D01*
X94742857Y-119213333D01*
X94504761Y-119213333D01*
X94409523Y-119260952D01*
X94361904Y-119308571D01*
X94314285Y-119403809D01*
X94314285Y-119641904D01*
X94361904Y-119737142D01*
X94409523Y-119784761D01*
X94504761Y-119832380D01*
X94742857Y-119832380D01*
X94838095Y-119784761D01*
X94885714Y-119737142D01*
X93695238Y-118832380D02*
X93600000Y-118832380D01*
X93504761Y-118880000D01*
X93457142Y-118927619D01*
X93409523Y-119022857D01*
X93361904Y-119213333D01*
X93361904Y-119451428D01*
X93409523Y-119641904D01*
X93457142Y-119737142D01*
X93504761Y-119784761D01*
X93600000Y-119832380D01*
X93695238Y-119832380D01*
X93790476Y-119784761D01*
X93838095Y-119737142D01*
X93885714Y-119641904D01*
X93933333Y-119451428D01*
X93933333Y-119213333D01*
X93885714Y-119022857D01*
X93838095Y-118927619D01*
X93790476Y-118880000D01*
X93695238Y-118832380D01*
X91980952Y-118832380D02*
X91790476Y-118832380D01*
X91695238Y-118880000D01*
X91600000Y-118975238D01*
X91552380Y-119165714D01*
X91552380Y-119499047D01*
X91600000Y-119689523D01*
X91695238Y-119784761D01*
X91790476Y-119832380D01*
X91980952Y-119832380D01*
X92076190Y-119784761D01*
X92171428Y-119689523D01*
X92219047Y-119499047D01*
X92219047Y-119165714D01*
X92171428Y-118975238D01*
X92076190Y-118880000D01*
X91980952Y-118832380D01*
X91123809Y-119832380D02*
X91123809Y-118832380D01*
X90695238Y-119832380D02*
X90695238Y-119308571D01*
X90742857Y-119213333D01*
X90838095Y-119165714D01*
X90980952Y-119165714D01*
X91076190Y-119213333D01*
X91123809Y-119260952D01*
X90219047Y-119832380D02*
X90219047Y-119165714D01*
X90219047Y-119260952D02*
X90171428Y-119213333D01*
X90076190Y-119165714D01*
X89933333Y-119165714D01*
X89838095Y-119213333D01*
X89790476Y-119308571D01*
X89790476Y-119832380D01*
X89790476Y-119308571D02*
X89742857Y-119213333D01*
X89647619Y-119165714D01*
X89504761Y-119165714D01*
X89409523Y-119213333D01*
X89361904Y-119308571D01*
X89361904Y-119832380D01*
X122379011Y-145942042D02*
X122426630Y-145989661D01*
X122569488Y-146037280D01*
X122664726Y-146037280D01*
X122807583Y-145989661D01*
X122902821Y-145894423D01*
X122950440Y-145799185D01*
X122998059Y-145608709D01*
X122998059Y-145465852D01*
X122950440Y-145275376D01*
X122902821Y-145180138D01*
X122807583Y-145084900D01*
X122664726Y-145037280D01*
X122569488Y-145037280D01*
X122426630Y-145084900D01*
X122379011Y-145132519D01*
X121807583Y-146037280D02*
X121902821Y-145989661D01*
X121950440Y-145942042D01*
X121998059Y-145846804D01*
X121998059Y-145561090D01*
X121950440Y-145465852D01*
X121902821Y-145418233D01*
X121807583Y-145370614D01*
X121664726Y-145370614D01*
X121569488Y-145418233D01*
X121521869Y-145465852D01*
X121474250Y-145561090D01*
X121474250Y-145846804D01*
X121521869Y-145942042D01*
X121569488Y-145989661D01*
X121664726Y-146037280D01*
X121807583Y-146037280D01*
X121045678Y-145370614D02*
X121045678Y-146370614D01*
X121045678Y-145418233D02*
X120950440Y-145370614D01*
X120759964Y-145370614D01*
X120664726Y-145418233D01*
X120617107Y-145465852D01*
X120569488Y-145561090D01*
X120569488Y-145846804D01*
X120617107Y-145942042D01*
X120664726Y-145989661D01*
X120759964Y-146037280D01*
X120950440Y-146037280D01*
X121045678Y-145989661D01*
X119998059Y-146037280D02*
X120093297Y-145989661D01*
X120140916Y-145894423D01*
X120140916Y-145037280D01*
X119188535Y-146037280D02*
X119188535Y-145513471D01*
X119236154Y-145418233D01*
X119331392Y-145370614D01*
X119521869Y-145370614D01*
X119617107Y-145418233D01*
X119188535Y-145989661D02*
X119283773Y-146037280D01*
X119521869Y-146037280D01*
X119617107Y-145989661D01*
X119664726Y-145894423D01*
X119664726Y-145799185D01*
X119617107Y-145703947D01*
X119521869Y-145656328D01*
X119283773Y-145656328D01*
X119188535Y-145608709D01*
X118712345Y-145370614D02*
X118712345Y-146037280D01*
X118712345Y-145465852D02*
X118664726Y-145418233D01*
X118569488Y-145370614D01*
X118426630Y-145370614D01*
X118331392Y-145418233D01*
X118283773Y-145513471D01*
X118283773Y-146037280D01*
X117379011Y-146037280D02*
X117379011Y-145513471D01*
X117426630Y-145418233D01*
X117521869Y-145370614D01*
X117712345Y-145370614D01*
X117807583Y-145418233D01*
X117379011Y-145989661D02*
X117474250Y-146037280D01*
X117712345Y-146037280D01*
X117807583Y-145989661D01*
X117855202Y-145894423D01*
X117855202Y-145799185D01*
X117807583Y-145703947D01*
X117712345Y-145656328D01*
X117474250Y-145656328D01*
X117379011Y-145608709D01*
X116902821Y-146037280D02*
X116902821Y-145370614D01*
X116902821Y-145561090D02*
X116855202Y-145465852D01*
X116807583Y-145418233D01*
X116712345Y-145370614D01*
X116617107Y-145370614D01*
X115617107Y-145037280D02*
X115379011Y-146037280D01*
X115188535Y-145322995D01*
X114998059Y-146037280D01*
X114759964Y-145037280D01*
X113950440Y-146037280D02*
X113950440Y-145513471D01*
X113998059Y-145418233D01*
X114093297Y-145370614D01*
X114283773Y-145370614D01*
X114379011Y-145418233D01*
X113950440Y-145989661D02*
X114045678Y-146037280D01*
X114283773Y-146037280D01*
X114379011Y-145989661D01*
X114426630Y-145894423D01*
X114426630Y-145799185D01*
X114379011Y-145703947D01*
X114283773Y-145656328D01*
X114045678Y-145656328D01*
X113950440Y-145608709D01*
X113569488Y-145370614D02*
X113331392Y-146037280D01*
X113093297Y-145370614D01*
X112331392Y-145989661D02*
X112426630Y-146037280D01*
X112617107Y-146037280D01*
X112712345Y-145989661D01*
X112759964Y-145894423D01*
X112759964Y-145513471D01*
X112712345Y-145418233D01*
X112617107Y-145370614D01*
X112426630Y-145370614D01*
X112331392Y-145418233D01*
X112283773Y-145513471D01*
X112283773Y-145608709D01*
X112759964Y-145703947D01*
X111426630Y-145370614D02*
X111426630Y-146180138D01*
X111474250Y-146275376D01*
X111521869Y-146322995D01*
X111617107Y-146370614D01*
X111759964Y-146370614D01*
X111855202Y-146322995D01*
X111426630Y-145989661D02*
X111521869Y-146037280D01*
X111712345Y-146037280D01*
X111807583Y-145989661D01*
X111855202Y-145942042D01*
X111902821Y-145846804D01*
X111902821Y-145561090D01*
X111855202Y-145465852D01*
X111807583Y-145418233D01*
X111712345Y-145370614D01*
X111521869Y-145370614D01*
X111426630Y-145418233D01*
X110521869Y-145370614D02*
X110521869Y-146037280D01*
X110950440Y-145370614D02*
X110950440Y-145894423D01*
X110902821Y-145989661D01*
X110807583Y-146037280D01*
X110664726Y-146037280D01*
X110569488Y-145989661D01*
X110521869Y-145942042D01*
X110045678Y-146037280D02*
X110045678Y-145370614D01*
X110045678Y-145037280D02*
X110093297Y-145084900D01*
X110045678Y-145132519D01*
X109998059Y-145084900D01*
X110045678Y-145037280D01*
X110045678Y-145132519D01*
X109140916Y-146037280D02*
X109140916Y-145037280D01*
X109140916Y-145989661D02*
X109236154Y-146037280D01*
X109426630Y-146037280D01*
X109521869Y-145989661D01*
X109569488Y-145942042D01*
X109617107Y-145846804D01*
X109617107Y-145561090D01*
X109569488Y-145465852D01*
X109521869Y-145418233D01*
X109426630Y-145370614D01*
X109236154Y-145370614D01*
X109140916Y-145418233D01*
X108283773Y-145989661D02*
X108379011Y-146037280D01*
X108569488Y-146037280D01*
X108664726Y-145989661D01*
X108712345Y-145894423D01*
X108712345Y-145513471D01*
X108664726Y-145418233D01*
X108569488Y-145370614D01*
X108379011Y-145370614D01*
X108283773Y-145418233D01*
X108236154Y-145513471D01*
X108236154Y-145608709D01*
X108712345Y-145703947D01*
X107045678Y-146037280D02*
X107045678Y-145037280D01*
X106807583Y-145037280D01*
X106664726Y-145084900D01*
X106569488Y-145180138D01*
X106521869Y-145275376D01*
X106474250Y-145465852D01*
X106474250Y-145608709D01*
X106521869Y-145799185D01*
X106569488Y-145894423D01*
X106664726Y-145989661D01*
X106807583Y-146037280D01*
X107045678Y-146037280D01*
X106045678Y-146037280D02*
X106045678Y-145370614D01*
X106045678Y-145037280D02*
X106093297Y-145084900D01*
X106045678Y-145132519D01*
X105998059Y-145084900D01*
X106045678Y-145037280D01*
X106045678Y-145132519D01*
X105712345Y-145370614D02*
X105331392Y-145370614D01*
X105569488Y-146037280D02*
X105569488Y-145180138D01*
X105521869Y-145084900D01*
X105426630Y-145037280D01*
X105331392Y-145037280D01*
X105140916Y-145370614D02*
X104759964Y-145370614D01*
X104998059Y-146037280D02*
X104998059Y-145180138D01*
X104950440Y-145084900D01*
X104855202Y-145037280D01*
X104759964Y-145037280D01*
X104045678Y-145989661D02*
X104140916Y-146037280D01*
X104331392Y-146037280D01*
X104426630Y-145989661D01*
X104474250Y-145894423D01*
X104474250Y-145513471D01*
X104426630Y-145418233D01*
X104331392Y-145370614D01*
X104140916Y-145370614D01*
X104045678Y-145418233D01*
X103998059Y-145513471D01*
X103998059Y-145608709D01*
X104474250Y-145703947D01*
X103569488Y-146037280D02*
X103569488Y-145370614D01*
X103569488Y-145561090D02*
X103521869Y-145465852D01*
X103474250Y-145418233D01*
X103379011Y-145370614D01*
X103283773Y-145370614D01*
X102569488Y-145989661D02*
X102664726Y-146037280D01*
X102855202Y-146037280D01*
X102950440Y-145989661D01*
X102998059Y-145894423D01*
X102998059Y-145513471D01*
X102950440Y-145418233D01*
X102855202Y-145370614D01*
X102664726Y-145370614D01*
X102569488Y-145418233D01*
X102521869Y-145513471D01*
X102521869Y-145608709D01*
X102998059Y-145703947D01*
X102093297Y-145370614D02*
X102093297Y-146037280D01*
X102093297Y-145465852D02*
X102045678Y-145418233D01*
X101950440Y-145370614D01*
X101807583Y-145370614D01*
X101712345Y-145418233D01*
X101664726Y-145513471D01*
X101664726Y-146037280D01*
X101331392Y-145370614D02*
X100950440Y-145370614D01*
X101188535Y-145037280D02*
X101188535Y-145894423D01*
X101140916Y-145989661D01*
X101045678Y-146037280D01*
X100950440Y-146037280D01*
X100617107Y-146037280D02*
X100617107Y-145370614D01*
X100617107Y-145037280D02*
X100664726Y-145084900D01*
X100617107Y-145132519D01*
X100569488Y-145084900D01*
X100617107Y-145037280D01*
X100617107Y-145132519D01*
X99712345Y-146037280D02*
X99712345Y-145513471D01*
X99759964Y-145418233D01*
X99855202Y-145370614D01*
X100045678Y-145370614D01*
X100140916Y-145418233D01*
X99712345Y-145989661D02*
X99807583Y-146037280D01*
X100045678Y-146037280D01*
X100140916Y-145989661D01*
X100188535Y-145894423D01*
X100188535Y-145799185D01*
X100140916Y-145703947D01*
X100045678Y-145656328D01*
X99807583Y-145656328D01*
X99712345Y-145608709D01*
X99093297Y-146037280D02*
X99188535Y-145989661D01*
X99236154Y-145894423D01*
X99236154Y-145037280D01*
X98045678Y-145037280D02*
X97379011Y-145037280D01*
X98045678Y-146037280D01*
X97379011Y-146037280D01*
X96855202Y-146037280D02*
X96950440Y-145989661D01*
X96998059Y-145942042D01*
X97045678Y-145846804D01*
X97045678Y-145561090D01*
X96998059Y-145465852D01*
X96950440Y-145418233D01*
X96855202Y-145370614D01*
X96712345Y-145370614D01*
X96617107Y-145418233D01*
X96569488Y-145465852D01*
X96521869Y-145561090D01*
X96521869Y-145846804D01*
X96569488Y-145942042D01*
X96617107Y-145989661D01*
X96712345Y-146037280D01*
X96855202Y-146037280D01*
X96093297Y-145513471D02*
X95331392Y-145513471D01*
X95331392Y-145799185D02*
X96093297Y-145799185D01*
X94379011Y-145037280D02*
X94855202Y-145037280D01*
X94902821Y-145513471D01*
X94855202Y-145465852D01*
X94759964Y-145418233D01*
X94521869Y-145418233D01*
X94426630Y-145465852D01*
X94379011Y-145513471D01*
X94331392Y-145608709D01*
X94331392Y-145846804D01*
X94379011Y-145942042D01*
X94426630Y-145989661D01*
X94521869Y-146037280D01*
X94759964Y-146037280D01*
X94855202Y-145989661D01*
X94902821Y-145942042D01*
X93712345Y-145037280D02*
X93617107Y-145037280D01*
X93521869Y-145084900D01*
X93474250Y-145132519D01*
X93426630Y-145227757D01*
X93379011Y-145418233D01*
X93379011Y-145656328D01*
X93426630Y-145846804D01*
X93474250Y-145942042D01*
X93521869Y-145989661D01*
X93617107Y-146037280D01*
X93712345Y-146037280D01*
X93807583Y-145989661D01*
X93855202Y-145942042D01*
X93902821Y-145846804D01*
X93950440Y-145656328D01*
X93950440Y-145418233D01*
X93902821Y-145227757D01*
X93855202Y-145132519D01*
X93807583Y-145084900D01*
X93712345Y-145037280D01*
X91998059Y-145037280D02*
X91807583Y-145037280D01*
X91712345Y-145084900D01*
X91617107Y-145180138D01*
X91569488Y-145370614D01*
X91569488Y-145703947D01*
X91617107Y-145894423D01*
X91712345Y-145989661D01*
X91807583Y-146037280D01*
X91998059Y-146037280D01*
X92093297Y-145989661D01*
X92188535Y-145894423D01*
X92236154Y-145703947D01*
X92236154Y-145370614D01*
X92188535Y-145180138D01*
X92093297Y-145084900D01*
X91998059Y-145037280D01*
X91140916Y-146037280D02*
X91140916Y-145037280D01*
X90712345Y-146037280D02*
X90712345Y-145513471D01*
X90759964Y-145418233D01*
X90855202Y-145370614D01*
X90998059Y-145370614D01*
X91093297Y-145418233D01*
X91140916Y-145465852D01*
X90236154Y-146037280D02*
X90236154Y-145370614D01*
X90236154Y-145465852D02*
X90188535Y-145418233D01*
X90093297Y-145370614D01*
X89950440Y-145370614D01*
X89855202Y-145418233D01*
X89807583Y-145513471D01*
X89807583Y-146037280D01*
X89807583Y-145513471D02*
X89759964Y-145418233D01*
X89664726Y-145370614D01*
X89521869Y-145370614D01*
X89426630Y-145418233D01*
X89379011Y-145513471D01*
X89379011Y-146037280D01*
X88236154Y-145037280D02*
X87569488Y-145037280D01*
X88236154Y-146037280D01*
X87569488Y-146037280D01*
X86759964Y-146037280D02*
X86759964Y-145037280D01*
X86759964Y-145989661D02*
X86855202Y-146037280D01*
X87045678Y-146037280D01*
X87140916Y-145989661D01*
X87188535Y-145942042D01*
X87236154Y-145846804D01*
X87236154Y-145561090D01*
X87188535Y-145465852D01*
X87140916Y-145418233D01*
X87045678Y-145370614D01*
X86855202Y-145370614D01*
X86759964Y-145418233D01*
X86283773Y-146037280D02*
X86283773Y-145370614D01*
X86283773Y-145037280D02*
X86331392Y-145084900D01*
X86283773Y-145132519D01*
X86236154Y-145084900D01*
X86283773Y-145037280D01*
X86283773Y-145132519D01*
X85950440Y-145370614D02*
X85569488Y-145370614D01*
X85807583Y-146037280D02*
X85807583Y-145180138D01*
X85759964Y-145084900D01*
X85664726Y-145037280D01*
X85569488Y-145037280D01*
X85379011Y-145370614D02*
X84998059Y-145370614D01*
X85236154Y-146037280D02*
X85236154Y-145180138D01*
X85188535Y-145084900D01*
X85093297Y-145037280D01*
X84998059Y-145037280D01*
X84664726Y-145513471D02*
X83902821Y-145513471D01*
X83902821Y-145799185D02*
X84664726Y-145799185D01*
X82902821Y-146037280D02*
X83474250Y-146037280D01*
X83188535Y-146037280D02*
X83188535Y-145037280D01*
X83283773Y-145180138D01*
X83379011Y-145275376D01*
X83474250Y-145322995D01*
X82283773Y-145037280D02*
X82188535Y-145037280D01*
X82093297Y-145084900D01*
X82045678Y-145132519D01*
X81998059Y-145227757D01*
X81950440Y-145418233D01*
X81950440Y-145656328D01*
X81998059Y-145846804D01*
X82045678Y-145942042D01*
X82093297Y-145989661D01*
X82188535Y-146037280D01*
X82283773Y-146037280D01*
X82379011Y-145989661D01*
X82426630Y-145942042D01*
X82474250Y-145846804D01*
X82521869Y-145656328D01*
X82521869Y-145418233D01*
X82474250Y-145227757D01*
X82426630Y-145132519D01*
X82379011Y-145084900D01*
X82283773Y-145037280D01*
X81331392Y-145037280D02*
X81236154Y-145037280D01*
X81140916Y-145084900D01*
X81093297Y-145132519D01*
X81045678Y-145227757D01*
X80998059Y-145418233D01*
X80998059Y-145656328D01*
X81045678Y-145846804D01*
X81093297Y-145942042D01*
X81140916Y-145989661D01*
X81236154Y-146037280D01*
X81331392Y-146037280D01*
X81426630Y-145989661D01*
X81474250Y-145942042D01*
X81521869Y-145846804D01*
X81569488Y-145656328D01*
X81569488Y-145418233D01*
X81521869Y-145227757D01*
X81474250Y-145132519D01*
X81426630Y-145084900D01*
X81331392Y-145037280D01*
X79617107Y-145037280D02*
X79426630Y-145037280D01*
X79331392Y-145084900D01*
X79236154Y-145180138D01*
X79188535Y-145370614D01*
X79188535Y-145703947D01*
X79236154Y-145894423D01*
X79331392Y-145989661D01*
X79426630Y-146037280D01*
X79617107Y-146037280D01*
X79712345Y-145989661D01*
X79807583Y-145894423D01*
X79855202Y-145703947D01*
X79855202Y-145370614D01*
X79807583Y-145180138D01*
X79712345Y-145084900D01*
X79617107Y-145037280D01*
X78759964Y-146037280D02*
X78759964Y-145037280D01*
X78331392Y-146037280D02*
X78331392Y-145513471D01*
X78379011Y-145418233D01*
X78474250Y-145370614D01*
X78617107Y-145370614D01*
X78712345Y-145418233D01*
X78759964Y-145465852D01*
X77855202Y-146037280D02*
X77855202Y-145370614D01*
X77855202Y-145465852D02*
X77807583Y-145418233D01*
X77712345Y-145370614D01*
X77569488Y-145370614D01*
X77474250Y-145418233D01*
X77426630Y-145513471D01*
X77426630Y-146037280D01*
X77426630Y-145513471D02*
X77379011Y-145418233D01*
X77283773Y-145370614D01*
X77140916Y-145370614D01*
X77045678Y-145418233D01*
X76998059Y-145513471D01*
X76998059Y-146037280D01*
D11*
X146577300Y-123774200D02*
X146077300Y-123524200D01*
X146077300Y-124024200D02*
X146577300Y-123774200D01*
X146077300Y-123524200D02*
X146077300Y-124024200D01*
X61313700Y-140419900D02*
X61313700Y-139919900D01*
X61313700Y-139919900D02*
X60813700Y-140169900D01*
X60813700Y-140169900D02*
X61313700Y-140419900D01*
X145894350Y-105971150D02*
X146394350Y-105721150D01*
X145894350Y-105471150D02*
X145894350Y-105971150D01*
X146394350Y-105721150D02*
X145894350Y-105471150D01*
X61312000Y-87445000D02*
X60812000Y-87695000D01*
X61312000Y-87945000D02*
X61312000Y-87445000D01*
X60812000Y-87695000D02*
X61312000Y-87945000D01*
X61287450Y-105502900D02*
X60787450Y-105752900D01*
X61287450Y-106002900D02*
X61287450Y-105502900D01*
X60787450Y-105752900D02*
X61287450Y-106002900D01*
X145848700Y-140508800D02*
X146348700Y-140258800D01*
X146348700Y-140258800D02*
X145848700Y-140008800D01*
X145848700Y-140008800D02*
X145848700Y-140508800D01*
X145849900Y-156752100D02*
X146349900Y-156502100D01*
X146349900Y-156502100D02*
X145849900Y-156252100D01*
X145849900Y-156252100D02*
X145849900Y-156752100D01*
X128768000Y-71855000D02*
X129268000Y-71855000D01*
X129018000Y-71355000D02*
X128768000Y-71855000D01*
X129268000Y-71855000D02*
X129018000Y-71355000D01*
X146054000Y-87944000D02*
X146554000Y-87694000D01*
X146054000Y-87444000D02*
X146054000Y-87944000D01*
X146554000Y-87694000D02*
X146054000Y-87444000D01*
X61350600Y-123550000D02*
X60850600Y-123800000D01*
X60850600Y-123800000D02*
X61350600Y-124050000D01*
X61350600Y-124050000D02*
X61350600Y-123550000D01*
X60812850Y-156584650D02*
X61312850Y-156834650D01*
X61312850Y-156834650D02*
X61312850Y-156334650D01*
X61312850Y-156334650D02*
X60812850Y-156584650D01*
%LPC*%
D12*
X57129000Y-128181000D03*
X57129000Y-119421000D03*
D13*
X150297300Y-123774200D03*
D12*
X150297300Y-128154200D03*
X150297300Y-119394200D03*
D13*
X57093700Y-140169900D03*
D12*
X57093700Y-144549900D03*
X57093700Y-135789900D03*
X150304850Y-128179600D03*
X150304850Y-119419600D03*
X57097000Y-92074000D03*
X57097000Y-83314000D03*
D13*
X150114350Y-105721150D03*
D12*
X150114350Y-110101150D03*
X150114350Y-101341150D03*
X150063200Y-135893000D03*
X150063200Y-144653000D03*
D13*
X57092000Y-87695000D03*
D12*
X57092000Y-92075000D03*
X57092000Y-83315000D03*
X57087000Y-135816800D03*
X57087000Y-144576800D03*
D13*
X57067450Y-105752900D03*
D12*
X57067450Y-101372900D03*
X57067450Y-110132900D03*
X150114350Y-110094800D03*
X150114350Y-101334800D03*
D13*
X150068700Y-140258800D03*
D12*
X150068700Y-135878800D03*
X150068700Y-144638800D03*
X57073450Y-101372900D03*
X57073450Y-110132900D03*
D13*
X150069900Y-156502100D03*
D12*
X150069900Y-152122100D03*
X150069900Y-160882100D03*
D14*
X82685000Y-67624000D03*
X73925000Y-67624000D03*
D12*
X150275000Y-83302000D03*
X150275000Y-92062000D03*
X57112400Y-152225200D03*
X57112400Y-160985200D03*
D15*
X129018000Y-67635000D03*
D14*
X124638000Y-67635000D03*
X133398000Y-67635000D03*
D13*
X150274000Y-87694000D03*
D12*
X150274000Y-92074000D03*
X150274000Y-83314000D03*
X150063200Y-152123600D03*
X150063200Y-160883600D03*
X57130600Y-128180000D03*
X57130600Y-119420000D03*
D13*
X57130600Y-123800000D03*
X57092850Y-156584650D03*
D12*
X57092850Y-152204650D03*
X57092850Y-160964650D03*
M02*
