G04 #@! TF.GenerationSoftware,KiCad,Pcbnew,(6.0.1)*
G04 #@! TF.CreationDate,2022-06-06T21:41:38+02:00*
G04 #@! TF.ProjectId,rf_test_board,72665f74-6573-4745-9f62-6f6172642e6b,rev?*
G04 #@! TF.SameCoordinates,Original*
G04 #@! TF.FileFunction,Copper,L3,Inr*
G04 #@! TF.FilePolarity,Positive*
%FSLAX46Y46*%
G04 Gerber Fmt 4.6, Leading zero omitted, Abs format (unit mm)*
G04 Created by KiCad (PCBNEW (6.0.1)) date 2022-06-06 21:41:38*
%MOMM*%
%LPD*%
G01*
G04 APERTURE LIST*
G04 #@! TA.AperFunction,ComponentPad*
%ADD10C,0.970000*%
G04 #@! TD*
G04 #@! TA.AperFunction,ViaPad*
%ADD11C,0.880000*%
G04 #@! TD*
G04 #@! TA.AperFunction,Conductor*
%ADD12C,0.150000*%
G04 #@! TD*
G04 APERTURE END LIST*
D10*
X60569000Y-128181000D03*
X60569000Y-119421000D03*
X146857300Y-128154200D03*
X146857300Y-119394200D03*
X60533700Y-144549900D03*
X60533700Y-135789900D03*
X146864850Y-119419600D03*
X146864850Y-128179600D03*
X60537000Y-92074000D03*
X60537000Y-83314000D03*
X146674350Y-101341150D03*
X146674350Y-110101150D03*
X146623200Y-135893000D03*
X146623200Y-144653000D03*
X60532000Y-92075000D03*
X60532000Y-83315000D03*
X60527000Y-135816800D03*
X60527000Y-144576800D03*
X60507450Y-110132900D03*
X60507450Y-101372900D03*
X146674350Y-110094800D03*
X146674350Y-101334800D03*
X146628700Y-144638800D03*
X146628700Y-135878800D03*
X60513450Y-110132900D03*
X60513450Y-101372900D03*
X146629900Y-160882100D03*
X146629900Y-152122100D03*
X82685000Y-71064000D03*
X73925000Y-71064000D03*
X146835000Y-92062000D03*
X146835000Y-83302000D03*
X60552400Y-160985200D03*
X60552400Y-152225200D03*
X124638000Y-71075000D03*
X133398000Y-71075000D03*
X146834000Y-92074000D03*
X146834000Y-83314000D03*
X146623200Y-160883600D03*
X146623200Y-152123600D03*
X60570600Y-119420000D03*
X60570600Y-128180000D03*
X60532850Y-160964650D03*
X60532850Y-152204650D03*
D11*
X141649000Y-88903000D03*
X143256000Y-88900000D03*
X144780000Y-88900000D03*
X146304000Y-88900000D03*
X139700000Y-86360000D03*
X138684000Y-85344000D03*
X137668000Y-84328000D03*
X136652000Y-83312000D03*
X135636000Y-82296000D03*
X134620000Y-81280000D03*
X133604000Y-80264000D03*
X132588000Y-79248000D03*
X131572000Y-78232000D03*
X130556000Y-77216000D03*
X129540000Y-76200000D03*
X128524000Y-75184000D03*
X127508000Y-74168000D03*
X146304000Y-86360000D03*
X144780000Y-86360000D03*
X143256000Y-86360000D03*
X142240000Y-85344000D03*
X141224000Y-84328000D03*
X140208000Y-83312000D03*
X139192000Y-82296000D03*
X138176000Y-81280000D03*
X137160000Y-80264000D03*
X136144000Y-79248000D03*
X135128000Y-78232000D03*
X134112000Y-77216000D03*
X133096000Y-76200000D03*
X132080000Y-75184000D03*
X131064000Y-74168000D03*
X130556000Y-72644000D03*
X127508000Y-72644000D03*
X135925000Y-80845000D03*
X75905004Y-86233604D03*
X70825004Y-86233604D03*
X68285004Y-86233604D03*
X63205004Y-86233604D03*
X60665004Y-86233604D03*
X73365004Y-86233604D03*
X65745004Y-86233604D03*
X77041004Y-85010604D03*
X77041004Y-79930604D03*
X77041004Y-77390604D03*
X77041004Y-72310604D03*
X77041004Y-82470604D03*
X77041004Y-74850604D03*
X79574004Y-72307604D03*
X79574004Y-85007604D03*
X79574004Y-79927604D03*
X79574004Y-82467604D03*
X79574004Y-74847604D03*
X79574004Y-77387604D03*
X63174004Y-88886604D03*
X70794004Y-88886604D03*
X75874004Y-88886604D03*
X60634004Y-88886604D03*
X68254004Y-88886604D03*
X73334004Y-88886604D03*
X65714004Y-88886604D03*
X78414004Y-88886604D03*
X68580000Y-101600000D03*
X71120000Y-101600000D03*
X73660000Y-101600000D03*
X76200000Y-101600000D03*
X78740000Y-101600000D03*
X81280000Y-101600000D03*
X83820000Y-101600000D03*
X86360000Y-101600000D03*
X88900000Y-101600000D03*
X91440000Y-101600000D03*
X93980000Y-101600000D03*
X99060000Y-101600000D03*
X96520000Y-101600000D03*
X101600000Y-101600000D03*
X104140000Y-101600000D03*
X106680000Y-101600000D03*
X109220000Y-101600000D03*
X111760000Y-101600000D03*
X114300000Y-101600000D03*
X116840000Y-101600000D03*
X119380000Y-101600000D03*
X121920000Y-101600000D03*
X124460000Y-101600000D03*
X127000000Y-101600000D03*
X139700000Y-101600000D03*
X129540000Y-101600000D03*
X132080000Y-101600000D03*
X134620000Y-101600000D03*
X137160000Y-101600000D03*
X137160000Y-109220000D03*
X134620000Y-109220000D03*
X132080000Y-109220000D03*
X129540000Y-109220000D03*
X127000000Y-109220000D03*
X124460000Y-109220000D03*
X121920000Y-109220000D03*
X119380000Y-109220000D03*
X116840000Y-109220000D03*
X114300000Y-109220000D03*
X111760000Y-109220000D03*
X109220000Y-109220000D03*
X106680000Y-109220000D03*
X104140000Y-109220000D03*
X101600000Y-109220000D03*
X96520000Y-109220000D03*
X99060000Y-109220000D03*
X91440000Y-109220000D03*
X93980000Y-109220000D03*
X88900000Y-109220000D03*
X86360000Y-109220000D03*
X83820000Y-109220000D03*
X81280000Y-109220000D03*
X78740000Y-109220000D03*
X76200000Y-109220000D03*
X73660000Y-109220000D03*
X71120000Y-109220000D03*
X60960000Y-125730000D03*
X63500000Y-125730000D03*
X66040000Y-125730000D03*
X144780000Y-125730000D03*
X142240000Y-125730000D03*
X139700000Y-125730000D03*
X137160000Y-125730000D03*
X134620000Y-125730000D03*
X132080000Y-125730000D03*
X129540000Y-125730000D03*
X127000000Y-125730000D03*
X124460000Y-125730000D03*
X121920000Y-125730000D03*
X119380000Y-125730000D03*
X116840000Y-125730000D03*
X114300000Y-125730000D03*
X111760000Y-125730000D03*
X109220000Y-125730000D03*
X106680000Y-125730000D03*
X104140000Y-125730000D03*
X101600000Y-125730000D03*
X99060000Y-125730000D03*
X96520000Y-125730000D03*
X93980000Y-125730000D03*
X91440000Y-125730000D03*
X88900000Y-125730000D03*
X86360000Y-125730000D03*
X83820000Y-125730000D03*
X81280000Y-125730000D03*
X78740000Y-125730000D03*
X76200000Y-125730000D03*
X73660000Y-125730000D03*
X71120000Y-125730000D03*
X68580000Y-125730000D03*
X68580000Y-121920000D03*
X139700000Y-121920000D03*
X137160000Y-121920000D03*
X134620000Y-121920000D03*
X132080000Y-121920000D03*
X129540000Y-121920000D03*
X127000000Y-121920000D03*
X121920000Y-121920000D03*
X124460000Y-121920000D03*
X119380000Y-121920000D03*
X116840000Y-121920000D03*
X111760000Y-121920000D03*
X114300000Y-121920000D03*
X109220000Y-121920000D03*
X104140000Y-121920000D03*
X106680000Y-121920000D03*
X101600000Y-121920000D03*
X96520000Y-121920000D03*
X99060000Y-121920000D03*
X93980000Y-121920000D03*
X91440000Y-121920000D03*
X88900000Y-121920000D03*
X86360000Y-121920000D03*
X83820000Y-121920000D03*
X81280000Y-121920000D03*
X78740000Y-121920000D03*
X76200000Y-121920000D03*
X73660000Y-121920000D03*
X71120000Y-121920000D03*
X64102400Y-117920450D03*
X66236000Y-115844000D03*
X65220000Y-116860000D03*
X66030450Y-113487600D03*
X63954000Y-111354000D03*
X64970000Y-112370000D03*
X143500450Y-118497600D03*
X141424000Y-116364000D03*
X142440000Y-117380000D03*
X141382400Y-113040450D03*
X143516000Y-110964000D03*
X142500000Y-111980000D03*
X138400000Y-105760000D03*
X69430000Y-105760000D03*
X139147550Y-118770400D03*
X140208000Y-119888000D03*
X141224000Y-120904000D03*
X139090400Y-110788450D03*
X140208000Y-109728000D03*
X141224000Y-108712000D03*
X66700400Y-120440450D03*
X67818000Y-119380000D03*
X68834000Y-118364000D03*
X67818000Y-109728000D03*
X66757550Y-108610400D03*
X68834000Y-110744000D03*
X69430900Y-115589050D03*
X69437250Y-114033300D03*
X138404600Y-114020600D03*
X138398250Y-115576350D03*
D12*
X69430000Y-105760000D02*
X138400000Y-105760000D01*
G04 #@! TA.AperFunction,Conductor*
G36*
X152350322Y-134187589D02*
G01*
X152418423Y-134207657D01*
X152464864Y-134261357D01*
X152476200Y-134313589D01*
X152476200Y-162129200D01*
X152456198Y-162197321D01*
X152402542Y-162243814D01*
X152350200Y-162255200D01*
X54863000Y-162255200D01*
X54794879Y-162235198D01*
X54748386Y-162181542D01*
X54737000Y-162129200D01*
X54737000Y-134219562D01*
X54757002Y-134151441D01*
X54810658Y-134104948D01*
X54863122Y-134093562D01*
X152350322Y-134187589D01*
G37*
G04 #@! TD.AperFunction*
G04 #@! TA.AperFunction,Conductor*
G36*
X152418248Y-99660393D02*
G01*
X152464778Y-99714017D01*
X152476200Y-99766438D01*
X152476200Y-129744065D01*
X152456198Y-129812186D01*
X152402542Y-129858679D01*
X152350213Y-129870065D01*
X86770000Y-129876705D01*
X54863013Y-129879936D01*
X54794890Y-129859941D01*
X54748392Y-129806290D01*
X54737000Y-129753936D01*
X54737000Y-115575743D01*
X68477904Y-115575743D01*
X68478420Y-115581887D01*
X68492403Y-115748401D01*
X68493469Y-115761101D01*
X68544740Y-115939905D01*
X68547558Y-115945387D01*
X68547559Y-115945391D01*
X68626945Y-116099860D01*
X68626948Y-116099864D01*
X68629765Y-116105346D01*
X68745305Y-116251121D01*
X68749998Y-116255115D01*
X68749999Y-116255116D01*
X68872037Y-116358978D01*
X68886959Y-116371678D01*
X68892337Y-116374684D01*
X68892339Y-116374685D01*
X68994799Y-116431947D01*
X69049332Y-116462425D01*
X69055191Y-116464329D01*
X69055194Y-116464330D01*
X69096152Y-116477638D01*
X69226238Y-116519906D01*
X69232348Y-116520635D01*
X69232350Y-116520635D01*
X69318589Y-116530918D01*
X69410940Y-116541930D01*
X69417075Y-116541458D01*
X69417077Y-116541458D01*
X69590259Y-116528132D01*
X69590262Y-116528131D01*
X69596402Y-116527659D01*
X69624171Y-116519906D01*
X69769629Y-116479294D01*
X69769630Y-116479294D01*
X69775560Y-116477638D01*
X69781058Y-116474861D01*
X69936090Y-116396549D01*
X69936092Y-116396548D01*
X69941591Y-116393770D01*
X70088169Y-116279250D01*
X70092195Y-116274586D01*
X70092198Y-116274583D01*
X70205683Y-116143109D01*
X70205684Y-116143107D01*
X70209712Y-116138441D01*
X70219972Y-116120381D01*
X70298543Y-115982069D01*
X70301590Y-115976706D01*
X70360304Y-115800205D01*
X70383617Y-115615662D01*
X70383989Y-115589050D01*
X70381439Y-115563043D01*
X137445254Y-115563043D01*
X137460819Y-115748401D01*
X137512090Y-115927205D01*
X137514908Y-115932687D01*
X137514909Y-115932691D01*
X137594295Y-116087160D01*
X137594298Y-116087164D01*
X137597115Y-116092646D01*
X137712655Y-116238421D01*
X137717348Y-116242415D01*
X137717349Y-116242416D01*
X137732272Y-116255116D01*
X137854309Y-116358978D01*
X137859687Y-116361984D01*
X137859689Y-116361985D01*
X137962149Y-116419247D01*
X138016682Y-116449725D01*
X138022541Y-116451629D01*
X138022544Y-116451630D01*
X138055768Y-116462425D01*
X138193588Y-116507206D01*
X138199698Y-116507935D01*
X138199700Y-116507935D01*
X138262574Y-116515432D01*
X138378290Y-116529230D01*
X138384425Y-116528758D01*
X138384427Y-116528758D01*
X138557609Y-116515432D01*
X138557612Y-116515431D01*
X138563752Y-116514959D01*
X138591521Y-116507206D01*
X138736979Y-116466594D01*
X138736980Y-116466594D01*
X138742910Y-116464938D01*
X138753840Y-116459417D01*
X138903440Y-116383849D01*
X138903442Y-116383848D01*
X138908941Y-116381070D01*
X139055519Y-116266550D01*
X139059545Y-116261886D01*
X139059548Y-116261883D01*
X139173033Y-116130409D01*
X139173034Y-116130407D01*
X139177062Y-116125741D01*
X139268940Y-115964006D01*
X139327654Y-115787505D01*
X139350967Y-115602962D01*
X139351164Y-115588846D01*
X139351290Y-115579872D01*
X139351290Y-115579868D01*
X139351339Y-115576350D01*
X139333188Y-115391227D01*
X139279425Y-115213156D01*
X139270033Y-115195493D01*
X139194994Y-115054365D01*
X139194993Y-115054363D01*
X139192098Y-115048919D01*
X139074534Y-114904771D01*
X139069792Y-114900848D01*
X139069790Y-114900846D01*
X139067640Y-114899067D01*
X139066824Y-114897858D01*
X139065443Y-114896468D01*
X139065707Y-114896206D01*
X139027902Y-114840233D01*
X139026279Y-114769255D01*
X139060296Y-114712029D01*
X139061869Y-114710800D01*
X139071736Y-114699369D01*
X139179383Y-114574659D01*
X139179384Y-114574657D01*
X139183412Y-114569991D01*
X139275290Y-114408256D01*
X139334004Y-114231755D01*
X139357317Y-114047212D01*
X139357514Y-114033096D01*
X139357640Y-114024122D01*
X139357640Y-114024118D01*
X139357689Y-114020600D01*
X139339538Y-113835477D01*
X139285775Y-113657406D01*
X139276383Y-113639743D01*
X139201344Y-113498615D01*
X139201343Y-113498613D01*
X139198448Y-113493169D01*
X139154605Y-113439412D01*
X139084779Y-113353796D01*
X139084776Y-113353793D01*
X139080884Y-113349021D01*
X139075254Y-113344363D01*
X138957662Y-113247082D01*
X138937561Y-113230453D01*
X138773937Y-113141982D01*
X138637273Y-113099678D01*
X138602132Y-113088800D01*
X138602129Y-113088799D01*
X138596245Y-113086978D01*
X138590120Y-113086334D01*
X138590119Y-113086334D01*
X138417382Y-113068178D01*
X138417381Y-113068178D01*
X138411254Y-113067534D01*
X138334436Y-113074525D01*
X138232148Y-113083834D01*
X138232145Y-113083835D01*
X138226009Y-113084393D01*
X138220103Y-113086131D01*
X138220099Y-113086132D01*
X138087607Y-113125127D01*
X138047567Y-113136911D01*
X137882724Y-113223089D01*
X137877924Y-113226949D01*
X137877923Y-113226949D01*
X137861414Y-113240223D01*
X137737759Y-113339644D01*
X137733800Y-113344362D01*
X137733799Y-113344363D01*
X137722531Y-113357792D01*
X137618193Y-113482136D01*
X137615230Y-113487525D01*
X137615227Y-113487530D01*
X137540724Y-113623052D01*
X137528582Y-113645138D01*
X137526721Y-113651005D01*
X137526720Y-113651007D01*
X137518790Y-113676006D01*
X137472338Y-113822442D01*
X137451604Y-114007293D01*
X137467169Y-114192651D01*
X137518440Y-114371455D01*
X137521258Y-114376937D01*
X137521259Y-114376941D01*
X137600645Y-114531410D01*
X137600648Y-114531414D01*
X137603465Y-114536896D01*
X137719005Y-114682671D01*
X137723699Y-114686666D01*
X137723702Y-114686669D01*
X137737571Y-114698473D01*
X137776483Y-114757857D01*
X137777112Y-114828851D01*
X137739313Y-114885898D01*
X137740612Y-114887224D01*
X137736215Y-114891530D01*
X137731409Y-114895394D01*
X137611843Y-115037886D01*
X137608880Y-115043275D01*
X137608877Y-115043280D01*
X137534374Y-115178802D01*
X137522232Y-115200888D01*
X137520371Y-115206755D01*
X137520370Y-115206757D01*
X137512440Y-115231756D01*
X137465988Y-115378192D01*
X137445254Y-115563043D01*
X70381439Y-115563043D01*
X70365838Y-115403927D01*
X70312075Y-115225856D01*
X70224748Y-115061619D01*
X70107184Y-114917471D01*
X70102442Y-114913548D01*
X70102440Y-114913546D01*
X70100290Y-114911767D01*
X70099474Y-114910558D01*
X70098093Y-114909168D01*
X70098357Y-114908906D01*
X70060552Y-114852933D01*
X70058929Y-114781955D01*
X70092946Y-114724729D01*
X70094519Y-114723500D01*
X70098546Y-114718835D01*
X70212033Y-114587359D01*
X70212034Y-114587357D01*
X70216062Y-114582691D01*
X70226322Y-114564631D01*
X70304893Y-114426319D01*
X70307940Y-114420956D01*
X70366654Y-114244455D01*
X70389967Y-114059912D01*
X70390339Y-114033300D01*
X70372188Y-113848177D01*
X70318425Y-113670106D01*
X70231098Y-113505869D01*
X70187255Y-113452112D01*
X70117429Y-113366496D01*
X70117426Y-113366493D01*
X70113534Y-113361721D01*
X70107904Y-113357063D01*
X69974960Y-113247082D01*
X69970211Y-113243153D01*
X69806587Y-113154682D01*
X69717741Y-113127180D01*
X69634782Y-113101500D01*
X69634779Y-113101499D01*
X69628895Y-113099678D01*
X69622770Y-113099034D01*
X69622769Y-113099034D01*
X69450032Y-113080878D01*
X69450031Y-113080878D01*
X69443904Y-113080234D01*
X69376878Y-113086334D01*
X69264798Y-113096534D01*
X69264795Y-113096535D01*
X69258659Y-113097093D01*
X69252753Y-113098831D01*
X69252749Y-113098832D01*
X69129277Y-113135172D01*
X69080217Y-113149611D01*
X68915374Y-113235789D01*
X68770409Y-113352344D01*
X68766450Y-113357062D01*
X68766449Y-113357063D01*
X68656252Y-113488390D01*
X68650843Y-113494836D01*
X68647880Y-113500225D01*
X68647877Y-113500230D01*
X68573374Y-113635752D01*
X68561232Y-113657838D01*
X68504988Y-113835142D01*
X68484254Y-114019993D01*
X68484770Y-114026137D01*
X68498753Y-114192651D01*
X68499819Y-114205351D01*
X68551090Y-114384155D01*
X68553908Y-114389637D01*
X68553909Y-114389641D01*
X68633295Y-114544110D01*
X68633298Y-114544114D01*
X68636115Y-114549596D01*
X68751655Y-114695371D01*
X68756349Y-114699366D01*
X68756352Y-114699369D01*
X68770221Y-114711173D01*
X68809133Y-114770557D01*
X68809762Y-114841551D01*
X68771963Y-114898598D01*
X68773262Y-114899924D01*
X68768865Y-114904230D01*
X68764059Y-114908094D01*
X68756191Y-114917471D01*
X68650624Y-115043280D01*
X68644493Y-115050586D01*
X68641530Y-115055975D01*
X68641527Y-115055980D01*
X68567024Y-115191502D01*
X68554882Y-115213588D01*
X68498638Y-115390892D01*
X68477904Y-115575743D01*
X54737000Y-115575743D01*
X54737000Y-99786423D01*
X54757002Y-99718302D01*
X54810658Y-99671809D01*
X54863083Y-99660423D01*
X61581506Y-99664840D01*
X69303962Y-99669917D01*
X69372069Y-99689964D01*
X69418527Y-99743650D01*
X69429879Y-99796038D01*
X69425174Y-104693047D01*
X69405106Y-104761149D01*
X69351406Y-104807590D01*
X69310595Y-104818407D01*
X69279478Y-104821238D01*
X69257549Y-104823234D01*
X69257547Y-104823234D01*
X69251409Y-104823793D01*
X69245503Y-104825531D01*
X69245499Y-104825532D01*
X69113007Y-104864527D01*
X69072967Y-104876311D01*
X68908124Y-104962489D01*
X68763159Y-105079044D01*
X68759200Y-105083762D01*
X68759199Y-105083763D01*
X68751284Y-105093196D01*
X68643593Y-105221536D01*
X68640630Y-105226925D01*
X68640627Y-105226930D01*
X68566124Y-105362452D01*
X68553982Y-105384538D01*
X68497738Y-105561842D01*
X68477004Y-105746693D01*
X68492569Y-105932051D01*
X68543840Y-106110855D01*
X68546658Y-106116337D01*
X68546659Y-106116341D01*
X68626045Y-106270810D01*
X68626048Y-106270814D01*
X68628865Y-106276296D01*
X68744405Y-106422071D01*
X68886059Y-106542628D01*
X68891437Y-106545634D01*
X68891439Y-106545635D01*
X68993899Y-106602897D01*
X69048432Y-106633375D01*
X69054291Y-106635279D01*
X69054294Y-106635280D01*
X69095252Y-106648588D01*
X69225338Y-106690856D01*
X69231448Y-106691585D01*
X69231450Y-106691585D01*
X69312044Y-106701195D01*
X69377317Y-106729122D01*
X69417130Y-106787906D01*
X69423125Y-106826430D01*
X69420000Y-110080000D01*
X69433545Y-110080014D01*
X69433546Y-110080014D01*
X138381884Y-110149982D01*
X138381885Y-110149982D01*
X138400000Y-110150000D01*
X138403164Y-106827658D01*
X138423231Y-106759556D01*
X138476931Y-106713115D01*
X138519497Y-106702149D01*
X138559359Y-106699082D01*
X138559362Y-106699081D01*
X138565502Y-106698609D01*
X138593271Y-106690856D01*
X138738729Y-106650244D01*
X138738730Y-106650244D01*
X138744660Y-106648588D01*
X138750158Y-106645811D01*
X138905190Y-106567499D01*
X138905192Y-106567498D01*
X138910691Y-106564720D01*
X139057269Y-106450200D01*
X139061295Y-106445536D01*
X139061298Y-106445533D01*
X139174783Y-106314059D01*
X139174784Y-106314057D01*
X139178812Y-106309391D01*
X139270690Y-106147656D01*
X139329404Y-105971155D01*
X139352717Y-105786612D01*
X139353089Y-105760000D01*
X139334938Y-105574877D01*
X139281175Y-105396806D01*
X139193848Y-105232569D01*
X139148119Y-105176500D01*
X139080179Y-105093196D01*
X139080176Y-105093193D01*
X139076284Y-105088421D01*
X139070654Y-105083763D01*
X138937710Y-104973782D01*
X138932961Y-104969853D01*
X138769337Y-104881382D01*
X138680491Y-104853880D01*
X138597532Y-104828200D01*
X138597529Y-104828199D01*
X138591645Y-104826378D01*
X138585520Y-104825734D01*
X138585519Y-104825734D01*
X138518025Y-104818640D01*
X138452368Y-104791626D01*
X138411739Y-104733405D01*
X138405197Y-104693216D01*
X138409880Y-99775793D01*
X138429947Y-99707692D01*
X138483647Y-99661251D01*
X138535794Y-99649914D01*
X141828331Y-99647655D01*
X152350117Y-99640439D01*
X152418248Y-99660393D01*
G37*
G04 #@! TD.AperFunction*
G04 #@! TA.AperFunction,Conductor*
G36*
X135309302Y-81604464D02*
G01*
X135379800Y-81626557D01*
X135381059Y-81627628D01*
X135386440Y-81630635D01*
X135386441Y-81630636D01*
X135438799Y-81659898D01*
X135543432Y-81718375D01*
X135549291Y-81720279D01*
X135549294Y-81720280D01*
X135590252Y-81733588D01*
X135720338Y-81775856D01*
X135726448Y-81776585D01*
X135726450Y-81776585D01*
X135789324Y-81784082D01*
X135905040Y-81797880D01*
X135911175Y-81797408D01*
X135911177Y-81797408D01*
X136084359Y-81784082D01*
X136084362Y-81784081D01*
X136090502Y-81783609D01*
X136118271Y-81775856D01*
X136263729Y-81735244D01*
X136263730Y-81735244D01*
X136269660Y-81733588D01*
X136280685Y-81728019D01*
X136430190Y-81652499D01*
X136430192Y-81652498D01*
X136435691Y-81649720D01*
X136459382Y-81631211D01*
X136525375Y-81605033D01*
X136536947Y-81604501D01*
X152350204Y-81604981D01*
X152418324Y-81624985D01*
X152464815Y-81678642D01*
X152476200Y-81730981D01*
X152476200Y-93650949D01*
X152456198Y-93719070D01*
X152402542Y-93765563D01*
X152350190Y-93776949D01*
X148216359Y-93776614D01*
X54862990Y-93769052D01*
X54794871Y-93749044D01*
X54748382Y-93695385D01*
X54737000Y-93643052D01*
X54737000Y-81728019D01*
X54757002Y-81659898D01*
X54810658Y-81613405D01*
X54863004Y-81602019D01*
X135309302Y-81604464D01*
G37*
G04 #@! TD.AperFunction*
M02*
