G04 #@! TF.GenerationSoftware,KiCad,Pcbnew,(6.0.1)*
G04 #@! TF.CreationDate,2022-06-06T21:41:38+02:00*
G04 #@! TF.ProjectId,rf_test_board,72665f74-6573-4745-9f62-6f6172642e6b,rev?*
G04 #@! TF.SameCoordinates,Original*
G04 #@! TF.FileFunction,Copper,L2,Inr*
G04 #@! TF.FilePolarity,Positive*
%FSLAX46Y46*%
G04 Gerber Fmt 4.6, Leading zero omitted, Abs format (unit mm)*
G04 Created by KiCad (PCBNEW (6.0.1)) date 2022-06-06 21:41:38*
%MOMM*%
%LPD*%
G01*
G04 APERTURE LIST*
G04 #@! TA.AperFunction,ComponentPad*
%ADD10C,0.970000*%
G04 #@! TD*
G04 #@! TA.AperFunction,ViaPad*
%ADD11C,0.880000*%
G04 #@! TD*
G04 #@! TA.AperFunction,Conductor*
%ADD12C,0.150000*%
G04 #@! TD*
G04 APERTURE END LIST*
D10*
X60569000Y-128181000D03*
X60569000Y-119421000D03*
X146857300Y-128154200D03*
X146857300Y-119394200D03*
X60533700Y-144549900D03*
X60533700Y-135789900D03*
X146864850Y-119419600D03*
X146864850Y-128179600D03*
X60537000Y-92074000D03*
X60537000Y-83314000D03*
X146674350Y-101341150D03*
X146674350Y-110101150D03*
X146623200Y-135893000D03*
X146623200Y-144653000D03*
X60532000Y-92075000D03*
X60532000Y-83315000D03*
X60527000Y-135816800D03*
X60527000Y-144576800D03*
X60507450Y-110132900D03*
X60507450Y-101372900D03*
X146674350Y-110094800D03*
X146674350Y-101334800D03*
X146628700Y-144638800D03*
X146628700Y-135878800D03*
X60513450Y-110132900D03*
X60513450Y-101372900D03*
X146629900Y-160882100D03*
X146629900Y-152122100D03*
X82685000Y-71064000D03*
X73925000Y-71064000D03*
X146835000Y-92062000D03*
X146835000Y-83302000D03*
X60552400Y-160985200D03*
X60552400Y-152225200D03*
X124638000Y-71075000D03*
X133398000Y-71075000D03*
X146834000Y-92074000D03*
X146834000Y-83314000D03*
X146623200Y-160883600D03*
X146623200Y-152123600D03*
X60570600Y-119420000D03*
X60570600Y-128180000D03*
X60532850Y-160964650D03*
X60532850Y-152204650D03*
D11*
X141649000Y-88903000D03*
X143256000Y-88900000D03*
X144780000Y-88900000D03*
X146304000Y-88900000D03*
X139700000Y-86360000D03*
X138684000Y-85344000D03*
X137668000Y-84328000D03*
X136652000Y-83312000D03*
X135636000Y-82296000D03*
X134620000Y-81280000D03*
X133604000Y-80264000D03*
X132588000Y-79248000D03*
X131572000Y-78232000D03*
X130556000Y-77216000D03*
X129540000Y-76200000D03*
X128524000Y-75184000D03*
X127508000Y-74168000D03*
X146304000Y-86360000D03*
X144780000Y-86360000D03*
X143256000Y-86360000D03*
X142240000Y-85344000D03*
X141224000Y-84328000D03*
X140208000Y-83312000D03*
X139192000Y-82296000D03*
X138176000Y-81280000D03*
X137160000Y-80264000D03*
X136144000Y-79248000D03*
X135128000Y-78232000D03*
X134112000Y-77216000D03*
X133096000Y-76200000D03*
X132080000Y-75184000D03*
X131064000Y-74168000D03*
X130556000Y-72644000D03*
X127508000Y-72644000D03*
X135925000Y-80845000D03*
X75905004Y-86233604D03*
X70825004Y-86233604D03*
X68285004Y-86233604D03*
X63205004Y-86233604D03*
X60665004Y-86233604D03*
X73365004Y-86233604D03*
X65745004Y-86233604D03*
X77041004Y-85010604D03*
X77041004Y-79930604D03*
X77041004Y-77390604D03*
X77041004Y-72310604D03*
X77041004Y-82470604D03*
X77041004Y-74850604D03*
X79574004Y-72307604D03*
X79574004Y-85007604D03*
X79574004Y-79927604D03*
X79574004Y-82467604D03*
X79574004Y-74847604D03*
X79574004Y-77387604D03*
X63174004Y-88886604D03*
X70794004Y-88886604D03*
X75874004Y-88886604D03*
X60634004Y-88886604D03*
X68254004Y-88886604D03*
X73334004Y-88886604D03*
X65714004Y-88886604D03*
X78414004Y-88886604D03*
X68580000Y-101600000D03*
X71120000Y-101600000D03*
X73660000Y-101600000D03*
X76200000Y-101600000D03*
X78740000Y-101600000D03*
X81280000Y-101600000D03*
X83820000Y-101600000D03*
X86360000Y-101600000D03*
X88900000Y-101600000D03*
X91440000Y-101600000D03*
X93980000Y-101600000D03*
X99060000Y-101600000D03*
X96520000Y-101600000D03*
X101600000Y-101600000D03*
X104140000Y-101600000D03*
X106680000Y-101600000D03*
X109220000Y-101600000D03*
X111760000Y-101600000D03*
X114300000Y-101600000D03*
X116840000Y-101600000D03*
X119380000Y-101600000D03*
X121920000Y-101600000D03*
X124460000Y-101600000D03*
X127000000Y-101600000D03*
X139700000Y-101600000D03*
X129540000Y-101600000D03*
X132080000Y-101600000D03*
X134620000Y-101600000D03*
X137160000Y-101600000D03*
X137160000Y-109220000D03*
X134620000Y-109220000D03*
X132080000Y-109220000D03*
X129540000Y-109220000D03*
X127000000Y-109220000D03*
X124460000Y-109220000D03*
X121920000Y-109220000D03*
X119380000Y-109220000D03*
X116840000Y-109220000D03*
X114300000Y-109220000D03*
X111760000Y-109220000D03*
X109220000Y-109220000D03*
X106680000Y-109220000D03*
X104140000Y-109220000D03*
X101600000Y-109220000D03*
X96520000Y-109220000D03*
X99060000Y-109220000D03*
X91440000Y-109220000D03*
X93980000Y-109220000D03*
X88900000Y-109220000D03*
X86360000Y-109220000D03*
X83820000Y-109220000D03*
X81280000Y-109220000D03*
X78740000Y-109220000D03*
X76200000Y-109220000D03*
X73660000Y-109220000D03*
X71120000Y-109220000D03*
X60960000Y-125730000D03*
X63500000Y-125730000D03*
X66040000Y-125730000D03*
X144780000Y-125730000D03*
X142240000Y-125730000D03*
X139700000Y-125730000D03*
X137160000Y-125730000D03*
X134620000Y-125730000D03*
X132080000Y-125730000D03*
X129540000Y-125730000D03*
X127000000Y-125730000D03*
X124460000Y-125730000D03*
X121920000Y-125730000D03*
X119380000Y-125730000D03*
X116840000Y-125730000D03*
X114300000Y-125730000D03*
X111760000Y-125730000D03*
X109220000Y-125730000D03*
X106680000Y-125730000D03*
X104140000Y-125730000D03*
X101600000Y-125730000D03*
X99060000Y-125730000D03*
X96520000Y-125730000D03*
X93980000Y-125730000D03*
X91440000Y-125730000D03*
X88900000Y-125730000D03*
X86360000Y-125730000D03*
X83820000Y-125730000D03*
X81280000Y-125730000D03*
X78740000Y-125730000D03*
X76200000Y-125730000D03*
X73660000Y-125730000D03*
X71120000Y-125730000D03*
X68580000Y-125730000D03*
X68580000Y-121920000D03*
X139700000Y-121920000D03*
X137160000Y-121920000D03*
X134620000Y-121920000D03*
X132080000Y-121920000D03*
X129540000Y-121920000D03*
X127000000Y-121920000D03*
X121920000Y-121920000D03*
X124460000Y-121920000D03*
X119380000Y-121920000D03*
X116840000Y-121920000D03*
X111760000Y-121920000D03*
X114300000Y-121920000D03*
X109220000Y-121920000D03*
X104140000Y-121920000D03*
X106680000Y-121920000D03*
X101600000Y-121920000D03*
X96520000Y-121920000D03*
X99060000Y-121920000D03*
X93980000Y-121920000D03*
X91440000Y-121920000D03*
X88900000Y-121920000D03*
X86360000Y-121920000D03*
X83820000Y-121920000D03*
X81280000Y-121920000D03*
X78740000Y-121920000D03*
X76200000Y-121920000D03*
X73660000Y-121920000D03*
X71120000Y-121920000D03*
X64102400Y-117920450D03*
X66236000Y-115844000D03*
X65220000Y-116860000D03*
X66030450Y-113487600D03*
X63954000Y-111354000D03*
X64970000Y-112370000D03*
X143500450Y-118497600D03*
X141424000Y-116364000D03*
X142440000Y-117380000D03*
X141382400Y-113040450D03*
X143516000Y-110964000D03*
X142500000Y-111980000D03*
X138400000Y-105760000D03*
X69430000Y-105760000D03*
X139147550Y-118770400D03*
X140208000Y-119888000D03*
X141224000Y-120904000D03*
X139090400Y-110788450D03*
X140208000Y-109728000D03*
X141224000Y-108712000D03*
X66700400Y-120440450D03*
X67818000Y-119380000D03*
X68834000Y-118364000D03*
X67818000Y-109728000D03*
X66757550Y-108610400D03*
X68834000Y-110744000D03*
X69430900Y-115589050D03*
X69437250Y-114033300D03*
X138404600Y-114020600D03*
X138398250Y-115576350D03*
D12*
X69437250Y-115481100D02*
X138500000Y-115481100D01*
X69303900Y-115462050D02*
X69430900Y-115589050D01*
X69373750Y-114096800D02*
X69437250Y-114033300D01*
X69405500Y-114115850D02*
X138500000Y-114115850D01*
X138271250Y-115449350D02*
X138398250Y-115576350D01*
G04 #@! TA.AperFunction,Conductor*
G36*
X152476200Y-134327782D02*
G01*
X152476200Y-162129200D01*
X152456198Y-162197321D01*
X152402542Y-162243814D01*
X152350200Y-162255200D01*
X54863000Y-162255200D01*
X54794879Y-162235198D01*
X54748386Y-162181542D01*
X54737000Y-162129200D01*
X54737000Y-134302631D01*
X152476200Y-134327782D01*
G37*
G04 #@! TD.AperFunction*
G04 #@! TA.AperFunction,Conductor*
G36*
X152418136Y-99646138D02*
G01*
X152464722Y-99699712D01*
X152476200Y-99752254D01*
X152476200Y-129756900D01*
X152456198Y-129825021D01*
X152402542Y-129871514D01*
X152350200Y-129882900D01*
X138517900Y-129882900D01*
X138449779Y-129862898D01*
X138403286Y-129809242D01*
X138391900Y-129756900D01*
X138391900Y-116644860D01*
X138411902Y-116576739D01*
X138465558Y-116530246D01*
X138508232Y-116519231D01*
X138520112Y-116518317D01*
X138557609Y-116515432D01*
X138557612Y-116515431D01*
X138563752Y-116514959D01*
X138742910Y-116464938D01*
X138773027Y-116449725D01*
X138903440Y-116383849D01*
X138903442Y-116383848D01*
X138908941Y-116381070D01*
X139055519Y-116266550D01*
X139059545Y-116261886D01*
X139059548Y-116261883D01*
X139173033Y-116130409D01*
X139173034Y-116130407D01*
X139177062Y-116125741D01*
X139268940Y-115964006D01*
X139327654Y-115787505D01*
X139350967Y-115602962D01*
X139351339Y-115576350D01*
X139333188Y-115391227D01*
X139279425Y-115213156D01*
X139192098Y-115048919D01*
X139074534Y-114904771D01*
X139069792Y-114900848D01*
X139069790Y-114900846D01*
X139067640Y-114899067D01*
X139066824Y-114897858D01*
X139065443Y-114896468D01*
X139065707Y-114896206D01*
X139027902Y-114840233D01*
X139026279Y-114769255D01*
X139060296Y-114712029D01*
X139061869Y-114710800D01*
X139065896Y-114706135D01*
X139179383Y-114574659D01*
X139179384Y-114574657D01*
X139183412Y-114569991D01*
X139275290Y-114408256D01*
X139334004Y-114231755D01*
X139357317Y-114047212D01*
X139357689Y-114020600D01*
X139339538Y-113835477D01*
X139285775Y-113657406D01*
X139198448Y-113493169D01*
X139154605Y-113439412D01*
X139084779Y-113353796D01*
X139084776Y-113353793D01*
X139080884Y-113349021D01*
X139069550Y-113339644D01*
X138942310Y-113234382D01*
X138937561Y-113230453D01*
X138773937Y-113141982D01*
X138685091Y-113114480D01*
X138602132Y-113088800D01*
X138602129Y-113088799D01*
X138596245Y-113086978D01*
X138590120Y-113086334D01*
X138590119Y-113086334D01*
X138504729Y-113077359D01*
X138439072Y-113050345D01*
X138398443Y-112992124D01*
X138391900Y-112952049D01*
X138391900Y-106711968D01*
X138559359Y-106699082D01*
X138559362Y-106699081D01*
X138565502Y-106698609D01*
X138744660Y-106648588D01*
X138774777Y-106633375D01*
X138905190Y-106567499D01*
X138905192Y-106567498D01*
X138910691Y-106564720D01*
X139057269Y-106450200D01*
X139061295Y-106445536D01*
X139061298Y-106445533D01*
X139174783Y-106314059D01*
X139174784Y-106314057D01*
X139178812Y-106309391D01*
X139270690Y-106147656D01*
X139329404Y-105971155D01*
X139352717Y-105786612D01*
X139353089Y-105760000D01*
X139334938Y-105574877D01*
X139281175Y-105396806D01*
X139193848Y-105232569D01*
X139150005Y-105178812D01*
X139080179Y-105093196D01*
X139080176Y-105093193D01*
X139076284Y-105088421D01*
X139064950Y-105079044D01*
X138937710Y-104973782D01*
X138932961Y-104969853D01*
X138769337Y-104881382D01*
X138680491Y-104853880D01*
X138597532Y-104828200D01*
X138597529Y-104828199D01*
X138591645Y-104826378D01*
X138585520Y-104825734D01*
X138585519Y-104825734D01*
X138412782Y-104807578D01*
X138412781Y-104807578D01*
X138406654Y-104806934D01*
X138391900Y-104808277D01*
X138391900Y-99650550D01*
X138529999Y-99650310D01*
X150537882Y-99629408D01*
X152349981Y-99626254D01*
X152418136Y-99646138D01*
G37*
G04 #@! TD.AperFunction*
G04 #@! TA.AperFunction,Conductor*
G36*
X69379371Y-99632452D02*
G01*
X69425864Y-99686108D01*
X69437250Y-99738450D01*
X69437250Y-104691827D01*
X69417248Y-104759948D01*
X69363592Y-104806441D01*
X69322671Y-104817308D01*
X69283063Y-104820912D01*
X69257549Y-104823234D01*
X69257547Y-104823234D01*
X69251409Y-104823793D01*
X69245503Y-104825531D01*
X69245499Y-104825532D01*
X69113007Y-104864527D01*
X69072967Y-104876311D01*
X68908124Y-104962489D01*
X68763159Y-105079044D01*
X68759200Y-105083762D01*
X68759199Y-105083763D01*
X68647551Y-105216819D01*
X68643593Y-105221536D01*
X68640630Y-105226925D01*
X68640627Y-105226930D01*
X68566124Y-105362452D01*
X68553982Y-105384538D01*
X68497738Y-105561842D01*
X68477004Y-105746693D01*
X68492569Y-105932051D01*
X68543840Y-106110855D01*
X68546658Y-106116337D01*
X68546659Y-106116341D01*
X68626045Y-106270810D01*
X68626048Y-106270814D01*
X68628865Y-106276296D01*
X68744405Y-106422071D01*
X68886059Y-106542628D01*
X69048432Y-106633375D01*
X69054291Y-106635279D01*
X69054294Y-106635280D01*
X69095252Y-106648588D01*
X69225338Y-106690856D01*
X69231450Y-106691585D01*
X69231451Y-106691585D01*
X69326168Y-106702879D01*
X69391442Y-106730806D01*
X69431255Y-106789589D01*
X69437250Y-106827993D01*
X69437250Y-112965787D01*
X69417248Y-113033908D01*
X69363592Y-113080401D01*
X69322678Y-113091267D01*
X69258659Y-113097093D01*
X69252753Y-113098831D01*
X69252749Y-113098832D01*
X69120257Y-113137827D01*
X69080217Y-113149611D01*
X68915374Y-113235789D01*
X68770409Y-113352344D01*
X68766450Y-113357062D01*
X68766449Y-113357063D01*
X68654801Y-113490119D01*
X68650843Y-113494836D01*
X68647880Y-113500225D01*
X68647877Y-113500230D01*
X68589640Y-113606164D01*
X68561232Y-113657838D01*
X68504988Y-113835142D01*
X68484254Y-114019993D01*
X68499819Y-114205351D01*
X68551090Y-114384155D01*
X68553908Y-114389637D01*
X68553909Y-114389641D01*
X68633295Y-114544110D01*
X68633298Y-114544114D01*
X68636115Y-114549596D01*
X68751655Y-114695371D01*
X68756349Y-114699366D01*
X68756352Y-114699369D01*
X68770221Y-114711173D01*
X68809133Y-114770557D01*
X68809762Y-114841551D01*
X68771963Y-114898598D01*
X68773262Y-114899924D01*
X68768865Y-114904230D01*
X68764059Y-114908094D01*
X68644493Y-115050586D01*
X68641530Y-115055975D01*
X68641527Y-115055980D01*
X68636600Y-115064943D01*
X68554882Y-115213588D01*
X68498638Y-115390892D01*
X68477904Y-115575743D01*
X68493469Y-115761101D01*
X68544740Y-115939905D01*
X68547558Y-115945387D01*
X68547559Y-115945391D01*
X68626945Y-116099860D01*
X68626948Y-116099864D01*
X68629765Y-116105346D01*
X68745305Y-116251121D01*
X68886959Y-116371678D01*
X69049332Y-116462425D01*
X69055191Y-116464329D01*
X69055194Y-116464330D01*
X69096152Y-116477638D01*
X69226238Y-116519906D01*
X69232348Y-116520635D01*
X69232350Y-116520635D01*
X69326169Y-116531822D01*
X69391442Y-116559749D01*
X69431255Y-116618533D01*
X69437250Y-116656936D01*
X69437250Y-129719009D01*
X69417248Y-129787130D01*
X69363592Y-129833623D01*
X69311460Y-129845009D01*
X58102624Y-129863675D01*
X54863210Y-129869070D01*
X54795056Y-129849181D01*
X54748474Y-129795603D01*
X54737000Y-129743070D01*
X54737000Y-99738450D01*
X54757002Y-99670329D01*
X54810658Y-99623836D01*
X54863000Y-99612450D01*
X69311250Y-99612450D01*
X69379371Y-99632452D01*
G37*
G04 #@! TD.AperFunction*
G04 #@! TA.AperFunction,Conductor*
G36*
X152350322Y-134187589D02*
G01*
X152418423Y-134207657D01*
X152464864Y-134261357D01*
X152476200Y-134313589D01*
X152476200Y-162129200D01*
X152456198Y-162197321D01*
X152402542Y-162243814D01*
X152350200Y-162255200D01*
X54863000Y-162255200D01*
X54794879Y-162235198D01*
X54748386Y-162181542D01*
X54737000Y-162129200D01*
X54737000Y-134219562D01*
X54757002Y-134151441D01*
X54810658Y-134104948D01*
X54863122Y-134093562D01*
X152350322Y-134187589D01*
G37*
G04 #@! TD.AperFunction*
G04 #@! TA.AperFunction,Conductor*
G36*
X138530000Y-99650136D02*
G01*
X138520117Y-104818860D01*
X138455576Y-104812076D01*
X138412782Y-104807578D01*
X138412781Y-104807578D01*
X138406654Y-104806934D01*
X138329836Y-104813925D01*
X138227548Y-104823234D01*
X138227545Y-104823235D01*
X138221409Y-104823793D01*
X138215503Y-104825531D01*
X138215499Y-104825532D01*
X138083007Y-104864527D01*
X138042967Y-104876311D01*
X137878124Y-104962489D01*
X137733159Y-105079044D01*
X137729200Y-105083762D01*
X137729199Y-105083763D01*
X137721284Y-105093196D01*
X137613593Y-105221536D01*
X137610630Y-105226925D01*
X137610627Y-105226930D01*
X137536124Y-105362452D01*
X137523982Y-105384538D01*
X137467738Y-105561842D01*
X137447004Y-105746693D01*
X137462569Y-105932051D01*
X137513840Y-106110855D01*
X137516658Y-106116337D01*
X137516659Y-106116341D01*
X137596045Y-106270810D01*
X137596048Y-106270814D01*
X137598865Y-106276296D01*
X137714405Y-106422071D01*
X137856059Y-106542628D01*
X137861437Y-106545634D01*
X137861439Y-106545635D01*
X137963899Y-106602897D01*
X138018432Y-106633375D01*
X138024291Y-106635279D01*
X138024294Y-106635280D01*
X138065252Y-106648588D01*
X138195338Y-106690856D01*
X138201448Y-106691585D01*
X138201450Y-106691585D01*
X138264324Y-106699082D01*
X138380040Y-106712880D01*
X138386175Y-106712408D01*
X138386177Y-106712408D01*
X138516516Y-106702379D01*
X138510000Y-110110000D01*
X107943945Y-110092334D01*
X107597957Y-110092134D01*
X69455365Y-110070089D01*
X69455363Y-110070089D01*
X69437250Y-110070079D01*
X69300000Y-110070000D01*
X69300000Y-106699759D01*
X69357560Y-106706622D01*
X69410040Y-106712880D01*
X69416175Y-106712408D01*
X69416177Y-106712408D01*
X69589359Y-106699082D01*
X69589362Y-106699081D01*
X69595502Y-106698609D01*
X69623271Y-106690856D01*
X69768729Y-106650244D01*
X69768730Y-106650244D01*
X69774660Y-106648588D01*
X69780158Y-106645811D01*
X69935190Y-106567499D01*
X69935192Y-106567498D01*
X69940691Y-106564720D01*
X70087269Y-106450200D01*
X70091295Y-106445536D01*
X70091298Y-106445533D01*
X70204783Y-106314059D01*
X70204784Y-106314057D01*
X70208812Y-106309391D01*
X70300690Y-106147656D01*
X70359404Y-105971155D01*
X70382717Y-105786612D01*
X70383089Y-105760000D01*
X70364938Y-105574877D01*
X70311175Y-105396806D01*
X70223848Y-105232569D01*
X70180005Y-105178812D01*
X70110179Y-105093196D01*
X70110176Y-105093193D01*
X70106284Y-105088421D01*
X70100654Y-105083763D01*
X69967710Y-104973782D01*
X69962961Y-104969853D01*
X69799337Y-104881382D01*
X69710491Y-104853880D01*
X69627532Y-104828200D01*
X69627529Y-104828199D01*
X69621645Y-104826378D01*
X69615520Y-104825734D01*
X69615519Y-104825734D01*
X69442782Y-104807578D01*
X69442781Y-104807578D01*
X69436654Y-104806934D01*
X69300000Y-104819371D01*
X69300000Y-99680000D01*
X69437250Y-99679941D01*
X84270476Y-99673513D01*
X138528746Y-99650001D01*
X138530000Y-99650136D01*
G37*
G04 #@! TD.AperFunction*
G04 #@! TA.AperFunction,Conductor*
G36*
X84341260Y-65272602D02*
G01*
X84387753Y-65326258D01*
X84399139Y-65378773D01*
X84390172Y-71924470D01*
X84370077Y-71992563D01*
X84316357Y-72038982D01*
X84264471Y-72050297D01*
X81906059Y-72055872D01*
X80178115Y-72059957D01*
X80178114Y-72059957D01*
X80160000Y-72060000D01*
X80169928Y-89373996D01*
X80149965Y-89442128D01*
X80096336Y-89488652D01*
X80043998Y-89500068D01*
X69507200Y-89505723D01*
X61558117Y-89509990D01*
X61558116Y-89509990D01*
X61540000Y-89510000D01*
X61539937Y-89523377D01*
X61539937Y-89523379D01*
X61520586Y-93664589D01*
X61500265Y-93732615D01*
X61446393Y-93778857D01*
X61394587Y-93790000D01*
X54863000Y-93790000D01*
X54794879Y-93769998D01*
X54748386Y-93716342D01*
X54737000Y-93664000D01*
X54737000Y-81736000D01*
X54757002Y-81667879D01*
X54810658Y-81621386D01*
X54863000Y-81610000D01*
X61403687Y-81610000D01*
X61471808Y-81630002D01*
X61518301Y-81683658D01*
X61529687Y-81736311D01*
X61520000Y-85640000D01*
X68325423Y-85644561D01*
X76421885Y-85649988D01*
X76440000Y-85650000D01*
X76442878Y-81736000D01*
X76449987Y-72068115D01*
X76449987Y-72068114D01*
X76450000Y-72050000D01*
X76436357Y-72050032D01*
X76436356Y-72050032D01*
X72346298Y-72059701D01*
X72278130Y-72039860D01*
X72231510Y-71986314D01*
X72220000Y-71933701D01*
X72220000Y-65378600D01*
X72240002Y-65310479D01*
X72293658Y-65263986D01*
X72346000Y-65252600D01*
X84273139Y-65252600D01*
X84341260Y-65272602D01*
G37*
G04 #@! TD.AperFunction*
M02*
